M48
; DRILL file {KiCad (5.1.5)-3} date 1/11/2021 1:20:28 AM
; FORMAT={-:-/ absolute / inch / decimal}
; #@! TF.CreationDate,2021-01-11T01:20:28-06:00
; #@! TF.GenerationSoftware,Kicad,Pcbnew,(5.1.5)-3
FMAT,2
INCH
T1C0.0157
T2C0.0354
T3C0.0394
T4C0.0453
T5C0.0787
T6C0.1181
T7C0.0787
%
G90
G05
T1
X5.3189Y-3.2638
X5.3189Y-3.8543
X5.3189Y-4.4449
X5.3189Y-5.0354
X6.1063Y-2.6732
X6.1063Y-3.2638
X6.1063Y-3.8543
X6.1063Y-4.4449
X6.1063Y-5.0354
T2
X4.622Y-3.3661
X4.7205Y-3.1693
X4.8189Y-3.3661
X4.622Y-4.8189
X4.7205Y-4.622
X4.8189Y-4.8189
X4.622Y-3.6969
X4.7205Y-3.5
X4.8189Y-3.6969
X4.622Y-4.4882
X4.7205Y-4.2913
X4.8189Y-4.4882
T3
X6.815Y-3.3268
X6.815Y-3.4268
X5.1472Y-5.1063
X5.1472Y-5.2063
X6.815Y-2.3819
X6.815Y-2.4819
X6.815Y-3.0118
X6.815Y-3.1118
X5.9346Y-3.9252
X5.9346Y-4.0252
X5.9346Y-2.7441
X5.9346Y-2.8441
X4.2362Y-3.4843
X4.2362Y-3.5843
X5.9346Y-5.1063
X5.9346Y-5.2063
X5.9346Y-4.5157
X5.9346Y-4.6157
X7.3346Y-3.7402
X7.3346Y-3.8583
X7.3346Y-3.9764
X7.3346Y-4.0945
X7.3346Y-4.2126
X7.3346Y-4.3307
X7.3346Y-4.4488
X6.815Y-3.9567
X6.815Y-4.0567
X6.815Y-5.2165
X6.815Y-5.3165
X5.9346Y-3.3346
X5.9346Y-3.4346
X6.815Y-4.9016
X6.815Y-5.0016
X4.2362Y-4.6063
X4.2362Y-4.7063
X5.1472Y-3.3346
X5.1472Y-3.4346
X6.815Y-2.0669
X6.815Y-2.1669
X6.815Y-4.2717
X6.815Y-4.3717
X5.1472Y-3.9252
X5.1472Y-4.0252
X7.3346Y-2.7165
X7.3346Y-2.8346
X7.3346Y-2.9528
X7.3346Y-3.0709
X7.3346Y-3.189
X7.3346Y-3.3071
X7.3346Y-3.4252
X6.815Y-2.6969
X6.815Y-2.7969
X6.815Y-4.5866
X6.815Y-4.6866
X6.815Y-3.6417
X6.815Y-3.7417
X5.1472Y-4.5157
X5.1472Y-4.6157
T4
X4.4213Y-4.0157
X4.5213Y-4.0157
X4.6213Y-4.0157
X4.7213Y-4.0157
X4.4213Y-5.1378
X4.5213Y-5.1378
X4.6213Y-5.1378
X4.7213Y-5.1378
X6.4331Y-3.8299
X6.4331Y-3.9299
X6.4331Y-4.0299
X6.4331Y-4.1299
X6.4331Y-2.6488
X6.4331Y-2.7488
X6.4331Y-2.8488
X6.4331Y-2.9488
X5.6457Y-3.8299
X5.6457Y-3.9299
X5.6457Y-4.0299
X5.6457Y-4.1299
X5.6457Y-5.011
X5.6457Y-5.111
X5.6457Y-5.211
X5.6457Y-5.311
X5.6457Y-4.4205
X5.6457Y-4.5205
X5.6457Y-4.6205
X5.6457Y-4.7205
X6.4331Y-5.011
X6.4331Y-5.111
X6.4331Y-5.211
X6.4331Y-5.311
X6.4331Y-3.2394
X6.4331Y-3.3394
X6.4331Y-3.4394
X6.4331Y-3.5394
X6.4331Y-4.4205
X6.4331Y-4.5205
X6.4331Y-4.6205
X6.4331Y-4.7205
X5.6457Y-3.2394
X5.6457Y-3.3394
X5.6457Y-3.4394
X5.6457Y-3.5394
T5
X5.1299Y-2.3819
X4.3976Y-2.3858
T6
X7.5046Y-3.8252
X7.5046Y-4.3638
X7.5046Y-2.8015
X7.5046Y-3.3402
T7
X4.7205Y-3.2677
X4.7205Y-4.7205
X4.7205Y-3.5984
X4.7205Y-4.3898
T0
M30
