%TF.GenerationSoftware,KiCad,Pcbnew,(5.1.5)-3*%
%TF.CreationDate,2021-01-11T01:20:26-06:00*%
%TF.ProjectId,BPS-Test,4250532d-5465-4737-942e-6b696361645f,rev?*%
%TF.SameCoordinates,Original*%
%TF.FileFunction,Paste,Bot*%
%TF.FilePolarity,Positive*%
%FSLAX46Y46*%
G04 Gerber Fmt 4.6, Leading zero omitted, Abs format (unit mm)*
G04 Created by KiCad (PCBNEW (5.1.5)-3) date 2021-01-11 01:20:26*
%MOMM*%
%LPD*%
G04 APERTURE LIST*
%ADD10C,0.100000*%
G04 APERTURE END LIST*
D10*
%TO.C,C1*%
G36*
X115067642Y-98201174D02*
G01*
X115091303Y-98204684D01*
X115114507Y-98210496D01*
X115137029Y-98218554D01*
X115158653Y-98228782D01*
X115179170Y-98241079D01*
X115198383Y-98255329D01*
X115216107Y-98271393D01*
X115232171Y-98289117D01*
X115246421Y-98308330D01*
X115258718Y-98328847D01*
X115268946Y-98350471D01*
X115277004Y-98372993D01*
X115282816Y-98396197D01*
X115286326Y-98419858D01*
X115287500Y-98443750D01*
X115287500Y-99356250D01*
X115286326Y-99380142D01*
X115282816Y-99403803D01*
X115277004Y-99427007D01*
X115268946Y-99449529D01*
X115258718Y-99471153D01*
X115246421Y-99491670D01*
X115232171Y-99510883D01*
X115216107Y-99528607D01*
X115198383Y-99544671D01*
X115179170Y-99558921D01*
X115158653Y-99571218D01*
X115137029Y-99581446D01*
X115114507Y-99589504D01*
X115091303Y-99595316D01*
X115067642Y-99598826D01*
X115043750Y-99600000D01*
X114556250Y-99600000D01*
X114532358Y-99598826D01*
X114508697Y-99595316D01*
X114485493Y-99589504D01*
X114462971Y-99581446D01*
X114441347Y-99571218D01*
X114420830Y-99558921D01*
X114401617Y-99544671D01*
X114383893Y-99528607D01*
X114367829Y-99510883D01*
X114353579Y-99491670D01*
X114341282Y-99471153D01*
X114331054Y-99449529D01*
X114322996Y-99427007D01*
X114317184Y-99403803D01*
X114313674Y-99380142D01*
X114312500Y-99356250D01*
X114312500Y-98443750D01*
X114313674Y-98419858D01*
X114317184Y-98396197D01*
X114322996Y-98372993D01*
X114331054Y-98350471D01*
X114341282Y-98328847D01*
X114353579Y-98308330D01*
X114367829Y-98289117D01*
X114383893Y-98271393D01*
X114401617Y-98255329D01*
X114420830Y-98241079D01*
X114441347Y-98228782D01*
X114462971Y-98218554D01*
X114485493Y-98210496D01*
X114508697Y-98204684D01*
X114532358Y-98201174D01*
X114556250Y-98200000D01*
X115043750Y-98200000D01*
X115067642Y-98201174D01*
G37*
G36*
X113192642Y-98201174D02*
G01*
X113216303Y-98204684D01*
X113239507Y-98210496D01*
X113262029Y-98218554D01*
X113283653Y-98228782D01*
X113304170Y-98241079D01*
X113323383Y-98255329D01*
X113341107Y-98271393D01*
X113357171Y-98289117D01*
X113371421Y-98308330D01*
X113383718Y-98328847D01*
X113393946Y-98350471D01*
X113402004Y-98372993D01*
X113407816Y-98396197D01*
X113411326Y-98419858D01*
X113412500Y-98443750D01*
X113412500Y-99356250D01*
X113411326Y-99380142D01*
X113407816Y-99403803D01*
X113402004Y-99427007D01*
X113393946Y-99449529D01*
X113383718Y-99471153D01*
X113371421Y-99491670D01*
X113357171Y-99510883D01*
X113341107Y-99528607D01*
X113323383Y-99544671D01*
X113304170Y-99558921D01*
X113283653Y-99571218D01*
X113262029Y-99581446D01*
X113239507Y-99589504D01*
X113216303Y-99595316D01*
X113192642Y-99598826D01*
X113168750Y-99600000D01*
X112681250Y-99600000D01*
X112657358Y-99598826D01*
X112633697Y-99595316D01*
X112610493Y-99589504D01*
X112587971Y-99581446D01*
X112566347Y-99571218D01*
X112545830Y-99558921D01*
X112526617Y-99544671D01*
X112508893Y-99528607D01*
X112492829Y-99510883D01*
X112478579Y-99491670D01*
X112466282Y-99471153D01*
X112456054Y-99449529D01*
X112447996Y-99427007D01*
X112442184Y-99403803D01*
X112438674Y-99380142D01*
X112437500Y-99356250D01*
X112437500Y-98443750D01*
X112438674Y-98419858D01*
X112442184Y-98396197D01*
X112447996Y-98372993D01*
X112456054Y-98350471D01*
X112466282Y-98328847D01*
X112478579Y-98308330D01*
X112492829Y-98289117D01*
X112508893Y-98271393D01*
X112526617Y-98255329D01*
X112545830Y-98241079D01*
X112566347Y-98228782D01*
X112587971Y-98218554D01*
X112610493Y-98210496D01*
X112633697Y-98204684D01*
X112657358Y-98201174D01*
X112681250Y-98200000D01*
X113168750Y-98200000D01*
X113192642Y-98201174D01*
G37*
%TD*%
%TO.C,C11*%
G36*
X115067642Y-126701174D02*
G01*
X115091303Y-126704684D01*
X115114507Y-126710496D01*
X115137029Y-126718554D01*
X115158653Y-126728782D01*
X115179170Y-126741079D01*
X115198383Y-126755329D01*
X115216107Y-126771393D01*
X115232171Y-126789117D01*
X115246421Y-126808330D01*
X115258718Y-126828847D01*
X115268946Y-126850471D01*
X115277004Y-126872993D01*
X115282816Y-126896197D01*
X115286326Y-126919858D01*
X115287500Y-126943750D01*
X115287500Y-127856250D01*
X115286326Y-127880142D01*
X115282816Y-127903803D01*
X115277004Y-127927007D01*
X115268946Y-127949529D01*
X115258718Y-127971153D01*
X115246421Y-127991670D01*
X115232171Y-128010883D01*
X115216107Y-128028607D01*
X115198383Y-128044671D01*
X115179170Y-128058921D01*
X115158653Y-128071218D01*
X115137029Y-128081446D01*
X115114507Y-128089504D01*
X115091303Y-128095316D01*
X115067642Y-128098826D01*
X115043750Y-128100000D01*
X114556250Y-128100000D01*
X114532358Y-128098826D01*
X114508697Y-128095316D01*
X114485493Y-128089504D01*
X114462971Y-128081446D01*
X114441347Y-128071218D01*
X114420830Y-128058921D01*
X114401617Y-128044671D01*
X114383893Y-128028607D01*
X114367829Y-128010883D01*
X114353579Y-127991670D01*
X114341282Y-127971153D01*
X114331054Y-127949529D01*
X114322996Y-127927007D01*
X114317184Y-127903803D01*
X114313674Y-127880142D01*
X114312500Y-127856250D01*
X114312500Y-126943750D01*
X114313674Y-126919858D01*
X114317184Y-126896197D01*
X114322996Y-126872993D01*
X114331054Y-126850471D01*
X114341282Y-126828847D01*
X114353579Y-126808330D01*
X114367829Y-126789117D01*
X114383893Y-126771393D01*
X114401617Y-126755329D01*
X114420830Y-126741079D01*
X114441347Y-126728782D01*
X114462971Y-126718554D01*
X114485493Y-126710496D01*
X114508697Y-126704684D01*
X114532358Y-126701174D01*
X114556250Y-126700000D01*
X115043750Y-126700000D01*
X115067642Y-126701174D01*
G37*
G36*
X113192642Y-126701174D02*
G01*
X113216303Y-126704684D01*
X113239507Y-126710496D01*
X113262029Y-126718554D01*
X113283653Y-126728782D01*
X113304170Y-126741079D01*
X113323383Y-126755329D01*
X113341107Y-126771393D01*
X113357171Y-126789117D01*
X113371421Y-126808330D01*
X113383718Y-126828847D01*
X113393946Y-126850471D01*
X113402004Y-126872993D01*
X113407816Y-126896197D01*
X113411326Y-126919858D01*
X113412500Y-126943750D01*
X113412500Y-127856250D01*
X113411326Y-127880142D01*
X113407816Y-127903803D01*
X113402004Y-127927007D01*
X113393946Y-127949529D01*
X113383718Y-127971153D01*
X113371421Y-127991670D01*
X113357171Y-128010883D01*
X113341107Y-128028607D01*
X113323383Y-128044671D01*
X113304170Y-128058921D01*
X113283653Y-128071218D01*
X113262029Y-128081446D01*
X113239507Y-128089504D01*
X113216303Y-128095316D01*
X113192642Y-128098826D01*
X113168750Y-128100000D01*
X112681250Y-128100000D01*
X112657358Y-128098826D01*
X112633697Y-128095316D01*
X112610493Y-128089504D01*
X112587971Y-128081446D01*
X112566347Y-128071218D01*
X112545830Y-128058921D01*
X112526617Y-128044671D01*
X112508893Y-128028607D01*
X112492829Y-128010883D01*
X112478579Y-127991670D01*
X112466282Y-127971153D01*
X112456054Y-127949529D01*
X112447996Y-127927007D01*
X112442184Y-127903803D01*
X112438674Y-127880142D01*
X112437500Y-127856250D01*
X112437500Y-126943750D01*
X112438674Y-126919858D01*
X112442184Y-126896197D01*
X112447996Y-126872993D01*
X112456054Y-126850471D01*
X112466282Y-126828847D01*
X112478579Y-126808330D01*
X112492829Y-126789117D01*
X112508893Y-126771393D01*
X112526617Y-126755329D01*
X112545830Y-126741079D01*
X112566347Y-126728782D01*
X112587971Y-126718554D01*
X112610493Y-126710496D01*
X112633697Y-126704684D01*
X112657358Y-126701174D01*
X112681250Y-126700000D01*
X113168750Y-126700000D01*
X113192642Y-126701174D01*
G37*
%TD*%
%TO.C,R24*%
G36*
X160505142Y-129501174D02*
G01*
X160528803Y-129504684D01*
X160552007Y-129510496D01*
X160574529Y-129518554D01*
X160596153Y-129528782D01*
X160616670Y-129541079D01*
X160635883Y-129555329D01*
X160653607Y-129571393D01*
X160669671Y-129589117D01*
X160683921Y-129608330D01*
X160696218Y-129628847D01*
X160706446Y-129650471D01*
X160714504Y-129672993D01*
X160720316Y-129696197D01*
X160723826Y-129719858D01*
X160725000Y-129743750D01*
X160725000Y-130656250D01*
X160723826Y-130680142D01*
X160720316Y-130703803D01*
X160714504Y-130727007D01*
X160706446Y-130749529D01*
X160696218Y-130771153D01*
X160683921Y-130791670D01*
X160669671Y-130810883D01*
X160653607Y-130828607D01*
X160635883Y-130844671D01*
X160616670Y-130858921D01*
X160596153Y-130871218D01*
X160574529Y-130881446D01*
X160552007Y-130889504D01*
X160528803Y-130895316D01*
X160505142Y-130898826D01*
X160481250Y-130900000D01*
X159993750Y-130900000D01*
X159969858Y-130898826D01*
X159946197Y-130895316D01*
X159922993Y-130889504D01*
X159900471Y-130881446D01*
X159878847Y-130871218D01*
X159858330Y-130858921D01*
X159839117Y-130844671D01*
X159821393Y-130828607D01*
X159805329Y-130810883D01*
X159791079Y-130791670D01*
X159778782Y-130771153D01*
X159768554Y-130749529D01*
X159760496Y-130727007D01*
X159754684Y-130703803D01*
X159751174Y-130680142D01*
X159750000Y-130656250D01*
X159750000Y-129743750D01*
X159751174Y-129719858D01*
X159754684Y-129696197D01*
X159760496Y-129672993D01*
X159768554Y-129650471D01*
X159778782Y-129628847D01*
X159791079Y-129608330D01*
X159805329Y-129589117D01*
X159821393Y-129571393D01*
X159839117Y-129555329D01*
X159858330Y-129541079D01*
X159878847Y-129528782D01*
X159900471Y-129518554D01*
X159922993Y-129510496D01*
X159946197Y-129504684D01*
X159969858Y-129501174D01*
X159993750Y-129500000D01*
X160481250Y-129500000D01*
X160505142Y-129501174D01*
G37*
G36*
X158630142Y-129501174D02*
G01*
X158653803Y-129504684D01*
X158677007Y-129510496D01*
X158699529Y-129518554D01*
X158721153Y-129528782D01*
X158741670Y-129541079D01*
X158760883Y-129555329D01*
X158778607Y-129571393D01*
X158794671Y-129589117D01*
X158808921Y-129608330D01*
X158821218Y-129628847D01*
X158831446Y-129650471D01*
X158839504Y-129672993D01*
X158845316Y-129696197D01*
X158848826Y-129719858D01*
X158850000Y-129743750D01*
X158850000Y-130656250D01*
X158848826Y-130680142D01*
X158845316Y-130703803D01*
X158839504Y-130727007D01*
X158831446Y-130749529D01*
X158821218Y-130771153D01*
X158808921Y-130791670D01*
X158794671Y-130810883D01*
X158778607Y-130828607D01*
X158760883Y-130844671D01*
X158741670Y-130858921D01*
X158721153Y-130871218D01*
X158699529Y-130881446D01*
X158677007Y-130889504D01*
X158653803Y-130895316D01*
X158630142Y-130898826D01*
X158606250Y-130900000D01*
X158118750Y-130900000D01*
X158094858Y-130898826D01*
X158071197Y-130895316D01*
X158047993Y-130889504D01*
X158025471Y-130881446D01*
X158003847Y-130871218D01*
X157983330Y-130858921D01*
X157964117Y-130844671D01*
X157946393Y-130828607D01*
X157930329Y-130810883D01*
X157916079Y-130791670D01*
X157903782Y-130771153D01*
X157893554Y-130749529D01*
X157885496Y-130727007D01*
X157879684Y-130703803D01*
X157876174Y-130680142D01*
X157875000Y-130656250D01*
X157875000Y-129743750D01*
X157876174Y-129719858D01*
X157879684Y-129696197D01*
X157885496Y-129672993D01*
X157893554Y-129650471D01*
X157903782Y-129628847D01*
X157916079Y-129608330D01*
X157930329Y-129589117D01*
X157946393Y-129571393D01*
X157964117Y-129555329D01*
X157983330Y-129541079D01*
X158003847Y-129528782D01*
X158025471Y-129518554D01*
X158047993Y-129510496D01*
X158071197Y-129504684D01*
X158094858Y-129501174D01*
X158118750Y-129500000D01*
X158606250Y-129500000D01*
X158630142Y-129501174D01*
G37*
%TD*%
%TO.C,R16*%
G36*
X160505142Y-114501174D02*
G01*
X160528803Y-114504684D01*
X160552007Y-114510496D01*
X160574529Y-114518554D01*
X160596153Y-114528782D01*
X160616670Y-114541079D01*
X160635883Y-114555329D01*
X160653607Y-114571393D01*
X160669671Y-114589117D01*
X160683921Y-114608330D01*
X160696218Y-114628847D01*
X160706446Y-114650471D01*
X160714504Y-114672993D01*
X160720316Y-114696197D01*
X160723826Y-114719858D01*
X160725000Y-114743750D01*
X160725000Y-115656250D01*
X160723826Y-115680142D01*
X160720316Y-115703803D01*
X160714504Y-115727007D01*
X160706446Y-115749529D01*
X160696218Y-115771153D01*
X160683921Y-115791670D01*
X160669671Y-115810883D01*
X160653607Y-115828607D01*
X160635883Y-115844671D01*
X160616670Y-115858921D01*
X160596153Y-115871218D01*
X160574529Y-115881446D01*
X160552007Y-115889504D01*
X160528803Y-115895316D01*
X160505142Y-115898826D01*
X160481250Y-115900000D01*
X159993750Y-115900000D01*
X159969858Y-115898826D01*
X159946197Y-115895316D01*
X159922993Y-115889504D01*
X159900471Y-115881446D01*
X159878847Y-115871218D01*
X159858330Y-115858921D01*
X159839117Y-115844671D01*
X159821393Y-115828607D01*
X159805329Y-115810883D01*
X159791079Y-115791670D01*
X159778782Y-115771153D01*
X159768554Y-115749529D01*
X159760496Y-115727007D01*
X159754684Y-115703803D01*
X159751174Y-115680142D01*
X159750000Y-115656250D01*
X159750000Y-114743750D01*
X159751174Y-114719858D01*
X159754684Y-114696197D01*
X159760496Y-114672993D01*
X159768554Y-114650471D01*
X159778782Y-114628847D01*
X159791079Y-114608330D01*
X159805329Y-114589117D01*
X159821393Y-114571393D01*
X159839117Y-114555329D01*
X159858330Y-114541079D01*
X159878847Y-114528782D01*
X159900471Y-114518554D01*
X159922993Y-114510496D01*
X159946197Y-114504684D01*
X159969858Y-114501174D01*
X159993750Y-114500000D01*
X160481250Y-114500000D01*
X160505142Y-114501174D01*
G37*
G36*
X158630142Y-114501174D02*
G01*
X158653803Y-114504684D01*
X158677007Y-114510496D01*
X158699529Y-114518554D01*
X158721153Y-114528782D01*
X158741670Y-114541079D01*
X158760883Y-114555329D01*
X158778607Y-114571393D01*
X158794671Y-114589117D01*
X158808921Y-114608330D01*
X158821218Y-114628847D01*
X158831446Y-114650471D01*
X158839504Y-114672993D01*
X158845316Y-114696197D01*
X158848826Y-114719858D01*
X158850000Y-114743750D01*
X158850000Y-115656250D01*
X158848826Y-115680142D01*
X158845316Y-115703803D01*
X158839504Y-115727007D01*
X158831446Y-115749529D01*
X158821218Y-115771153D01*
X158808921Y-115791670D01*
X158794671Y-115810883D01*
X158778607Y-115828607D01*
X158760883Y-115844671D01*
X158741670Y-115858921D01*
X158721153Y-115871218D01*
X158699529Y-115881446D01*
X158677007Y-115889504D01*
X158653803Y-115895316D01*
X158630142Y-115898826D01*
X158606250Y-115900000D01*
X158118750Y-115900000D01*
X158094858Y-115898826D01*
X158071197Y-115895316D01*
X158047993Y-115889504D01*
X158025471Y-115881446D01*
X158003847Y-115871218D01*
X157983330Y-115858921D01*
X157964117Y-115844671D01*
X157946393Y-115828607D01*
X157930329Y-115810883D01*
X157916079Y-115791670D01*
X157903782Y-115771153D01*
X157893554Y-115749529D01*
X157885496Y-115727007D01*
X157879684Y-115703803D01*
X157876174Y-115680142D01*
X157875000Y-115656250D01*
X157875000Y-114743750D01*
X157876174Y-114719858D01*
X157879684Y-114696197D01*
X157885496Y-114672993D01*
X157893554Y-114650471D01*
X157903782Y-114628847D01*
X157916079Y-114608330D01*
X157930329Y-114589117D01*
X157946393Y-114571393D01*
X157964117Y-114555329D01*
X157983330Y-114541079D01*
X158003847Y-114528782D01*
X158025471Y-114518554D01*
X158047993Y-114510496D01*
X158071197Y-114504684D01*
X158094858Y-114501174D01*
X158118750Y-114500000D01*
X158606250Y-114500000D01*
X158630142Y-114501174D01*
G37*
%TD*%
%TO.C,R17*%
G36*
X160505142Y-99501174D02*
G01*
X160528803Y-99504684D01*
X160552007Y-99510496D01*
X160574529Y-99518554D01*
X160596153Y-99528782D01*
X160616670Y-99541079D01*
X160635883Y-99555329D01*
X160653607Y-99571393D01*
X160669671Y-99589117D01*
X160683921Y-99608330D01*
X160696218Y-99628847D01*
X160706446Y-99650471D01*
X160714504Y-99672993D01*
X160720316Y-99696197D01*
X160723826Y-99719858D01*
X160725000Y-99743750D01*
X160725000Y-100656250D01*
X160723826Y-100680142D01*
X160720316Y-100703803D01*
X160714504Y-100727007D01*
X160706446Y-100749529D01*
X160696218Y-100771153D01*
X160683921Y-100791670D01*
X160669671Y-100810883D01*
X160653607Y-100828607D01*
X160635883Y-100844671D01*
X160616670Y-100858921D01*
X160596153Y-100871218D01*
X160574529Y-100881446D01*
X160552007Y-100889504D01*
X160528803Y-100895316D01*
X160505142Y-100898826D01*
X160481250Y-100900000D01*
X159993750Y-100900000D01*
X159969858Y-100898826D01*
X159946197Y-100895316D01*
X159922993Y-100889504D01*
X159900471Y-100881446D01*
X159878847Y-100871218D01*
X159858330Y-100858921D01*
X159839117Y-100844671D01*
X159821393Y-100828607D01*
X159805329Y-100810883D01*
X159791079Y-100791670D01*
X159778782Y-100771153D01*
X159768554Y-100749529D01*
X159760496Y-100727007D01*
X159754684Y-100703803D01*
X159751174Y-100680142D01*
X159750000Y-100656250D01*
X159750000Y-99743750D01*
X159751174Y-99719858D01*
X159754684Y-99696197D01*
X159760496Y-99672993D01*
X159768554Y-99650471D01*
X159778782Y-99628847D01*
X159791079Y-99608330D01*
X159805329Y-99589117D01*
X159821393Y-99571393D01*
X159839117Y-99555329D01*
X159858330Y-99541079D01*
X159878847Y-99528782D01*
X159900471Y-99518554D01*
X159922993Y-99510496D01*
X159946197Y-99504684D01*
X159969858Y-99501174D01*
X159993750Y-99500000D01*
X160481250Y-99500000D01*
X160505142Y-99501174D01*
G37*
G36*
X158630142Y-99501174D02*
G01*
X158653803Y-99504684D01*
X158677007Y-99510496D01*
X158699529Y-99518554D01*
X158721153Y-99528782D01*
X158741670Y-99541079D01*
X158760883Y-99555329D01*
X158778607Y-99571393D01*
X158794671Y-99589117D01*
X158808921Y-99608330D01*
X158821218Y-99628847D01*
X158831446Y-99650471D01*
X158839504Y-99672993D01*
X158845316Y-99696197D01*
X158848826Y-99719858D01*
X158850000Y-99743750D01*
X158850000Y-100656250D01*
X158848826Y-100680142D01*
X158845316Y-100703803D01*
X158839504Y-100727007D01*
X158831446Y-100749529D01*
X158821218Y-100771153D01*
X158808921Y-100791670D01*
X158794671Y-100810883D01*
X158778607Y-100828607D01*
X158760883Y-100844671D01*
X158741670Y-100858921D01*
X158721153Y-100871218D01*
X158699529Y-100881446D01*
X158677007Y-100889504D01*
X158653803Y-100895316D01*
X158630142Y-100898826D01*
X158606250Y-100900000D01*
X158118750Y-100900000D01*
X158094858Y-100898826D01*
X158071197Y-100895316D01*
X158047993Y-100889504D01*
X158025471Y-100881446D01*
X158003847Y-100871218D01*
X157983330Y-100858921D01*
X157964117Y-100844671D01*
X157946393Y-100828607D01*
X157930329Y-100810883D01*
X157916079Y-100791670D01*
X157903782Y-100771153D01*
X157893554Y-100749529D01*
X157885496Y-100727007D01*
X157879684Y-100703803D01*
X157876174Y-100680142D01*
X157875000Y-100656250D01*
X157875000Y-99743750D01*
X157876174Y-99719858D01*
X157879684Y-99696197D01*
X157885496Y-99672993D01*
X157893554Y-99650471D01*
X157903782Y-99628847D01*
X157916079Y-99608330D01*
X157930329Y-99589117D01*
X157946393Y-99571393D01*
X157964117Y-99555329D01*
X157983330Y-99541079D01*
X158003847Y-99528782D01*
X158025471Y-99518554D01*
X158047993Y-99510496D01*
X158071197Y-99504684D01*
X158094858Y-99501174D01*
X158118750Y-99500000D01*
X158606250Y-99500000D01*
X158630142Y-99501174D01*
G37*
%TD*%
%TO.C,R19*%
G36*
X160505142Y-69501174D02*
G01*
X160528803Y-69504684D01*
X160552007Y-69510496D01*
X160574529Y-69518554D01*
X160596153Y-69528782D01*
X160616670Y-69541079D01*
X160635883Y-69555329D01*
X160653607Y-69571393D01*
X160669671Y-69589117D01*
X160683921Y-69608330D01*
X160696218Y-69628847D01*
X160706446Y-69650471D01*
X160714504Y-69672993D01*
X160720316Y-69696197D01*
X160723826Y-69719858D01*
X160725000Y-69743750D01*
X160725000Y-70656250D01*
X160723826Y-70680142D01*
X160720316Y-70703803D01*
X160714504Y-70727007D01*
X160706446Y-70749529D01*
X160696218Y-70771153D01*
X160683921Y-70791670D01*
X160669671Y-70810883D01*
X160653607Y-70828607D01*
X160635883Y-70844671D01*
X160616670Y-70858921D01*
X160596153Y-70871218D01*
X160574529Y-70881446D01*
X160552007Y-70889504D01*
X160528803Y-70895316D01*
X160505142Y-70898826D01*
X160481250Y-70900000D01*
X159993750Y-70900000D01*
X159969858Y-70898826D01*
X159946197Y-70895316D01*
X159922993Y-70889504D01*
X159900471Y-70881446D01*
X159878847Y-70871218D01*
X159858330Y-70858921D01*
X159839117Y-70844671D01*
X159821393Y-70828607D01*
X159805329Y-70810883D01*
X159791079Y-70791670D01*
X159778782Y-70771153D01*
X159768554Y-70749529D01*
X159760496Y-70727007D01*
X159754684Y-70703803D01*
X159751174Y-70680142D01*
X159750000Y-70656250D01*
X159750000Y-69743750D01*
X159751174Y-69719858D01*
X159754684Y-69696197D01*
X159760496Y-69672993D01*
X159768554Y-69650471D01*
X159778782Y-69628847D01*
X159791079Y-69608330D01*
X159805329Y-69589117D01*
X159821393Y-69571393D01*
X159839117Y-69555329D01*
X159858330Y-69541079D01*
X159878847Y-69528782D01*
X159900471Y-69518554D01*
X159922993Y-69510496D01*
X159946197Y-69504684D01*
X159969858Y-69501174D01*
X159993750Y-69500000D01*
X160481250Y-69500000D01*
X160505142Y-69501174D01*
G37*
G36*
X158630142Y-69501174D02*
G01*
X158653803Y-69504684D01*
X158677007Y-69510496D01*
X158699529Y-69518554D01*
X158721153Y-69528782D01*
X158741670Y-69541079D01*
X158760883Y-69555329D01*
X158778607Y-69571393D01*
X158794671Y-69589117D01*
X158808921Y-69608330D01*
X158821218Y-69628847D01*
X158831446Y-69650471D01*
X158839504Y-69672993D01*
X158845316Y-69696197D01*
X158848826Y-69719858D01*
X158850000Y-69743750D01*
X158850000Y-70656250D01*
X158848826Y-70680142D01*
X158845316Y-70703803D01*
X158839504Y-70727007D01*
X158831446Y-70749529D01*
X158821218Y-70771153D01*
X158808921Y-70791670D01*
X158794671Y-70810883D01*
X158778607Y-70828607D01*
X158760883Y-70844671D01*
X158741670Y-70858921D01*
X158721153Y-70871218D01*
X158699529Y-70881446D01*
X158677007Y-70889504D01*
X158653803Y-70895316D01*
X158630142Y-70898826D01*
X158606250Y-70900000D01*
X158118750Y-70900000D01*
X158094858Y-70898826D01*
X158071197Y-70895316D01*
X158047993Y-70889504D01*
X158025471Y-70881446D01*
X158003847Y-70871218D01*
X157983330Y-70858921D01*
X157964117Y-70844671D01*
X157946393Y-70828607D01*
X157930329Y-70810883D01*
X157916079Y-70791670D01*
X157903782Y-70771153D01*
X157893554Y-70749529D01*
X157885496Y-70727007D01*
X157879684Y-70703803D01*
X157876174Y-70680142D01*
X157875000Y-70656250D01*
X157875000Y-69743750D01*
X157876174Y-69719858D01*
X157879684Y-69696197D01*
X157885496Y-69672993D01*
X157893554Y-69650471D01*
X157903782Y-69628847D01*
X157916079Y-69608330D01*
X157930329Y-69589117D01*
X157946393Y-69571393D01*
X157964117Y-69555329D01*
X157983330Y-69541079D01*
X158003847Y-69528782D01*
X158025471Y-69518554D01*
X158047993Y-69510496D01*
X158071197Y-69504684D01*
X158094858Y-69501174D01*
X158118750Y-69500000D01*
X158606250Y-69500000D01*
X158630142Y-69501174D01*
G37*
%TD*%
%TO.C,R18*%
G36*
X160505142Y-84501174D02*
G01*
X160528803Y-84504684D01*
X160552007Y-84510496D01*
X160574529Y-84518554D01*
X160596153Y-84528782D01*
X160616670Y-84541079D01*
X160635883Y-84555329D01*
X160653607Y-84571393D01*
X160669671Y-84589117D01*
X160683921Y-84608330D01*
X160696218Y-84628847D01*
X160706446Y-84650471D01*
X160714504Y-84672993D01*
X160720316Y-84696197D01*
X160723826Y-84719858D01*
X160725000Y-84743750D01*
X160725000Y-85656250D01*
X160723826Y-85680142D01*
X160720316Y-85703803D01*
X160714504Y-85727007D01*
X160706446Y-85749529D01*
X160696218Y-85771153D01*
X160683921Y-85791670D01*
X160669671Y-85810883D01*
X160653607Y-85828607D01*
X160635883Y-85844671D01*
X160616670Y-85858921D01*
X160596153Y-85871218D01*
X160574529Y-85881446D01*
X160552007Y-85889504D01*
X160528803Y-85895316D01*
X160505142Y-85898826D01*
X160481250Y-85900000D01*
X159993750Y-85900000D01*
X159969858Y-85898826D01*
X159946197Y-85895316D01*
X159922993Y-85889504D01*
X159900471Y-85881446D01*
X159878847Y-85871218D01*
X159858330Y-85858921D01*
X159839117Y-85844671D01*
X159821393Y-85828607D01*
X159805329Y-85810883D01*
X159791079Y-85791670D01*
X159778782Y-85771153D01*
X159768554Y-85749529D01*
X159760496Y-85727007D01*
X159754684Y-85703803D01*
X159751174Y-85680142D01*
X159750000Y-85656250D01*
X159750000Y-84743750D01*
X159751174Y-84719858D01*
X159754684Y-84696197D01*
X159760496Y-84672993D01*
X159768554Y-84650471D01*
X159778782Y-84628847D01*
X159791079Y-84608330D01*
X159805329Y-84589117D01*
X159821393Y-84571393D01*
X159839117Y-84555329D01*
X159858330Y-84541079D01*
X159878847Y-84528782D01*
X159900471Y-84518554D01*
X159922993Y-84510496D01*
X159946197Y-84504684D01*
X159969858Y-84501174D01*
X159993750Y-84500000D01*
X160481250Y-84500000D01*
X160505142Y-84501174D01*
G37*
G36*
X158630142Y-84501174D02*
G01*
X158653803Y-84504684D01*
X158677007Y-84510496D01*
X158699529Y-84518554D01*
X158721153Y-84528782D01*
X158741670Y-84541079D01*
X158760883Y-84555329D01*
X158778607Y-84571393D01*
X158794671Y-84589117D01*
X158808921Y-84608330D01*
X158821218Y-84628847D01*
X158831446Y-84650471D01*
X158839504Y-84672993D01*
X158845316Y-84696197D01*
X158848826Y-84719858D01*
X158850000Y-84743750D01*
X158850000Y-85656250D01*
X158848826Y-85680142D01*
X158845316Y-85703803D01*
X158839504Y-85727007D01*
X158831446Y-85749529D01*
X158821218Y-85771153D01*
X158808921Y-85791670D01*
X158794671Y-85810883D01*
X158778607Y-85828607D01*
X158760883Y-85844671D01*
X158741670Y-85858921D01*
X158721153Y-85871218D01*
X158699529Y-85881446D01*
X158677007Y-85889504D01*
X158653803Y-85895316D01*
X158630142Y-85898826D01*
X158606250Y-85900000D01*
X158118750Y-85900000D01*
X158094858Y-85898826D01*
X158071197Y-85895316D01*
X158047993Y-85889504D01*
X158025471Y-85881446D01*
X158003847Y-85871218D01*
X157983330Y-85858921D01*
X157964117Y-85844671D01*
X157946393Y-85828607D01*
X157930329Y-85810883D01*
X157916079Y-85791670D01*
X157903782Y-85771153D01*
X157893554Y-85749529D01*
X157885496Y-85727007D01*
X157879684Y-85703803D01*
X157876174Y-85680142D01*
X157875000Y-85656250D01*
X157875000Y-84743750D01*
X157876174Y-84719858D01*
X157879684Y-84696197D01*
X157885496Y-84672993D01*
X157893554Y-84650471D01*
X157903782Y-84628847D01*
X157916079Y-84608330D01*
X157930329Y-84589117D01*
X157946393Y-84571393D01*
X157964117Y-84555329D01*
X157983330Y-84541079D01*
X158003847Y-84528782D01*
X158025471Y-84518554D01*
X158047993Y-84510496D01*
X158071197Y-84504684D01*
X158094858Y-84501174D01*
X158118750Y-84500000D01*
X158606250Y-84500000D01*
X158630142Y-84501174D01*
G37*
%TD*%
%TO.C,C5*%
G36*
X160680142Y-72776174D02*
G01*
X160703803Y-72779684D01*
X160727007Y-72785496D01*
X160749529Y-72793554D01*
X160771153Y-72803782D01*
X160791670Y-72816079D01*
X160810883Y-72830329D01*
X160828607Y-72846393D01*
X160844671Y-72864117D01*
X160858921Y-72883330D01*
X160871218Y-72903847D01*
X160881446Y-72925471D01*
X160889504Y-72947993D01*
X160895316Y-72971197D01*
X160898826Y-72994858D01*
X160900000Y-73018750D01*
X160900000Y-73506250D01*
X160898826Y-73530142D01*
X160895316Y-73553803D01*
X160889504Y-73577007D01*
X160881446Y-73599529D01*
X160871218Y-73621153D01*
X160858921Y-73641670D01*
X160844671Y-73660883D01*
X160828607Y-73678607D01*
X160810883Y-73694671D01*
X160791670Y-73708921D01*
X160771153Y-73721218D01*
X160749529Y-73731446D01*
X160727007Y-73739504D01*
X160703803Y-73745316D01*
X160680142Y-73748826D01*
X160656250Y-73750000D01*
X159743750Y-73750000D01*
X159719858Y-73748826D01*
X159696197Y-73745316D01*
X159672993Y-73739504D01*
X159650471Y-73731446D01*
X159628847Y-73721218D01*
X159608330Y-73708921D01*
X159589117Y-73694671D01*
X159571393Y-73678607D01*
X159555329Y-73660883D01*
X159541079Y-73641670D01*
X159528782Y-73621153D01*
X159518554Y-73599529D01*
X159510496Y-73577007D01*
X159504684Y-73553803D01*
X159501174Y-73530142D01*
X159500000Y-73506250D01*
X159500000Y-73018750D01*
X159501174Y-72994858D01*
X159504684Y-72971197D01*
X159510496Y-72947993D01*
X159518554Y-72925471D01*
X159528782Y-72903847D01*
X159541079Y-72883330D01*
X159555329Y-72864117D01*
X159571393Y-72846393D01*
X159589117Y-72830329D01*
X159608330Y-72816079D01*
X159628847Y-72803782D01*
X159650471Y-72793554D01*
X159672993Y-72785496D01*
X159696197Y-72779684D01*
X159719858Y-72776174D01*
X159743750Y-72775000D01*
X160656250Y-72775000D01*
X160680142Y-72776174D01*
G37*
G36*
X160680142Y-74651174D02*
G01*
X160703803Y-74654684D01*
X160727007Y-74660496D01*
X160749529Y-74668554D01*
X160771153Y-74678782D01*
X160791670Y-74691079D01*
X160810883Y-74705329D01*
X160828607Y-74721393D01*
X160844671Y-74739117D01*
X160858921Y-74758330D01*
X160871218Y-74778847D01*
X160881446Y-74800471D01*
X160889504Y-74822993D01*
X160895316Y-74846197D01*
X160898826Y-74869858D01*
X160900000Y-74893750D01*
X160900000Y-75381250D01*
X160898826Y-75405142D01*
X160895316Y-75428803D01*
X160889504Y-75452007D01*
X160881446Y-75474529D01*
X160871218Y-75496153D01*
X160858921Y-75516670D01*
X160844671Y-75535883D01*
X160828607Y-75553607D01*
X160810883Y-75569671D01*
X160791670Y-75583921D01*
X160771153Y-75596218D01*
X160749529Y-75606446D01*
X160727007Y-75614504D01*
X160703803Y-75620316D01*
X160680142Y-75623826D01*
X160656250Y-75625000D01*
X159743750Y-75625000D01*
X159719858Y-75623826D01*
X159696197Y-75620316D01*
X159672993Y-75614504D01*
X159650471Y-75606446D01*
X159628847Y-75596218D01*
X159608330Y-75583921D01*
X159589117Y-75569671D01*
X159571393Y-75553607D01*
X159555329Y-75535883D01*
X159541079Y-75516670D01*
X159528782Y-75496153D01*
X159518554Y-75474529D01*
X159510496Y-75452007D01*
X159504684Y-75428803D01*
X159501174Y-75405142D01*
X159500000Y-75381250D01*
X159500000Y-74893750D01*
X159501174Y-74869858D01*
X159504684Y-74846197D01*
X159510496Y-74822993D01*
X159518554Y-74800471D01*
X159528782Y-74778847D01*
X159541079Y-74758330D01*
X159555329Y-74739117D01*
X159571393Y-74721393D01*
X159589117Y-74705329D01*
X159608330Y-74691079D01*
X159628847Y-74678782D01*
X159650471Y-74668554D01*
X159672993Y-74660496D01*
X159696197Y-74654684D01*
X159719858Y-74651174D01*
X159743750Y-74650000D01*
X160656250Y-74650000D01*
X160680142Y-74651174D01*
G37*
%TD*%
%TO.C,C4*%
G36*
X160680142Y-87776174D02*
G01*
X160703803Y-87779684D01*
X160727007Y-87785496D01*
X160749529Y-87793554D01*
X160771153Y-87803782D01*
X160791670Y-87816079D01*
X160810883Y-87830329D01*
X160828607Y-87846393D01*
X160844671Y-87864117D01*
X160858921Y-87883330D01*
X160871218Y-87903847D01*
X160881446Y-87925471D01*
X160889504Y-87947993D01*
X160895316Y-87971197D01*
X160898826Y-87994858D01*
X160900000Y-88018750D01*
X160900000Y-88506250D01*
X160898826Y-88530142D01*
X160895316Y-88553803D01*
X160889504Y-88577007D01*
X160881446Y-88599529D01*
X160871218Y-88621153D01*
X160858921Y-88641670D01*
X160844671Y-88660883D01*
X160828607Y-88678607D01*
X160810883Y-88694671D01*
X160791670Y-88708921D01*
X160771153Y-88721218D01*
X160749529Y-88731446D01*
X160727007Y-88739504D01*
X160703803Y-88745316D01*
X160680142Y-88748826D01*
X160656250Y-88750000D01*
X159743750Y-88750000D01*
X159719858Y-88748826D01*
X159696197Y-88745316D01*
X159672993Y-88739504D01*
X159650471Y-88731446D01*
X159628847Y-88721218D01*
X159608330Y-88708921D01*
X159589117Y-88694671D01*
X159571393Y-88678607D01*
X159555329Y-88660883D01*
X159541079Y-88641670D01*
X159528782Y-88621153D01*
X159518554Y-88599529D01*
X159510496Y-88577007D01*
X159504684Y-88553803D01*
X159501174Y-88530142D01*
X159500000Y-88506250D01*
X159500000Y-88018750D01*
X159501174Y-87994858D01*
X159504684Y-87971197D01*
X159510496Y-87947993D01*
X159518554Y-87925471D01*
X159528782Y-87903847D01*
X159541079Y-87883330D01*
X159555329Y-87864117D01*
X159571393Y-87846393D01*
X159589117Y-87830329D01*
X159608330Y-87816079D01*
X159628847Y-87803782D01*
X159650471Y-87793554D01*
X159672993Y-87785496D01*
X159696197Y-87779684D01*
X159719858Y-87776174D01*
X159743750Y-87775000D01*
X160656250Y-87775000D01*
X160680142Y-87776174D01*
G37*
G36*
X160680142Y-89651174D02*
G01*
X160703803Y-89654684D01*
X160727007Y-89660496D01*
X160749529Y-89668554D01*
X160771153Y-89678782D01*
X160791670Y-89691079D01*
X160810883Y-89705329D01*
X160828607Y-89721393D01*
X160844671Y-89739117D01*
X160858921Y-89758330D01*
X160871218Y-89778847D01*
X160881446Y-89800471D01*
X160889504Y-89822993D01*
X160895316Y-89846197D01*
X160898826Y-89869858D01*
X160900000Y-89893750D01*
X160900000Y-90381250D01*
X160898826Y-90405142D01*
X160895316Y-90428803D01*
X160889504Y-90452007D01*
X160881446Y-90474529D01*
X160871218Y-90496153D01*
X160858921Y-90516670D01*
X160844671Y-90535883D01*
X160828607Y-90553607D01*
X160810883Y-90569671D01*
X160791670Y-90583921D01*
X160771153Y-90596218D01*
X160749529Y-90606446D01*
X160727007Y-90614504D01*
X160703803Y-90620316D01*
X160680142Y-90623826D01*
X160656250Y-90625000D01*
X159743750Y-90625000D01*
X159719858Y-90623826D01*
X159696197Y-90620316D01*
X159672993Y-90614504D01*
X159650471Y-90606446D01*
X159628847Y-90596218D01*
X159608330Y-90583921D01*
X159589117Y-90569671D01*
X159571393Y-90553607D01*
X159555329Y-90535883D01*
X159541079Y-90516670D01*
X159528782Y-90496153D01*
X159518554Y-90474529D01*
X159510496Y-90452007D01*
X159504684Y-90428803D01*
X159501174Y-90405142D01*
X159500000Y-90381250D01*
X159500000Y-89893750D01*
X159501174Y-89869858D01*
X159504684Y-89846197D01*
X159510496Y-89822993D01*
X159518554Y-89800471D01*
X159528782Y-89778847D01*
X159541079Y-89758330D01*
X159555329Y-89739117D01*
X159571393Y-89721393D01*
X159589117Y-89705329D01*
X159608330Y-89691079D01*
X159628847Y-89678782D01*
X159650471Y-89668554D01*
X159672993Y-89660496D01*
X159696197Y-89654684D01*
X159719858Y-89651174D01*
X159743750Y-89650000D01*
X160656250Y-89650000D01*
X160680142Y-89651174D01*
G37*
%TD*%
%TO.C,R7*%
G36*
X158630142Y-111201174D02*
G01*
X158653803Y-111204684D01*
X158677007Y-111210496D01*
X158699529Y-111218554D01*
X158721153Y-111228782D01*
X158741670Y-111241079D01*
X158760883Y-111255329D01*
X158778607Y-111271393D01*
X158794671Y-111289117D01*
X158808921Y-111308330D01*
X158821218Y-111328847D01*
X158831446Y-111350471D01*
X158839504Y-111372993D01*
X158845316Y-111396197D01*
X158848826Y-111419858D01*
X158850000Y-111443750D01*
X158850000Y-112356250D01*
X158848826Y-112380142D01*
X158845316Y-112403803D01*
X158839504Y-112427007D01*
X158831446Y-112449529D01*
X158821218Y-112471153D01*
X158808921Y-112491670D01*
X158794671Y-112510883D01*
X158778607Y-112528607D01*
X158760883Y-112544671D01*
X158741670Y-112558921D01*
X158721153Y-112571218D01*
X158699529Y-112581446D01*
X158677007Y-112589504D01*
X158653803Y-112595316D01*
X158630142Y-112598826D01*
X158606250Y-112600000D01*
X158118750Y-112600000D01*
X158094858Y-112598826D01*
X158071197Y-112595316D01*
X158047993Y-112589504D01*
X158025471Y-112581446D01*
X158003847Y-112571218D01*
X157983330Y-112558921D01*
X157964117Y-112544671D01*
X157946393Y-112528607D01*
X157930329Y-112510883D01*
X157916079Y-112491670D01*
X157903782Y-112471153D01*
X157893554Y-112449529D01*
X157885496Y-112427007D01*
X157879684Y-112403803D01*
X157876174Y-112380142D01*
X157875000Y-112356250D01*
X157875000Y-111443750D01*
X157876174Y-111419858D01*
X157879684Y-111396197D01*
X157885496Y-111372993D01*
X157893554Y-111350471D01*
X157903782Y-111328847D01*
X157916079Y-111308330D01*
X157930329Y-111289117D01*
X157946393Y-111271393D01*
X157964117Y-111255329D01*
X157983330Y-111241079D01*
X158003847Y-111228782D01*
X158025471Y-111218554D01*
X158047993Y-111210496D01*
X158071197Y-111204684D01*
X158094858Y-111201174D01*
X158118750Y-111200000D01*
X158606250Y-111200000D01*
X158630142Y-111201174D01*
G37*
G36*
X160505142Y-111201174D02*
G01*
X160528803Y-111204684D01*
X160552007Y-111210496D01*
X160574529Y-111218554D01*
X160596153Y-111228782D01*
X160616670Y-111241079D01*
X160635883Y-111255329D01*
X160653607Y-111271393D01*
X160669671Y-111289117D01*
X160683921Y-111308330D01*
X160696218Y-111328847D01*
X160706446Y-111350471D01*
X160714504Y-111372993D01*
X160720316Y-111396197D01*
X160723826Y-111419858D01*
X160725000Y-111443750D01*
X160725000Y-112356250D01*
X160723826Y-112380142D01*
X160720316Y-112403803D01*
X160714504Y-112427007D01*
X160706446Y-112449529D01*
X160696218Y-112471153D01*
X160683921Y-112491670D01*
X160669671Y-112510883D01*
X160653607Y-112528607D01*
X160635883Y-112544671D01*
X160616670Y-112558921D01*
X160596153Y-112571218D01*
X160574529Y-112581446D01*
X160552007Y-112589504D01*
X160528803Y-112595316D01*
X160505142Y-112598826D01*
X160481250Y-112600000D01*
X159993750Y-112600000D01*
X159969858Y-112598826D01*
X159946197Y-112595316D01*
X159922993Y-112589504D01*
X159900471Y-112581446D01*
X159878847Y-112571218D01*
X159858330Y-112558921D01*
X159839117Y-112544671D01*
X159821393Y-112528607D01*
X159805329Y-112510883D01*
X159791079Y-112491670D01*
X159778782Y-112471153D01*
X159768554Y-112449529D01*
X159760496Y-112427007D01*
X159754684Y-112403803D01*
X159751174Y-112380142D01*
X159750000Y-112356250D01*
X159750000Y-111443750D01*
X159751174Y-111419858D01*
X159754684Y-111396197D01*
X159760496Y-111372993D01*
X159768554Y-111350471D01*
X159778782Y-111328847D01*
X159791079Y-111308330D01*
X159805329Y-111289117D01*
X159821393Y-111271393D01*
X159839117Y-111255329D01*
X159858330Y-111241079D01*
X159878847Y-111228782D01*
X159900471Y-111218554D01*
X159922993Y-111210496D01*
X159946197Y-111204684D01*
X159969858Y-111201174D01*
X159993750Y-111200000D01*
X160481250Y-111200000D01*
X160505142Y-111201174D01*
G37*
%TD*%
%TO.C,R10*%
G36*
X158630142Y-66201174D02*
G01*
X158653803Y-66204684D01*
X158677007Y-66210496D01*
X158699529Y-66218554D01*
X158721153Y-66228782D01*
X158741670Y-66241079D01*
X158760883Y-66255329D01*
X158778607Y-66271393D01*
X158794671Y-66289117D01*
X158808921Y-66308330D01*
X158821218Y-66328847D01*
X158831446Y-66350471D01*
X158839504Y-66372993D01*
X158845316Y-66396197D01*
X158848826Y-66419858D01*
X158850000Y-66443750D01*
X158850000Y-67356250D01*
X158848826Y-67380142D01*
X158845316Y-67403803D01*
X158839504Y-67427007D01*
X158831446Y-67449529D01*
X158821218Y-67471153D01*
X158808921Y-67491670D01*
X158794671Y-67510883D01*
X158778607Y-67528607D01*
X158760883Y-67544671D01*
X158741670Y-67558921D01*
X158721153Y-67571218D01*
X158699529Y-67581446D01*
X158677007Y-67589504D01*
X158653803Y-67595316D01*
X158630142Y-67598826D01*
X158606250Y-67600000D01*
X158118750Y-67600000D01*
X158094858Y-67598826D01*
X158071197Y-67595316D01*
X158047993Y-67589504D01*
X158025471Y-67581446D01*
X158003847Y-67571218D01*
X157983330Y-67558921D01*
X157964117Y-67544671D01*
X157946393Y-67528607D01*
X157930329Y-67510883D01*
X157916079Y-67491670D01*
X157903782Y-67471153D01*
X157893554Y-67449529D01*
X157885496Y-67427007D01*
X157879684Y-67403803D01*
X157876174Y-67380142D01*
X157875000Y-67356250D01*
X157875000Y-66443750D01*
X157876174Y-66419858D01*
X157879684Y-66396197D01*
X157885496Y-66372993D01*
X157893554Y-66350471D01*
X157903782Y-66328847D01*
X157916079Y-66308330D01*
X157930329Y-66289117D01*
X157946393Y-66271393D01*
X157964117Y-66255329D01*
X157983330Y-66241079D01*
X158003847Y-66228782D01*
X158025471Y-66218554D01*
X158047993Y-66210496D01*
X158071197Y-66204684D01*
X158094858Y-66201174D01*
X158118750Y-66200000D01*
X158606250Y-66200000D01*
X158630142Y-66201174D01*
G37*
G36*
X160505142Y-66201174D02*
G01*
X160528803Y-66204684D01*
X160552007Y-66210496D01*
X160574529Y-66218554D01*
X160596153Y-66228782D01*
X160616670Y-66241079D01*
X160635883Y-66255329D01*
X160653607Y-66271393D01*
X160669671Y-66289117D01*
X160683921Y-66308330D01*
X160696218Y-66328847D01*
X160706446Y-66350471D01*
X160714504Y-66372993D01*
X160720316Y-66396197D01*
X160723826Y-66419858D01*
X160725000Y-66443750D01*
X160725000Y-67356250D01*
X160723826Y-67380142D01*
X160720316Y-67403803D01*
X160714504Y-67427007D01*
X160706446Y-67449529D01*
X160696218Y-67471153D01*
X160683921Y-67491670D01*
X160669671Y-67510883D01*
X160653607Y-67528607D01*
X160635883Y-67544671D01*
X160616670Y-67558921D01*
X160596153Y-67571218D01*
X160574529Y-67581446D01*
X160552007Y-67589504D01*
X160528803Y-67595316D01*
X160505142Y-67598826D01*
X160481250Y-67600000D01*
X159993750Y-67600000D01*
X159969858Y-67598826D01*
X159946197Y-67595316D01*
X159922993Y-67589504D01*
X159900471Y-67581446D01*
X159878847Y-67571218D01*
X159858330Y-67558921D01*
X159839117Y-67544671D01*
X159821393Y-67528607D01*
X159805329Y-67510883D01*
X159791079Y-67491670D01*
X159778782Y-67471153D01*
X159768554Y-67449529D01*
X159760496Y-67427007D01*
X159754684Y-67403803D01*
X159751174Y-67380142D01*
X159750000Y-67356250D01*
X159750000Y-66443750D01*
X159751174Y-66419858D01*
X159754684Y-66396197D01*
X159760496Y-66372993D01*
X159768554Y-66350471D01*
X159778782Y-66328847D01*
X159791079Y-66308330D01*
X159805329Y-66289117D01*
X159821393Y-66271393D01*
X159839117Y-66255329D01*
X159858330Y-66241079D01*
X159878847Y-66228782D01*
X159900471Y-66218554D01*
X159922993Y-66210496D01*
X159946197Y-66204684D01*
X159969858Y-66201174D01*
X159993750Y-66200000D01*
X160481250Y-66200000D01*
X160505142Y-66201174D01*
G37*
%TD*%
%TO.C,C3*%
G36*
X160680142Y-102776174D02*
G01*
X160703803Y-102779684D01*
X160727007Y-102785496D01*
X160749529Y-102793554D01*
X160771153Y-102803782D01*
X160791670Y-102816079D01*
X160810883Y-102830329D01*
X160828607Y-102846393D01*
X160844671Y-102864117D01*
X160858921Y-102883330D01*
X160871218Y-102903847D01*
X160881446Y-102925471D01*
X160889504Y-102947993D01*
X160895316Y-102971197D01*
X160898826Y-102994858D01*
X160900000Y-103018750D01*
X160900000Y-103506250D01*
X160898826Y-103530142D01*
X160895316Y-103553803D01*
X160889504Y-103577007D01*
X160881446Y-103599529D01*
X160871218Y-103621153D01*
X160858921Y-103641670D01*
X160844671Y-103660883D01*
X160828607Y-103678607D01*
X160810883Y-103694671D01*
X160791670Y-103708921D01*
X160771153Y-103721218D01*
X160749529Y-103731446D01*
X160727007Y-103739504D01*
X160703803Y-103745316D01*
X160680142Y-103748826D01*
X160656250Y-103750000D01*
X159743750Y-103750000D01*
X159719858Y-103748826D01*
X159696197Y-103745316D01*
X159672993Y-103739504D01*
X159650471Y-103731446D01*
X159628847Y-103721218D01*
X159608330Y-103708921D01*
X159589117Y-103694671D01*
X159571393Y-103678607D01*
X159555329Y-103660883D01*
X159541079Y-103641670D01*
X159528782Y-103621153D01*
X159518554Y-103599529D01*
X159510496Y-103577007D01*
X159504684Y-103553803D01*
X159501174Y-103530142D01*
X159500000Y-103506250D01*
X159500000Y-103018750D01*
X159501174Y-102994858D01*
X159504684Y-102971197D01*
X159510496Y-102947993D01*
X159518554Y-102925471D01*
X159528782Y-102903847D01*
X159541079Y-102883330D01*
X159555329Y-102864117D01*
X159571393Y-102846393D01*
X159589117Y-102830329D01*
X159608330Y-102816079D01*
X159628847Y-102803782D01*
X159650471Y-102793554D01*
X159672993Y-102785496D01*
X159696197Y-102779684D01*
X159719858Y-102776174D01*
X159743750Y-102775000D01*
X160656250Y-102775000D01*
X160680142Y-102776174D01*
G37*
G36*
X160680142Y-104651174D02*
G01*
X160703803Y-104654684D01*
X160727007Y-104660496D01*
X160749529Y-104668554D01*
X160771153Y-104678782D01*
X160791670Y-104691079D01*
X160810883Y-104705329D01*
X160828607Y-104721393D01*
X160844671Y-104739117D01*
X160858921Y-104758330D01*
X160871218Y-104778847D01*
X160881446Y-104800471D01*
X160889504Y-104822993D01*
X160895316Y-104846197D01*
X160898826Y-104869858D01*
X160900000Y-104893750D01*
X160900000Y-105381250D01*
X160898826Y-105405142D01*
X160895316Y-105428803D01*
X160889504Y-105452007D01*
X160881446Y-105474529D01*
X160871218Y-105496153D01*
X160858921Y-105516670D01*
X160844671Y-105535883D01*
X160828607Y-105553607D01*
X160810883Y-105569671D01*
X160791670Y-105583921D01*
X160771153Y-105596218D01*
X160749529Y-105606446D01*
X160727007Y-105614504D01*
X160703803Y-105620316D01*
X160680142Y-105623826D01*
X160656250Y-105625000D01*
X159743750Y-105625000D01*
X159719858Y-105623826D01*
X159696197Y-105620316D01*
X159672993Y-105614504D01*
X159650471Y-105606446D01*
X159628847Y-105596218D01*
X159608330Y-105583921D01*
X159589117Y-105569671D01*
X159571393Y-105553607D01*
X159555329Y-105535883D01*
X159541079Y-105516670D01*
X159528782Y-105496153D01*
X159518554Y-105474529D01*
X159510496Y-105452007D01*
X159504684Y-105428803D01*
X159501174Y-105405142D01*
X159500000Y-105381250D01*
X159500000Y-104893750D01*
X159501174Y-104869858D01*
X159504684Y-104846197D01*
X159510496Y-104822993D01*
X159518554Y-104800471D01*
X159528782Y-104778847D01*
X159541079Y-104758330D01*
X159555329Y-104739117D01*
X159571393Y-104721393D01*
X159589117Y-104705329D01*
X159608330Y-104691079D01*
X159628847Y-104678782D01*
X159650471Y-104668554D01*
X159672993Y-104660496D01*
X159696197Y-104654684D01*
X159719858Y-104651174D01*
X159743750Y-104650000D01*
X160656250Y-104650000D01*
X160680142Y-104651174D01*
G37*
%TD*%
%TO.C,R9*%
G36*
X158630142Y-81201174D02*
G01*
X158653803Y-81204684D01*
X158677007Y-81210496D01*
X158699529Y-81218554D01*
X158721153Y-81228782D01*
X158741670Y-81241079D01*
X158760883Y-81255329D01*
X158778607Y-81271393D01*
X158794671Y-81289117D01*
X158808921Y-81308330D01*
X158821218Y-81328847D01*
X158831446Y-81350471D01*
X158839504Y-81372993D01*
X158845316Y-81396197D01*
X158848826Y-81419858D01*
X158850000Y-81443750D01*
X158850000Y-82356250D01*
X158848826Y-82380142D01*
X158845316Y-82403803D01*
X158839504Y-82427007D01*
X158831446Y-82449529D01*
X158821218Y-82471153D01*
X158808921Y-82491670D01*
X158794671Y-82510883D01*
X158778607Y-82528607D01*
X158760883Y-82544671D01*
X158741670Y-82558921D01*
X158721153Y-82571218D01*
X158699529Y-82581446D01*
X158677007Y-82589504D01*
X158653803Y-82595316D01*
X158630142Y-82598826D01*
X158606250Y-82600000D01*
X158118750Y-82600000D01*
X158094858Y-82598826D01*
X158071197Y-82595316D01*
X158047993Y-82589504D01*
X158025471Y-82581446D01*
X158003847Y-82571218D01*
X157983330Y-82558921D01*
X157964117Y-82544671D01*
X157946393Y-82528607D01*
X157930329Y-82510883D01*
X157916079Y-82491670D01*
X157903782Y-82471153D01*
X157893554Y-82449529D01*
X157885496Y-82427007D01*
X157879684Y-82403803D01*
X157876174Y-82380142D01*
X157875000Y-82356250D01*
X157875000Y-81443750D01*
X157876174Y-81419858D01*
X157879684Y-81396197D01*
X157885496Y-81372993D01*
X157893554Y-81350471D01*
X157903782Y-81328847D01*
X157916079Y-81308330D01*
X157930329Y-81289117D01*
X157946393Y-81271393D01*
X157964117Y-81255329D01*
X157983330Y-81241079D01*
X158003847Y-81228782D01*
X158025471Y-81218554D01*
X158047993Y-81210496D01*
X158071197Y-81204684D01*
X158094858Y-81201174D01*
X158118750Y-81200000D01*
X158606250Y-81200000D01*
X158630142Y-81201174D01*
G37*
G36*
X160505142Y-81201174D02*
G01*
X160528803Y-81204684D01*
X160552007Y-81210496D01*
X160574529Y-81218554D01*
X160596153Y-81228782D01*
X160616670Y-81241079D01*
X160635883Y-81255329D01*
X160653607Y-81271393D01*
X160669671Y-81289117D01*
X160683921Y-81308330D01*
X160696218Y-81328847D01*
X160706446Y-81350471D01*
X160714504Y-81372993D01*
X160720316Y-81396197D01*
X160723826Y-81419858D01*
X160725000Y-81443750D01*
X160725000Y-82356250D01*
X160723826Y-82380142D01*
X160720316Y-82403803D01*
X160714504Y-82427007D01*
X160706446Y-82449529D01*
X160696218Y-82471153D01*
X160683921Y-82491670D01*
X160669671Y-82510883D01*
X160653607Y-82528607D01*
X160635883Y-82544671D01*
X160616670Y-82558921D01*
X160596153Y-82571218D01*
X160574529Y-82581446D01*
X160552007Y-82589504D01*
X160528803Y-82595316D01*
X160505142Y-82598826D01*
X160481250Y-82600000D01*
X159993750Y-82600000D01*
X159969858Y-82598826D01*
X159946197Y-82595316D01*
X159922993Y-82589504D01*
X159900471Y-82581446D01*
X159878847Y-82571218D01*
X159858330Y-82558921D01*
X159839117Y-82544671D01*
X159821393Y-82528607D01*
X159805329Y-82510883D01*
X159791079Y-82491670D01*
X159778782Y-82471153D01*
X159768554Y-82449529D01*
X159760496Y-82427007D01*
X159754684Y-82403803D01*
X159751174Y-82380142D01*
X159750000Y-82356250D01*
X159750000Y-81443750D01*
X159751174Y-81419858D01*
X159754684Y-81396197D01*
X159760496Y-81372993D01*
X159768554Y-81350471D01*
X159778782Y-81328847D01*
X159791079Y-81308330D01*
X159805329Y-81289117D01*
X159821393Y-81271393D01*
X159839117Y-81255329D01*
X159858330Y-81241079D01*
X159878847Y-81228782D01*
X159900471Y-81218554D01*
X159922993Y-81210496D01*
X159946197Y-81204684D01*
X159969858Y-81201174D01*
X159993750Y-81200000D01*
X160481250Y-81200000D01*
X160505142Y-81201174D01*
G37*
%TD*%
%TO.C,R8*%
G36*
X158630142Y-96201174D02*
G01*
X158653803Y-96204684D01*
X158677007Y-96210496D01*
X158699529Y-96218554D01*
X158721153Y-96228782D01*
X158741670Y-96241079D01*
X158760883Y-96255329D01*
X158778607Y-96271393D01*
X158794671Y-96289117D01*
X158808921Y-96308330D01*
X158821218Y-96328847D01*
X158831446Y-96350471D01*
X158839504Y-96372993D01*
X158845316Y-96396197D01*
X158848826Y-96419858D01*
X158850000Y-96443750D01*
X158850000Y-97356250D01*
X158848826Y-97380142D01*
X158845316Y-97403803D01*
X158839504Y-97427007D01*
X158831446Y-97449529D01*
X158821218Y-97471153D01*
X158808921Y-97491670D01*
X158794671Y-97510883D01*
X158778607Y-97528607D01*
X158760883Y-97544671D01*
X158741670Y-97558921D01*
X158721153Y-97571218D01*
X158699529Y-97581446D01*
X158677007Y-97589504D01*
X158653803Y-97595316D01*
X158630142Y-97598826D01*
X158606250Y-97600000D01*
X158118750Y-97600000D01*
X158094858Y-97598826D01*
X158071197Y-97595316D01*
X158047993Y-97589504D01*
X158025471Y-97581446D01*
X158003847Y-97571218D01*
X157983330Y-97558921D01*
X157964117Y-97544671D01*
X157946393Y-97528607D01*
X157930329Y-97510883D01*
X157916079Y-97491670D01*
X157903782Y-97471153D01*
X157893554Y-97449529D01*
X157885496Y-97427007D01*
X157879684Y-97403803D01*
X157876174Y-97380142D01*
X157875000Y-97356250D01*
X157875000Y-96443750D01*
X157876174Y-96419858D01*
X157879684Y-96396197D01*
X157885496Y-96372993D01*
X157893554Y-96350471D01*
X157903782Y-96328847D01*
X157916079Y-96308330D01*
X157930329Y-96289117D01*
X157946393Y-96271393D01*
X157964117Y-96255329D01*
X157983330Y-96241079D01*
X158003847Y-96228782D01*
X158025471Y-96218554D01*
X158047993Y-96210496D01*
X158071197Y-96204684D01*
X158094858Y-96201174D01*
X158118750Y-96200000D01*
X158606250Y-96200000D01*
X158630142Y-96201174D01*
G37*
G36*
X160505142Y-96201174D02*
G01*
X160528803Y-96204684D01*
X160552007Y-96210496D01*
X160574529Y-96218554D01*
X160596153Y-96228782D01*
X160616670Y-96241079D01*
X160635883Y-96255329D01*
X160653607Y-96271393D01*
X160669671Y-96289117D01*
X160683921Y-96308330D01*
X160696218Y-96328847D01*
X160706446Y-96350471D01*
X160714504Y-96372993D01*
X160720316Y-96396197D01*
X160723826Y-96419858D01*
X160725000Y-96443750D01*
X160725000Y-97356250D01*
X160723826Y-97380142D01*
X160720316Y-97403803D01*
X160714504Y-97427007D01*
X160706446Y-97449529D01*
X160696218Y-97471153D01*
X160683921Y-97491670D01*
X160669671Y-97510883D01*
X160653607Y-97528607D01*
X160635883Y-97544671D01*
X160616670Y-97558921D01*
X160596153Y-97571218D01*
X160574529Y-97581446D01*
X160552007Y-97589504D01*
X160528803Y-97595316D01*
X160505142Y-97598826D01*
X160481250Y-97600000D01*
X159993750Y-97600000D01*
X159969858Y-97598826D01*
X159946197Y-97595316D01*
X159922993Y-97589504D01*
X159900471Y-97581446D01*
X159878847Y-97571218D01*
X159858330Y-97558921D01*
X159839117Y-97544671D01*
X159821393Y-97528607D01*
X159805329Y-97510883D01*
X159791079Y-97491670D01*
X159778782Y-97471153D01*
X159768554Y-97449529D01*
X159760496Y-97427007D01*
X159754684Y-97403803D01*
X159751174Y-97380142D01*
X159750000Y-97356250D01*
X159750000Y-96443750D01*
X159751174Y-96419858D01*
X159754684Y-96396197D01*
X159760496Y-96372993D01*
X159768554Y-96350471D01*
X159778782Y-96328847D01*
X159791079Y-96308330D01*
X159805329Y-96289117D01*
X159821393Y-96271393D01*
X159839117Y-96255329D01*
X159858330Y-96241079D01*
X159878847Y-96228782D01*
X159900471Y-96218554D01*
X159922993Y-96210496D01*
X159946197Y-96204684D01*
X159969858Y-96201174D01*
X159993750Y-96200000D01*
X160481250Y-96200000D01*
X160505142Y-96201174D01*
G37*
%TD*%
%TO.C,C2*%
G36*
X160680142Y-117776174D02*
G01*
X160703803Y-117779684D01*
X160727007Y-117785496D01*
X160749529Y-117793554D01*
X160771153Y-117803782D01*
X160791670Y-117816079D01*
X160810883Y-117830329D01*
X160828607Y-117846393D01*
X160844671Y-117864117D01*
X160858921Y-117883330D01*
X160871218Y-117903847D01*
X160881446Y-117925471D01*
X160889504Y-117947993D01*
X160895316Y-117971197D01*
X160898826Y-117994858D01*
X160900000Y-118018750D01*
X160900000Y-118506250D01*
X160898826Y-118530142D01*
X160895316Y-118553803D01*
X160889504Y-118577007D01*
X160881446Y-118599529D01*
X160871218Y-118621153D01*
X160858921Y-118641670D01*
X160844671Y-118660883D01*
X160828607Y-118678607D01*
X160810883Y-118694671D01*
X160791670Y-118708921D01*
X160771153Y-118721218D01*
X160749529Y-118731446D01*
X160727007Y-118739504D01*
X160703803Y-118745316D01*
X160680142Y-118748826D01*
X160656250Y-118750000D01*
X159743750Y-118750000D01*
X159719858Y-118748826D01*
X159696197Y-118745316D01*
X159672993Y-118739504D01*
X159650471Y-118731446D01*
X159628847Y-118721218D01*
X159608330Y-118708921D01*
X159589117Y-118694671D01*
X159571393Y-118678607D01*
X159555329Y-118660883D01*
X159541079Y-118641670D01*
X159528782Y-118621153D01*
X159518554Y-118599529D01*
X159510496Y-118577007D01*
X159504684Y-118553803D01*
X159501174Y-118530142D01*
X159500000Y-118506250D01*
X159500000Y-118018750D01*
X159501174Y-117994858D01*
X159504684Y-117971197D01*
X159510496Y-117947993D01*
X159518554Y-117925471D01*
X159528782Y-117903847D01*
X159541079Y-117883330D01*
X159555329Y-117864117D01*
X159571393Y-117846393D01*
X159589117Y-117830329D01*
X159608330Y-117816079D01*
X159628847Y-117803782D01*
X159650471Y-117793554D01*
X159672993Y-117785496D01*
X159696197Y-117779684D01*
X159719858Y-117776174D01*
X159743750Y-117775000D01*
X160656250Y-117775000D01*
X160680142Y-117776174D01*
G37*
G36*
X160680142Y-119651174D02*
G01*
X160703803Y-119654684D01*
X160727007Y-119660496D01*
X160749529Y-119668554D01*
X160771153Y-119678782D01*
X160791670Y-119691079D01*
X160810883Y-119705329D01*
X160828607Y-119721393D01*
X160844671Y-119739117D01*
X160858921Y-119758330D01*
X160871218Y-119778847D01*
X160881446Y-119800471D01*
X160889504Y-119822993D01*
X160895316Y-119846197D01*
X160898826Y-119869858D01*
X160900000Y-119893750D01*
X160900000Y-120381250D01*
X160898826Y-120405142D01*
X160895316Y-120428803D01*
X160889504Y-120452007D01*
X160881446Y-120474529D01*
X160871218Y-120496153D01*
X160858921Y-120516670D01*
X160844671Y-120535883D01*
X160828607Y-120553607D01*
X160810883Y-120569671D01*
X160791670Y-120583921D01*
X160771153Y-120596218D01*
X160749529Y-120606446D01*
X160727007Y-120614504D01*
X160703803Y-120620316D01*
X160680142Y-120623826D01*
X160656250Y-120625000D01*
X159743750Y-120625000D01*
X159719858Y-120623826D01*
X159696197Y-120620316D01*
X159672993Y-120614504D01*
X159650471Y-120606446D01*
X159628847Y-120596218D01*
X159608330Y-120583921D01*
X159589117Y-120569671D01*
X159571393Y-120553607D01*
X159555329Y-120535883D01*
X159541079Y-120516670D01*
X159528782Y-120496153D01*
X159518554Y-120474529D01*
X159510496Y-120452007D01*
X159504684Y-120428803D01*
X159501174Y-120405142D01*
X159500000Y-120381250D01*
X159500000Y-119893750D01*
X159501174Y-119869858D01*
X159504684Y-119846197D01*
X159510496Y-119822993D01*
X159518554Y-119800471D01*
X159528782Y-119778847D01*
X159541079Y-119758330D01*
X159555329Y-119739117D01*
X159571393Y-119721393D01*
X159589117Y-119705329D01*
X159608330Y-119691079D01*
X159628847Y-119678782D01*
X159650471Y-119668554D01*
X159672993Y-119660496D01*
X159696197Y-119654684D01*
X159719858Y-119651174D01*
X159743750Y-119650000D01*
X160656250Y-119650000D01*
X160680142Y-119651174D01*
G37*
%TD*%
%TO.C,C10*%
G36*
X160680142Y-132776174D02*
G01*
X160703803Y-132779684D01*
X160727007Y-132785496D01*
X160749529Y-132793554D01*
X160771153Y-132803782D01*
X160791670Y-132816079D01*
X160810883Y-132830329D01*
X160828607Y-132846393D01*
X160844671Y-132864117D01*
X160858921Y-132883330D01*
X160871218Y-132903847D01*
X160881446Y-132925471D01*
X160889504Y-132947993D01*
X160895316Y-132971197D01*
X160898826Y-132994858D01*
X160900000Y-133018750D01*
X160900000Y-133506250D01*
X160898826Y-133530142D01*
X160895316Y-133553803D01*
X160889504Y-133577007D01*
X160881446Y-133599529D01*
X160871218Y-133621153D01*
X160858921Y-133641670D01*
X160844671Y-133660883D01*
X160828607Y-133678607D01*
X160810883Y-133694671D01*
X160791670Y-133708921D01*
X160771153Y-133721218D01*
X160749529Y-133731446D01*
X160727007Y-133739504D01*
X160703803Y-133745316D01*
X160680142Y-133748826D01*
X160656250Y-133750000D01*
X159743750Y-133750000D01*
X159719858Y-133748826D01*
X159696197Y-133745316D01*
X159672993Y-133739504D01*
X159650471Y-133731446D01*
X159628847Y-133721218D01*
X159608330Y-133708921D01*
X159589117Y-133694671D01*
X159571393Y-133678607D01*
X159555329Y-133660883D01*
X159541079Y-133641670D01*
X159528782Y-133621153D01*
X159518554Y-133599529D01*
X159510496Y-133577007D01*
X159504684Y-133553803D01*
X159501174Y-133530142D01*
X159500000Y-133506250D01*
X159500000Y-133018750D01*
X159501174Y-132994858D01*
X159504684Y-132971197D01*
X159510496Y-132947993D01*
X159518554Y-132925471D01*
X159528782Y-132903847D01*
X159541079Y-132883330D01*
X159555329Y-132864117D01*
X159571393Y-132846393D01*
X159589117Y-132830329D01*
X159608330Y-132816079D01*
X159628847Y-132803782D01*
X159650471Y-132793554D01*
X159672993Y-132785496D01*
X159696197Y-132779684D01*
X159719858Y-132776174D01*
X159743750Y-132775000D01*
X160656250Y-132775000D01*
X160680142Y-132776174D01*
G37*
G36*
X160680142Y-134651174D02*
G01*
X160703803Y-134654684D01*
X160727007Y-134660496D01*
X160749529Y-134668554D01*
X160771153Y-134678782D01*
X160791670Y-134691079D01*
X160810883Y-134705329D01*
X160828607Y-134721393D01*
X160844671Y-134739117D01*
X160858921Y-134758330D01*
X160871218Y-134778847D01*
X160881446Y-134800471D01*
X160889504Y-134822993D01*
X160895316Y-134846197D01*
X160898826Y-134869858D01*
X160900000Y-134893750D01*
X160900000Y-135381250D01*
X160898826Y-135405142D01*
X160895316Y-135428803D01*
X160889504Y-135452007D01*
X160881446Y-135474529D01*
X160871218Y-135496153D01*
X160858921Y-135516670D01*
X160844671Y-135535883D01*
X160828607Y-135553607D01*
X160810883Y-135569671D01*
X160791670Y-135583921D01*
X160771153Y-135596218D01*
X160749529Y-135606446D01*
X160727007Y-135614504D01*
X160703803Y-135620316D01*
X160680142Y-135623826D01*
X160656250Y-135625000D01*
X159743750Y-135625000D01*
X159719858Y-135623826D01*
X159696197Y-135620316D01*
X159672993Y-135614504D01*
X159650471Y-135606446D01*
X159628847Y-135596218D01*
X159608330Y-135583921D01*
X159589117Y-135569671D01*
X159571393Y-135553607D01*
X159555329Y-135535883D01*
X159541079Y-135516670D01*
X159528782Y-135496153D01*
X159518554Y-135474529D01*
X159510496Y-135452007D01*
X159504684Y-135428803D01*
X159501174Y-135405142D01*
X159500000Y-135381250D01*
X159500000Y-134893750D01*
X159501174Y-134869858D01*
X159504684Y-134846197D01*
X159510496Y-134822993D01*
X159518554Y-134800471D01*
X159528782Y-134778847D01*
X159541079Y-134758330D01*
X159555329Y-134739117D01*
X159571393Y-134721393D01*
X159589117Y-134705329D01*
X159608330Y-134691079D01*
X159628847Y-134678782D01*
X159650471Y-134668554D01*
X159672993Y-134660496D01*
X159696197Y-134654684D01*
X159719858Y-134651174D01*
X159743750Y-134650000D01*
X160656250Y-134650000D01*
X160680142Y-134651174D01*
G37*
%TD*%
%TO.C,R15*%
G36*
X158630142Y-126201174D02*
G01*
X158653803Y-126204684D01*
X158677007Y-126210496D01*
X158699529Y-126218554D01*
X158721153Y-126228782D01*
X158741670Y-126241079D01*
X158760883Y-126255329D01*
X158778607Y-126271393D01*
X158794671Y-126289117D01*
X158808921Y-126308330D01*
X158821218Y-126328847D01*
X158831446Y-126350471D01*
X158839504Y-126372993D01*
X158845316Y-126396197D01*
X158848826Y-126419858D01*
X158850000Y-126443750D01*
X158850000Y-127356250D01*
X158848826Y-127380142D01*
X158845316Y-127403803D01*
X158839504Y-127427007D01*
X158831446Y-127449529D01*
X158821218Y-127471153D01*
X158808921Y-127491670D01*
X158794671Y-127510883D01*
X158778607Y-127528607D01*
X158760883Y-127544671D01*
X158741670Y-127558921D01*
X158721153Y-127571218D01*
X158699529Y-127581446D01*
X158677007Y-127589504D01*
X158653803Y-127595316D01*
X158630142Y-127598826D01*
X158606250Y-127600000D01*
X158118750Y-127600000D01*
X158094858Y-127598826D01*
X158071197Y-127595316D01*
X158047993Y-127589504D01*
X158025471Y-127581446D01*
X158003847Y-127571218D01*
X157983330Y-127558921D01*
X157964117Y-127544671D01*
X157946393Y-127528607D01*
X157930329Y-127510883D01*
X157916079Y-127491670D01*
X157903782Y-127471153D01*
X157893554Y-127449529D01*
X157885496Y-127427007D01*
X157879684Y-127403803D01*
X157876174Y-127380142D01*
X157875000Y-127356250D01*
X157875000Y-126443750D01*
X157876174Y-126419858D01*
X157879684Y-126396197D01*
X157885496Y-126372993D01*
X157893554Y-126350471D01*
X157903782Y-126328847D01*
X157916079Y-126308330D01*
X157930329Y-126289117D01*
X157946393Y-126271393D01*
X157964117Y-126255329D01*
X157983330Y-126241079D01*
X158003847Y-126228782D01*
X158025471Y-126218554D01*
X158047993Y-126210496D01*
X158071197Y-126204684D01*
X158094858Y-126201174D01*
X158118750Y-126200000D01*
X158606250Y-126200000D01*
X158630142Y-126201174D01*
G37*
G36*
X160505142Y-126201174D02*
G01*
X160528803Y-126204684D01*
X160552007Y-126210496D01*
X160574529Y-126218554D01*
X160596153Y-126228782D01*
X160616670Y-126241079D01*
X160635883Y-126255329D01*
X160653607Y-126271393D01*
X160669671Y-126289117D01*
X160683921Y-126308330D01*
X160696218Y-126328847D01*
X160706446Y-126350471D01*
X160714504Y-126372993D01*
X160720316Y-126396197D01*
X160723826Y-126419858D01*
X160725000Y-126443750D01*
X160725000Y-127356250D01*
X160723826Y-127380142D01*
X160720316Y-127403803D01*
X160714504Y-127427007D01*
X160706446Y-127449529D01*
X160696218Y-127471153D01*
X160683921Y-127491670D01*
X160669671Y-127510883D01*
X160653607Y-127528607D01*
X160635883Y-127544671D01*
X160616670Y-127558921D01*
X160596153Y-127571218D01*
X160574529Y-127581446D01*
X160552007Y-127589504D01*
X160528803Y-127595316D01*
X160505142Y-127598826D01*
X160481250Y-127600000D01*
X159993750Y-127600000D01*
X159969858Y-127598826D01*
X159946197Y-127595316D01*
X159922993Y-127589504D01*
X159900471Y-127581446D01*
X159878847Y-127571218D01*
X159858330Y-127558921D01*
X159839117Y-127544671D01*
X159821393Y-127528607D01*
X159805329Y-127510883D01*
X159791079Y-127491670D01*
X159778782Y-127471153D01*
X159768554Y-127449529D01*
X159760496Y-127427007D01*
X159754684Y-127403803D01*
X159751174Y-127380142D01*
X159750000Y-127356250D01*
X159750000Y-126443750D01*
X159751174Y-126419858D01*
X159754684Y-126396197D01*
X159760496Y-126372993D01*
X159768554Y-126350471D01*
X159778782Y-126328847D01*
X159791079Y-126308330D01*
X159805329Y-126289117D01*
X159821393Y-126271393D01*
X159839117Y-126255329D01*
X159858330Y-126241079D01*
X159878847Y-126228782D01*
X159900471Y-126218554D01*
X159922993Y-126210496D01*
X159946197Y-126204684D01*
X159969858Y-126201174D01*
X159993750Y-126200000D01*
X160481250Y-126200000D01*
X160505142Y-126201174D01*
G37*
%TD*%
%TO.C,R23*%
G36*
X140505142Y-84501174D02*
G01*
X140528803Y-84504684D01*
X140552007Y-84510496D01*
X140574529Y-84518554D01*
X140596153Y-84528782D01*
X140616670Y-84541079D01*
X140635883Y-84555329D01*
X140653607Y-84571393D01*
X140669671Y-84589117D01*
X140683921Y-84608330D01*
X140696218Y-84628847D01*
X140706446Y-84650471D01*
X140714504Y-84672993D01*
X140720316Y-84696197D01*
X140723826Y-84719858D01*
X140725000Y-84743750D01*
X140725000Y-85656250D01*
X140723826Y-85680142D01*
X140720316Y-85703803D01*
X140714504Y-85727007D01*
X140706446Y-85749529D01*
X140696218Y-85771153D01*
X140683921Y-85791670D01*
X140669671Y-85810883D01*
X140653607Y-85828607D01*
X140635883Y-85844671D01*
X140616670Y-85858921D01*
X140596153Y-85871218D01*
X140574529Y-85881446D01*
X140552007Y-85889504D01*
X140528803Y-85895316D01*
X140505142Y-85898826D01*
X140481250Y-85900000D01*
X139993750Y-85900000D01*
X139969858Y-85898826D01*
X139946197Y-85895316D01*
X139922993Y-85889504D01*
X139900471Y-85881446D01*
X139878847Y-85871218D01*
X139858330Y-85858921D01*
X139839117Y-85844671D01*
X139821393Y-85828607D01*
X139805329Y-85810883D01*
X139791079Y-85791670D01*
X139778782Y-85771153D01*
X139768554Y-85749529D01*
X139760496Y-85727007D01*
X139754684Y-85703803D01*
X139751174Y-85680142D01*
X139750000Y-85656250D01*
X139750000Y-84743750D01*
X139751174Y-84719858D01*
X139754684Y-84696197D01*
X139760496Y-84672993D01*
X139768554Y-84650471D01*
X139778782Y-84628847D01*
X139791079Y-84608330D01*
X139805329Y-84589117D01*
X139821393Y-84571393D01*
X139839117Y-84555329D01*
X139858330Y-84541079D01*
X139878847Y-84528782D01*
X139900471Y-84518554D01*
X139922993Y-84510496D01*
X139946197Y-84504684D01*
X139969858Y-84501174D01*
X139993750Y-84500000D01*
X140481250Y-84500000D01*
X140505142Y-84501174D01*
G37*
G36*
X138630142Y-84501174D02*
G01*
X138653803Y-84504684D01*
X138677007Y-84510496D01*
X138699529Y-84518554D01*
X138721153Y-84528782D01*
X138741670Y-84541079D01*
X138760883Y-84555329D01*
X138778607Y-84571393D01*
X138794671Y-84589117D01*
X138808921Y-84608330D01*
X138821218Y-84628847D01*
X138831446Y-84650471D01*
X138839504Y-84672993D01*
X138845316Y-84696197D01*
X138848826Y-84719858D01*
X138850000Y-84743750D01*
X138850000Y-85656250D01*
X138848826Y-85680142D01*
X138845316Y-85703803D01*
X138839504Y-85727007D01*
X138831446Y-85749529D01*
X138821218Y-85771153D01*
X138808921Y-85791670D01*
X138794671Y-85810883D01*
X138778607Y-85828607D01*
X138760883Y-85844671D01*
X138741670Y-85858921D01*
X138721153Y-85871218D01*
X138699529Y-85881446D01*
X138677007Y-85889504D01*
X138653803Y-85895316D01*
X138630142Y-85898826D01*
X138606250Y-85900000D01*
X138118750Y-85900000D01*
X138094858Y-85898826D01*
X138071197Y-85895316D01*
X138047993Y-85889504D01*
X138025471Y-85881446D01*
X138003847Y-85871218D01*
X137983330Y-85858921D01*
X137964117Y-85844671D01*
X137946393Y-85828607D01*
X137930329Y-85810883D01*
X137916079Y-85791670D01*
X137903782Y-85771153D01*
X137893554Y-85749529D01*
X137885496Y-85727007D01*
X137879684Y-85703803D01*
X137876174Y-85680142D01*
X137875000Y-85656250D01*
X137875000Y-84743750D01*
X137876174Y-84719858D01*
X137879684Y-84696197D01*
X137885496Y-84672993D01*
X137893554Y-84650471D01*
X137903782Y-84628847D01*
X137916079Y-84608330D01*
X137930329Y-84589117D01*
X137946393Y-84571393D01*
X137964117Y-84555329D01*
X137983330Y-84541079D01*
X138003847Y-84528782D01*
X138025471Y-84518554D01*
X138047993Y-84510496D01*
X138071197Y-84504684D01*
X138094858Y-84501174D01*
X138118750Y-84500000D01*
X138606250Y-84500000D01*
X138630142Y-84501174D01*
G37*
%TD*%
%TO.C,R22*%
G36*
X140505142Y-99501174D02*
G01*
X140528803Y-99504684D01*
X140552007Y-99510496D01*
X140574529Y-99518554D01*
X140596153Y-99528782D01*
X140616670Y-99541079D01*
X140635883Y-99555329D01*
X140653607Y-99571393D01*
X140669671Y-99589117D01*
X140683921Y-99608330D01*
X140696218Y-99628847D01*
X140706446Y-99650471D01*
X140714504Y-99672993D01*
X140720316Y-99696197D01*
X140723826Y-99719858D01*
X140725000Y-99743750D01*
X140725000Y-100656250D01*
X140723826Y-100680142D01*
X140720316Y-100703803D01*
X140714504Y-100727007D01*
X140706446Y-100749529D01*
X140696218Y-100771153D01*
X140683921Y-100791670D01*
X140669671Y-100810883D01*
X140653607Y-100828607D01*
X140635883Y-100844671D01*
X140616670Y-100858921D01*
X140596153Y-100871218D01*
X140574529Y-100881446D01*
X140552007Y-100889504D01*
X140528803Y-100895316D01*
X140505142Y-100898826D01*
X140481250Y-100900000D01*
X139993750Y-100900000D01*
X139969858Y-100898826D01*
X139946197Y-100895316D01*
X139922993Y-100889504D01*
X139900471Y-100881446D01*
X139878847Y-100871218D01*
X139858330Y-100858921D01*
X139839117Y-100844671D01*
X139821393Y-100828607D01*
X139805329Y-100810883D01*
X139791079Y-100791670D01*
X139778782Y-100771153D01*
X139768554Y-100749529D01*
X139760496Y-100727007D01*
X139754684Y-100703803D01*
X139751174Y-100680142D01*
X139750000Y-100656250D01*
X139750000Y-99743750D01*
X139751174Y-99719858D01*
X139754684Y-99696197D01*
X139760496Y-99672993D01*
X139768554Y-99650471D01*
X139778782Y-99628847D01*
X139791079Y-99608330D01*
X139805329Y-99589117D01*
X139821393Y-99571393D01*
X139839117Y-99555329D01*
X139858330Y-99541079D01*
X139878847Y-99528782D01*
X139900471Y-99518554D01*
X139922993Y-99510496D01*
X139946197Y-99504684D01*
X139969858Y-99501174D01*
X139993750Y-99500000D01*
X140481250Y-99500000D01*
X140505142Y-99501174D01*
G37*
G36*
X138630142Y-99501174D02*
G01*
X138653803Y-99504684D01*
X138677007Y-99510496D01*
X138699529Y-99518554D01*
X138721153Y-99528782D01*
X138741670Y-99541079D01*
X138760883Y-99555329D01*
X138778607Y-99571393D01*
X138794671Y-99589117D01*
X138808921Y-99608330D01*
X138821218Y-99628847D01*
X138831446Y-99650471D01*
X138839504Y-99672993D01*
X138845316Y-99696197D01*
X138848826Y-99719858D01*
X138850000Y-99743750D01*
X138850000Y-100656250D01*
X138848826Y-100680142D01*
X138845316Y-100703803D01*
X138839504Y-100727007D01*
X138831446Y-100749529D01*
X138821218Y-100771153D01*
X138808921Y-100791670D01*
X138794671Y-100810883D01*
X138778607Y-100828607D01*
X138760883Y-100844671D01*
X138741670Y-100858921D01*
X138721153Y-100871218D01*
X138699529Y-100881446D01*
X138677007Y-100889504D01*
X138653803Y-100895316D01*
X138630142Y-100898826D01*
X138606250Y-100900000D01*
X138118750Y-100900000D01*
X138094858Y-100898826D01*
X138071197Y-100895316D01*
X138047993Y-100889504D01*
X138025471Y-100881446D01*
X138003847Y-100871218D01*
X137983330Y-100858921D01*
X137964117Y-100844671D01*
X137946393Y-100828607D01*
X137930329Y-100810883D01*
X137916079Y-100791670D01*
X137903782Y-100771153D01*
X137893554Y-100749529D01*
X137885496Y-100727007D01*
X137879684Y-100703803D01*
X137876174Y-100680142D01*
X137875000Y-100656250D01*
X137875000Y-99743750D01*
X137876174Y-99719858D01*
X137879684Y-99696197D01*
X137885496Y-99672993D01*
X137893554Y-99650471D01*
X137903782Y-99628847D01*
X137916079Y-99608330D01*
X137930329Y-99589117D01*
X137946393Y-99571393D01*
X137964117Y-99555329D01*
X137983330Y-99541079D01*
X138003847Y-99528782D01*
X138025471Y-99518554D01*
X138047993Y-99510496D01*
X138071197Y-99504684D01*
X138094858Y-99501174D01*
X138118750Y-99500000D01*
X138606250Y-99500000D01*
X138630142Y-99501174D01*
G37*
%TD*%
%TO.C,R21*%
G36*
X140505142Y-114501174D02*
G01*
X140528803Y-114504684D01*
X140552007Y-114510496D01*
X140574529Y-114518554D01*
X140596153Y-114528782D01*
X140616670Y-114541079D01*
X140635883Y-114555329D01*
X140653607Y-114571393D01*
X140669671Y-114589117D01*
X140683921Y-114608330D01*
X140696218Y-114628847D01*
X140706446Y-114650471D01*
X140714504Y-114672993D01*
X140720316Y-114696197D01*
X140723826Y-114719858D01*
X140725000Y-114743750D01*
X140725000Y-115656250D01*
X140723826Y-115680142D01*
X140720316Y-115703803D01*
X140714504Y-115727007D01*
X140706446Y-115749529D01*
X140696218Y-115771153D01*
X140683921Y-115791670D01*
X140669671Y-115810883D01*
X140653607Y-115828607D01*
X140635883Y-115844671D01*
X140616670Y-115858921D01*
X140596153Y-115871218D01*
X140574529Y-115881446D01*
X140552007Y-115889504D01*
X140528803Y-115895316D01*
X140505142Y-115898826D01*
X140481250Y-115900000D01*
X139993750Y-115900000D01*
X139969858Y-115898826D01*
X139946197Y-115895316D01*
X139922993Y-115889504D01*
X139900471Y-115881446D01*
X139878847Y-115871218D01*
X139858330Y-115858921D01*
X139839117Y-115844671D01*
X139821393Y-115828607D01*
X139805329Y-115810883D01*
X139791079Y-115791670D01*
X139778782Y-115771153D01*
X139768554Y-115749529D01*
X139760496Y-115727007D01*
X139754684Y-115703803D01*
X139751174Y-115680142D01*
X139750000Y-115656250D01*
X139750000Y-114743750D01*
X139751174Y-114719858D01*
X139754684Y-114696197D01*
X139760496Y-114672993D01*
X139768554Y-114650471D01*
X139778782Y-114628847D01*
X139791079Y-114608330D01*
X139805329Y-114589117D01*
X139821393Y-114571393D01*
X139839117Y-114555329D01*
X139858330Y-114541079D01*
X139878847Y-114528782D01*
X139900471Y-114518554D01*
X139922993Y-114510496D01*
X139946197Y-114504684D01*
X139969858Y-114501174D01*
X139993750Y-114500000D01*
X140481250Y-114500000D01*
X140505142Y-114501174D01*
G37*
G36*
X138630142Y-114501174D02*
G01*
X138653803Y-114504684D01*
X138677007Y-114510496D01*
X138699529Y-114518554D01*
X138721153Y-114528782D01*
X138741670Y-114541079D01*
X138760883Y-114555329D01*
X138778607Y-114571393D01*
X138794671Y-114589117D01*
X138808921Y-114608330D01*
X138821218Y-114628847D01*
X138831446Y-114650471D01*
X138839504Y-114672993D01*
X138845316Y-114696197D01*
X138848826Y-114719858D01*
X138850000Y-114743750D01*
X138850000Y-115656250D01*
X138848826Y-115680142D01*
X138845316Y-115703803D01*
X138839504Y-115727007D01*
X138831446Y-115749529D01*
X138821218Y-115771153D01*
X138808921Y-115791670D01*
X138794671Y-115810883D01*
X138778607Y-115828607D01*
X138760883Y-115844671D01*
X138741670Y-115858921D01*
X138721153Y-115871218D01*
X138699529Y-115881446D01*
X138677007Y-115889504D01*
X138653803Y-115895316D01*
X138630142Y-115898826D01*
X138606250Y-115900000D01*
X138118750Y-115900000D01*
X138094858Y-115898826D01*
X138071197Y-115895316D01*
X138047993Y-115889504D01*
X138025471Y-115881446D01*
X138003847Y-115871218D01*
X137983330Y-115858921D01*
X137964117Y-115844671D01*
X137946393Y-115828607D01*
X137930329Y-115810883D01*
X137916079Y-115791670D01*
X137903782Y-115771153D01*
X137893554Y-115749529D01*
X137885496Y-115727007D01*
X137879684Y-115703803D01*
X137876174Y-115680142D01*
X137875000Y-115656250D01*
X137875000Y-114743750D01*
X137876174Y-114719858D01*
X137879684Y-114696197D01*
X137885496Y-114672993D01*
X137893554Y-114650471D01*
X137903782Y-114628847D01*
X137916079Y-114608330D01*
X137930329Y-114589117D01*
X137946393Y-114571393D01*
X137964117Y-114555329D01*
X137983330Y-114541079D01*
X138003847Y-114528782D01*
X138025471Y-114518554D01*
X138047993Y-114510496D01*
X138071197Y-114504684D01*
X138094858Y-114501174D01*
X138118750Y-114500000D01*
X138606250Y-114500000D01*
X138630142Y-114501174D01*
G37*
%TD*%
%TO.C,R20*%
G36*
X140505142Y-129501174D02*
G01*
X140528803Y-129504684D01*
X140552007Y-129510496D01*
X140574529Y-129518554D01*
X140596153Y-129528782D01*
X140616670Y-129541079D01*
X140635883Y-129555329D01*
X140653607Y-129571393D01*
X140669671Y-129589117D01*
X140683921Y-129608330D01*
X140696218Y-129628847D01*
X140706446Y-129650471D01*
X140714504Y-129672993D01*
X140720316Y-129696197D01*
X140723826Y-129719858D01*
X140725000Y-129743750D01*
X140725000Y-130656250D01*
X140723826Y-130680142D01*
X140720316Y-130703803D01*
X140714504Y-130727007D01*
X140706446Y-130749529D01*
X140696218Y-130771153D01*
X140683921Y-130791670D01*
X140669671Y-130810883D01*
X140653607Y-130828607D01*
X140635883Y-130844671D01*
X140616670Y-130858921D01*
X140596153Y-130871218D01*
X140574529Y-130881446D01*
X140552007Y-130889504D01*
X140528803Y-130895316D01*
X140505142Y-130898826D01*
X140481250Y-130900000D01*
X139993750Y-130900000D01*
X139969858Y-130898826D01*
X139946197Y-130895316D01*
X139922993Y-130889504D01*
X139900471Y-130881446D01*
X139878847Y-130871218D01*
X139858330Y-130858921D01*
X139839117Y-130844671D01*
X139821393Y-130828607D01*
X139805329Y-130810883D01*
X139791079Y-130791670D01*
X139778782Y-130771153D01*
X139768554Y-130749529D01*
X139760496Y-130727007D01*
X139754684Y-130703803D01*
X139751174Y-130680142D01*
X139750000Y-130656250D01*
X139750000Y-129743750D01*
X139751174Y-129719858D01*
X139754684Y-129696197D01*
X139760496Y-129672993D01*
X139768554Y-129650471D01*
X139778782Y-129628847D01*
X139791079Y-129608330D01*
X139805329Y-129589117D01*
X139821393Y-129571393D01*
X139839117Y-129555329D01*
X139858330Y-129541079D01*
X139878847Y-129528782D01*
X139900471Y-129518554D01*
X139922993Y-129510496D01*
X139946197Y-129504684D01*
X139969858Y-129501174D01*
X139993750Y-129500000D01*
X140481250Y-129500000D01*
X140505142Y-129501174D01*
G37*
G36*
X138630142Y-129501174D02*
G01*
X138653803Y-129504684D01*
X138677007Y-129510496D01*
X138699529Y-129518554D01*
X138721153Y-129528782D01*
X138741670Y-129541079D01*
X138760883Y-129555329D01*
X138778607Y-129571393D01*
X138794671Y-129589117D01*
X138808921Y-129608330D01*
X138821218Y-129628847D01*
X138831446Y-129650471D01*
X138839504Y-129672993D01*
X138845316Y-129696197D01*
X138848826Y-129719858D01*
X138850000Y-129743750D01*
X138850000Y-130656250D01*
X138848826Y-130680142D01*
X138845316Y-130703803D01*
X138839504Y-130727007D01*
X138831446Y-130749529D01*
X138821218Y-130771153D01*
X138808921Y-130791670D01*
X138794671Y-130810883D01*
X138778607Y-130828607D01*
X138760883Y-130844671D01*
X138741670Y-130858921D01*
X138721153Y-130871218D01*
X138699529Y-130881446D01*
X138677007Y-130889504D01*
X138653803Y-130895316D01*
X138630142Y-130898826D01*
X138606250Y-130900000D01*
X138118750Y-130900000D01*
X138094858Y-130898826D01*
X138071197Y-130895316D01*
X138047993Y-130889504D01*
X138025471Y-130881446D01*
X138003847Y-130871218D01*
X137983330Y-130858921D01*
X137964117Y-130844671D01*
X137946393Y-130828607D01*
X137930329Y-130810883D01*
X137916079Y-130791670D01*
X137903782Y-130771153D01*
X137893554Y-130749529D01*
X137885496Y-130727007D01*
X137879684Y-130703803D01*
X137876174Y-130680142D01*
X137875000Y-130656250D01*
X137875000Y-129743750D01*
X137876174Y-129719858D01*
X137879684Y-129696197D01*
X137885496Y-129672993D01*
X137893554Y-129650471D01*
X137903782Y-129628847D01*
X137916079Y-129608330D01*
X137930329Y-129589117D01*
X137946393Y-129571393D01*
X137964117Y-129555329D01*
X137983330Y-129541079D01*
X138003847Y-129528782D01*
X138025471Y-129518554D01*
X138047993Y-129510496D01*
X138071197Y-129504684D01*
X138094858Y-129501174D01*
X138118750Y-129500000D01*
X138606250Y-129500000D01*
X138630142Y-129501174D01*
G37*
%TD*%
%TO.C,C9*%
G36*
X140680142Y-87776174D02*
G01*
X140703803Y-87779684D01*
X140727007Y-87785496D01*
X140749529Y-87793554D01*
X140771153Y-87803782D01*
X140791670Y-87816079D01*
X140810883Y-87830329D01*
X140828607Y-87846393D01*
X140844671Y-87864117D01*
X140858921Y-87883330D01*
X140871218Y-87903847D01*
X140881446Y-87925471D01*
X140889504Y-87947993D01*
X140895316Y-87971197D01*
X140898826Y-87994858D01*
X140900000Y-88018750D01*
X140900000Y-88506250D01*
X140898826Y-88530142D01*
X140895316Y-88553803D01*
X140889504Y-88577007D01*
X140881446Y-88599529D01*
X140871218Y-88621153D01*
X140858921Y-88641670D01*
X140844671Y-88660883D01*
X140828607Y-88678607D01*
X140810883Y-88694671D01*
X140791670Y-88708921D01*
X140771153Y-88721218D01*
X140749529Y-88731446D01*
X140727007Y-88739504D01*
X140703803Y-88745316D01*
X140680142Y-88748826D01*
X140656250Y-88750000D01*
X139743750Y-88750000D01*
X139719858Y-88748826D01*
X139696197Y-88745316D01*
X139672993Y-88739504D01*
X139650471Y-88731446D01*
X139628847Y-88721218D01*
X139608330Y-88708921D01*
X139589117Y-88694671D01*
X139571393Y-88678607D01*
X139555329Y-88660883D01*
X139541079Y-88641670D01*
X139528782Y-88621153D01*
X139518554Y-88599529D01*
X139510496Y-88577007D01*
X139504684Y-88553803D01*
X139501174Y-88530142D01*
X139500000Y-88506250D01*
X139500000Y-88018750D01*
X139501174Y-87994858D01*
X139504684Y-87971197D01*
X139510496Y-87947993D01*
X139518554Y-87925471D01*
X139528782Y-87903847D01*
X139541079Y-87883330D01*
X139555329Y-87864117D01*
X139571393Y-87846393D01*
X139589117Y-87830329D01*
X139608330Y-87816079D01*
X139628847Y-87803782D01*
X139650471Y-87793554D01*
X139672993Y-87785496D01*
X139696197Y-87779684D01*
X139719858Y-87776174D01*
X139743750Y-87775000D01*
X140656250Y-87775000D01*
X140680142Y-87776174D01*
G37*
G36*
X140680142Y-89651174D02*
G01*
X140703803Y-89654684D01*
X140727007Y-89660496D01*
X140749529Y-89668554D01*
X140771153Y-89678782D01*
X140791670Y-89691079D01*
X140810883Y-89705329D01*
X140828607Y-89721393D01*
X140844671Y-89739117D01*
X140858921Y-89758330D01*
X140871218Y-89778847D01*
X140881446Y-89800471D01*
X140889504Y-89822993D01*
X140895316Y-89846197D01*
X140898826Y-89869858D01*
X140900000Y-89893750D01*
X140900000Y-90381250D01*
X140898826Y-90405142D01*
X140895316Y-90428803D01*
X140889504Y-90452007D01*
X140881446Y-90474529D01*
X140871218Y-90496153D01*
X140858921Y-90516670D01*
X140844671Y-90535883D01*
X140828607Y-90553607D01*
X140810883Y-90569671D01*
X140791670Y-90583921D01*
X140771153Y-90596218D01*
X140749529Y-90606446D01*
X140727007Y-90614504D01*
X140703803Y-90620316D01*
X140680142Y-90623826D01*
X140656250Y-90625000D01*
X139743750Y-90625000D01*
X139719858Y-90623826D01*
X139696197Y-90620316D01*
X139672993Y-90614504D01*
X139650471Y-90606446D01*
X139628847Y-90596218D01*
X139608330Y-90583921D01*
X139589117Y-90569671D01*
X139571393Y-90553607D01*
X139555329Y-90535883D01*
X139541079Y-90516670D01*
X139528782Y-90496153D01*
X139518554Y-90474529D01*
X139510496Y-90452007D01*
X139504684Y-90428803D01*
X139501174Y-90405142D01*
X139500000Y-90381250D01*
X139500000Y-89893750D01*
X139501174Y-89869858D01*
X139504684Y-89846197D01*
X139510496Y-89822993D01*
X139518554Y-89800471D01*
X139528782Y-89778847D01*
X139541079Y-89758330D01*
X139555329Y-89739117D01*
X139571393Y-89721393D01*
X139589117Y-89705329D01*
X139608330Y-89691079D01*
X139628847Y-89678782D01*
X139650471Y-89668554D01*
X139672993Y-89660496D01*
X139696197Y-89654684D01*
X139719858Y-89651174D01*
X139743750Y-89650000D01*
X140656250Y-89650000D01*
X140680142Y-89651174D01*
G37*
%TD*%
%TO.C,C8*%
G36*
X140680142Y-102776174D02*
G01*
X140703803Y-102779684D01*
X140727007Y-102785496D01*
X140749529Y-102793554D01*
X140771153Y-102803782D01*
X140791670Y-102816079D01*
X140810883Y-102830329D01*
X140828607Y-102846393D01*
X140844671Y-102864117D01*
X140858921Y-102883330D01*
X140871218Y-102903847D01*
X140881446Y-102925471D01*
X140889504Y-102947993D01*
X140895316Y-102971197D01*
X140898826Y-102994858D01*
X140900000Y-103018750D01*
X140900000Y-103506250D01*
X140898826Y-103530142D01*
X140895316Y-103553803D01*
X140889504Y-103577007D01*
X140881446Y-103599529D01*
X140871218Y-103621153D01*
X140858921Y-103641670D01*
X140844671Y-103660883D01*
X140828607Y-103678607D01*
X140810883Y-103694671D01*
X140791670Y-103708921D01*
X140771153Y-103721218D01*
X140749529Y-103731446D01*
X140727007Y-103739504D01*
X140703803Y-103745316D01*
X140680142Y-103748826D01*
X140656250Y-103750000D01*
X139743750Y-103750000D01*
X139719858Y-103748826D01*
X139696197Y-103745316D01*
X139672993Y-103739504D01*
X139650471Y-103731446D01*
X139628847Y-103721218D01*
X139608330Y-103708921D01*
X139589117Y-103694671D01*
X139571393Y-103678607D01*
X139555329Y-103660883D01*
X139541079Y-103641670D01*
X139528782Y-103621153D01*
X139518554Y-103599529D01*
X139510496Y-103577007D01*
X139504684Y-103553803D01*
X139501174Y-103530142D01*
X139500000Y-103506250D01*
X139500000Y-103018750D01*
X139501174Y-102994858D01*
X139504684Y-102971197D01*
X139510496Y-102947993D01*
X139518554Y-102925471D01*
X139528782Y-102903847D01*
X139541079Y-102883330D01*
X139555329Y-102864117D01*
X139571393Y-102846393D01*
X139589117Y-102830329D01*
X139608330Y-102816079D01*
X139628847Y-102803782D01*
X139650471Y-102793554D01*
X139672993Y-102785496D01*
X139696197Y-102779684D01*
X139719858Y-102776174D01*
X139743750Y-102775000D01*
X140656250Y-102775000D01*
X140680142Y-102776174D01*
G37*
G36*
X140680142Y-104651174D02*
G01*
X140703803Y-104654684D01*
X140727007Y-104660496D01*
X140749529Y-104668554D01*
X140771153Y-104678782D01*
X140791670Y-104691079D01*
X140810883Y-104705329D01*
X140828607Y-104721393D01*
X140844671Y-104739117D01*
X140858921Y-104758330D01*
X140871218Y-104778847D01*
X140881446Y-104800471D01*
X140889504Y-104822993D01*
X140895316Y-104846197D01*
X140898826Y-104869858D01*
X140900000Y-104893750D01*
X140900000Y-105381250D01*
X140898826Y-105405142D01*
X140895316Y-105428803D01*
X140889504Y-105452007D01*
X140881446Y-105474529D01*
X140871218Y-105496153D01*
X140858921Y-105516670D01*
X140844671Y-105535883D01*
X140828607Y-105553607D01*
X140810883Y-105569671D01*
X140791670Y-105583921D01*
X140771153Y-105596218D01*
X140749529Y-105606446D01*
X140727007Y-105614504D01*
X140703803Y-105620316D01*
X140680142Y-105623826D01*
X140656250Y-105625000D01*
X139743750Y-105625000D01*
X139719858Y-105623826D01*
X139696197Y-105620316D01*
X139672993Y-105614504D01*
X139650471Y-105606446D01*
X139628847Y-105596218D01*
X139608330Y-105583921D01*
X139589117Y-105569671D01*
X139571393Y-105553607D01*
X139555329Y-105535883D01*
X139541079Y-105516670D01*
X139528782Y-105496153D01*
X139518554Y-105474529D01*
X139510496Y-105452007D01*
X139504684Y-105428803D01*
X139501174Y-105405142D01*
X139500000Y-105381250D01*
X139500000Y-104893750D01*
X139501174Y-104869858D01*
X139504684Y-104846197D01*
X139510496Y-104822993D01*
X139518554Y-104800471D01*
X139528782Y-104778847D01*
X139541079Y-104758330D01*
X139555329Y-104739117D01*
X139571393Y-104721393D01*
X139589117Y-104705329D01*
X139608330Y-104691079D01*
X139628847Y-104678782D01*
X139650471Y-104668554D01*
X139672993Y-104660496D01*
X139696197Y-104654684D01*
X139719858Y-104651174D01*
X139743750Y-104650000D01*
X140656250Y-104650000D01*
X140680142Y-104651174D01*
G37*
%TD*%
%TO.C,C7*%
G36*
X140680142Y-117776174D02*
G01*
X140703803Y-117779684D01*
X140727007Y-117785496D01*
X140749529Y-117793554D01*
X140771153Y-117803782D01*
X140791670Y-117816079D01*
X140810883Y-117830329D01*
X140828607Y-117846393D01*
X140844671Y-117864117D01*
X140858921Y-117883330D01*
X140871218Y-117903847D01*
X140881446Y-117925471D01*
X140889504Y-117947993D01*
X140895316Y-117971197D01*
X140898826Y-117994858D01*
X140900000Y-118018750D01*
X140900000Y-118506250D01*
X140898826Y-118530142D01*
X140895316Y-118553803D01*
X140889504Y-118577007D01*
X140881446Y-118599529D01*
X140871218Y-118621153D01*
X140858921Y-118641670D01*
X140844671Y-118660883D01*
X140828607Y-118678607D01*
X140810883Y-118694671D01*
X140791670Y-118708921D01*
X140771153Y-118721218D01*
X140749529Y-118731446D01*
X140727007Y-118739504D01*
X140703803Y-118745316D01*
X140680142Y-118748826D01*
X140656250Y-118750000D01*
X139743750Y-118750000D01*
X139719858Y-118748826D01*
X139696197Y-118745316D01*
X139672993Y-118739504D01*
X139650471Y-118731446D01*
X139628847Y-118721218D01*
X139608330Y-118708921D01*
X139589117Y-118694671D01*
X139571393Y-118678607D01*
X139555329Y-118660883D01*
X139541079Y-118641670D01*
X139528782Y-118621153D01*
X139518554Y-118599529D01*
X139510496Y-118577007D01*
X139504684Y-118553803D01*
X139501174Y-118530142D01*
X139500000Y-118506250D01*
X139500000Y-118018750D01*
X139501174Y-117994858D01*
X139504684Y-117971197D01*
X139510496Y-117947993D01*
X139518554Y-117925471D01*
X139528782Y-117903847D01*
X139541079Y-117883330D01*
X139555329Y-117864117D01*
X139571393Y-117846393D01*
X139589117Y-117830329D01*
X139608330Y-117816079D01*
X139628847Y-117803782D01*
X139650471Y-117793554D01*
X139672993Y-117785496D01*
X139696197Y-117779684D01*
X139719858Y-117776174D01*
X139743750Y-117775000D01*
X140656250Y-117775000D01*
X140680142Y-117776174D01*
G37*
G36*
X140680142Y-119651174D02*
G01*
X140703803Y-119654684D01*
X140727007Y-119660496D01*
X140749529Y-119668554D01*
X140771153Y-119678782D01*
X140791670Y-119691079D01*
X140810883Y-119705329D01*
X140828607Y-119721393D01*
X140844671Y-119739117D01*
X140858921Y-119758330D01*
X140871218Y-119778847D01*
X140881446Y-119800471D01*
X140889504Y-119822993D01*
X140895316Y-119846197D01*
X140898826Y-119869858D01*
X140900000Y-119893750D01*
X140900000Y-120381250D01*
X140898826Y-120405142D01*
X140895316Y-120428803D01*
X140889504Y-120452007D01*
X140881446Y-120474529D01*
X140871218Y-120496153D01*
X140858921Y-120516670D01*
X140844671Y-120535883D01*
X140828607Y-120553607D01*
X140810883Y-120569671D01*
X140791670Y-120583921D01*
X140771153Y-120596218D01*
X140749529Y-120606446D01*
X140727007Y-120614504D01*
X140703803Y-120620316D01*
X140680142Y-120623826D01*
X140656250Y-120625000D01*
X139743750Y-120625000D01*
X139719858Y-120623826D01*
X139696197Y-120620316D01*
X139672993Y-120614504D01*
X139650471Y-120606446D01*
X139628847Y-120596218D01*
X139608330Y-120583921D01*
X139589117Y-120569671D01*
X139571393Y-120553607D01*
X139555329Y-120535883D01*
X139541079Y-120516670D01*
X139528782Y-120496153D01*
X139518554Y-120474529D01*
X139510496Y-120452007D01*
X139504684Y-120428803D01*
X139501174Y-120405142D01*
X139500000Y-120381250D01*
X139500000Y-119893750D01*
X139501174Y-119869858D01*
X139504684Y-119846197D01*
X139510496Y-119822993D01*
X139518554Y-119800471D01*
X139528782Y-119778847D01*
X139541079Y-119758330D01*
X139555329Y-119739117D01*
X139571393Y-119721393D01*
X139589117Y-119705329D01*
X139608330Y-119691079D01*
X139628847Y-119678782D01*
X139650471Y-119668554D01*
X139672993Y-119660496D01*
X139696197Y-119654684D01*
X139719858Y-119651174D01*
X139743750Y-119650000D01*
X140656250Y-119650000D01*
X140680142Y-119651174D01*
G37*
%TD*%
%TO.C,C6*%
G36*
X140680142Y-132776174D02*
G01*
X140703803Y-132779684D01*
X140727007Y-132785496D01*
X140749529Y-132793554D01*
X140771153Y-132803782D01*
X140791670Y-132816079D01*
X140810883Y-132830329D01*
X140828607Y-132846393D01*
X140844671Y-132864117D01*
X140858921Y-132883330D01*
X140871218Y-132903847D01*
X140881446Y-132925471D01*
X140889504Y-132947993D01*
X140895316Y-132971197D01*
X140898826Y-132994858D01*
X140900000Y-133018750D01*
X140900000Y-133506250D01*
X140898826Y-133530142D01*
X140895316Y-133553803D01*
X140889504Y-133577007D01*
X140881446Y-133599529D01*
X140871218Y-133621153D01*
X140858921Y-133641670D01*
X140844671Y-133660883D01*
X140828607Y-133678607D01*
X140810883Y-133694671D01*
X140791670Y-133708921D01*
X140771153Y-133721218D01*
X140749529Y-133731446D01*
X140727007Y-133739504D01*
X140703803Y-133745316D01*
X140680142Y-133748826D01*
X140656250Y-133750000D01*
X139743750Y-133750000D01*
X139719858Y-133748826D01*
X139696197Y-133745316D01*
X139672993Y-133739504D01*
X139650471Y-133731446D01*
X139628847Y-133721218D01*
X139608330Y-133708921D01*
X139589117Y-133694671D01*
X139571393Y-133678607D01*
X139555329Y-133660883D01*
X139541079Y-133641670D01*
X139528782Y-133621153D01*
X139518554Y-133599529D01*
X139510496Y-133577007D01*
X139504684Y-133553803D01*
X139501174Y-133530142D01*
X139500000Y-133506250D01*
X139500000Y-133018750D01*
X139501174Y-132994858D01*
X139504684Y-132971197D01*
X139510496Y-132947993D01*
X139518554Y-132925471D01*
X139528782Y-132903847D01*
X139541079Y-132883330D01*
X139555329Y-132864117D01*
X139571393Y-132846393D01*
X139589117Y-132830329D01*
X139608330Y-132816079D01*
X139628847Y-132803782D01*
X139650471Y-132793554D01*
X139672993Y-132785496D01*
X139696197Y-132779684D01*
X139719858Y-132776174D01*
X139743750Y-132775000D01*
X140656250Y-132775000D01*
X140680142Y-132776174D01*
G37*
G36*
X140680142Y-134651174D02*
G01*
X140703803Y-134654684D01*
X140727007Y-134660496D01*
X140749529Y-134668554D01*
X140771153Y-134678782D01*
X140791670Y-134691079D01*
X140810883Y-134705329D01*
X140828607Y-134721393D01*
X140844671Y-134739117D01*
X140858921Y-134758330D01*
X140871218Y-134778847D01*
X140881446Y-134800471D01*
X140889504Y-134822993D01*
X140895316Y-134846197D01*
X140898826Y-134869858D01*
X140900000Y-134893750D01*
X140900000Y-135381250D01*
X140898826Y-135405142D01*
X140895316Y-135428803D01*
X140889504Y-135452007D01*
X140881446Y-135474529D01*
X140871218Y-135496153D01*
X140858921Y-135516670D01*
X140844671Y-135535883D01*
X140828607Y-135553607D01*
X140810883Y-135569671D01*
X140791670Y-135583921D01*
X140771153Y-135596218D01*
X140749529Y-135606446D01*
X140727007Y-135614504D01*
X140703803Y-135620316D01*
X140680142Y-135623826D01*
X140656250Y-135625000D01*
X139743750Y-135625000D01*
X139719858Y-135623826D01*
X139696197Y-135620316D01*
X139672993Y-135614504D01*
X139650471Y-135606446D01*
X139628847Y-135596218D01*
X139608330Y-135583921D01*
X139589117Y-135569671D01*
X139571393Y-135553607D01*
X139555329Y-135535883D01*
X139541079Y-135516670D01*
X139528782Y-135496153D01*
X139518554Y-135474529D01*
X139510496Y-135452007D01*
X139504684Y-135428803D01*
X139501174Y-135405142D01*
X139500000Y-135381250D01*
X139500000Y-134893750D01*
X139501174Y-134869858D01*
X139504684Y-134846197D01*
X139510496Y-134822993D01*
X139518554Y-134800471D01*
X139528782Y-134778847D01*
X139541079Y-134758330D01*
X139555329Y-134739117D01*
X139571393Y-134721393D01*
X139589117Y-134705329D01*
X139608330Y-134691079D01*
X139628847Y-134678782D01*
X139650471Y-134668554D01*
X139672993Y-134660496D01*
X139696197Y-134654684D01*
X139719858Y-134651174D01*
X139743750Y-134650000D01*
X140656250Y-134650000D01*
X140680142Y-134651174D01*
G37*
%TD*%
%TO.C,R14*%
G36*
X138630142Y-81201174D02*
G01*
X138653803Y-81204684D01*
X138677007Y-81210496D01*
X138699529Y-81218554D01*
X138721153Y-81228782D01*
X138741670Y-81241079D01*
X138760883Y-81255329D01*
X138778607Y-81271393D01*
X138794671Y-81289117D01*
X138808921Y-81308330D01*
X138821218Y-81328847D01*
X138831446Y-81350471D01*
X138839504Y-81372993D01*
X138845316Y-81396197D01*
X138848826Y-81419858D01*
X138850000Y-81443750D01*
X138850000Y-82356250D01*
X138848826Y-82380142D01*
X138845316Y-82403803D01*
X138839504Y-82427007D01*
X138831446Y-82449529D01*
X138821218Y-82471153D01*
X138808921Y-82491670D01*
X138794671Y-82510883D01*
X138778607Y-82528607D01*
X138760883Y-82544671D01*
X138741670Y-82558921D01*
X138721153Y-82571218D01*
X138699529Y-82581446D01*
X138677007Y-82589504D01*
X138653803Y-82595316D01*
X138630142Y-82598826D01*
X138606250Y-82600000D01*
X138118750Y-82600000D01*
X138094858Y-82598826D01*
X138071197Y-82595316D01*
X138047993Y-82589504D01*
X138025471Y-82581446D01*
X138003847Y-82571218D01*
X137983330Y-82558921D01*
X137964117Y-82544671D01*
X137946393Y-82528607D01*
X137930329Y-82510883D01*
X137916079Y-82491670D01*
X137903782Y-82471153D01*
X137893554Y-82449529D01*
X137885496Y-82427007D01*
X137879684Y-82403803D01*
X137876174Y-82380142D01*
X137875000Y-82356250D01*
X137875000Y-81443750D01*
X137876174Y-81419858D01*
X137879684Y-81396197D01*
X137885496Y-81372993D01*
X137893554Y-81350471D01*
X137903782Y-81328847D01*
X137916079Y-81308330D01*
X137930329Y-81289117D01*
X137946393Y-81271393D01*
X137964117Y-81255329D01*
X137983330Y-81241079D01*
X138003847Y-81228782D01*
X138025471Y-81218554D01*
X138047993Y-81210496D01*
X138071197Y-81204684D01*
X138094858Y-81201174D01*
X138118750Y-81200000D01*
X138606250Y-81200000D01*
X138630142Y-81201174D01*
G37*
G36*
X140505142Y-81201174D02*
G01*
X140528803Y-81204684D01*
X140552007Y-81210496D01*
X140574529Y-81218554D01*
X140596153Y-81228782D01*
X140616670Y-81241079D01*
X140635883Y-81255329D01*
X140653607Y-81271393D01*
X140669671Y-81289117D01*
X140683921Y-81308330D01*
X140696218Y-81328847D01*
X140706446Y-81350471D01*
X140714504Y-81372993D01*
X140720316Y-81396197D01*
X140723826Y-81419858D01*
X140725000Y-81443750D01*
X140725000Y-82356250D01*
X140723826Y-82380142D01*
X140720316Y-82403803D01*
X140714504Y-82427007D01*
X140706446Y-82449529D01*
X140696218Y-82471153D01*
X140683921Y-82491670D01*
X140669671Y-82510883D01*
X140653607Y-82528607D01*
X140635883Y-82544671D01*
X140616670Y-82558921D01*
X140596153Y-82571218D01*
X140574529Y-82581446D01*
X140552007Y-82589504D01*
X140528803Y-82595316D01*
X140505142Y-82598826D01*
X140481250Y-82600000D01*
X139993750Y-82600000D01*
X139969858Y-82598826D01*
X139946197Y-82595316D01*
X139922993Y-82589504D01*
X139900471Y-82581446D01*
X139878847Y-82571218D01*
X139858330Y-82558921D01*
X139839117Y-82544671D01*
X139821393Y-82528607D01*
X139805329Y-82510883D01*
X139791079Y-82491670D01*
X139778782Y-82471153D01*
X139768554Y-82449529D01*
X139760496Y-82427007D01*
X139754684Y-82403803D01*
X139751174Y-82380142D01*
X139750000Y-82356250D01*
X139750000Y-81443750D01*
X139751174Y-81419858D01*
X139754684Y-81396197D01*
X139760496Y-81372993D01*
X139768554Y-81350471D01*
X139778782Y-81328847D01*
X139791079Y-81308330D01*
X139805329Y-81289117D01*
X139821393Y-81271393D01*
X139839117Y-81255329D01*
X139858330Y-81241079D01*
X139878847Y-81228782D01*
X139900471Y-81218554D01*
X139922993Y-81210496D01*
X139946197Y-81204684D01*
X139969858Y-81201174D01*
X139993750Y-81200000D01*
X140481250Y-81200000D01*
X140505142Y-81201174D01*
G37*
%TD*%
%TO.C,R13*%
G36*
X138630142Y-96201174D02*
G01*
X138653803Y-96204684D01*
X138677007Y-96210496D01*
X138699529Y-96218554D01*
X138721153Y-96228782D01*
X138741670Y-96241079D01*
X138760883Y-96255329D01*
X138778607Y-96271393D01*
X138794671Y-96289117D01*
X138808921Y-96308330D01*
X138821218Y-96328847D01*
X138831446Y-96350471D01*
X138839504Y-96372993D01*
X138845316Y-96396197D01*
X138848826Y-96419858D01*
X138850000Y-96443750D01*
X138850000Y-97356250D01*
X138848826Y-97380142D01*
X138845316Y-97403803D01*
X138839504Y-97427007D01*
X138831446Y-97449529D01*
X138821218Y-97471153D01*
X138808921Y-97491670D01*
X138794671Y-97510883D01*
X138778607Y-97528607D01*
X138760883Y-97544671D01*
X138741670Y-97558921D01*
X138721153Y-97571218D01*
X138699529Y-97581446D01*
X138677007Y-97589504D01*
X138653803Y-97595316D01*
X138630142Y-97598826D01*
X138606250Y-97600000D01*
X138118750Y-97600000D01*
X138094858Y-97598826D01*
X138071197Y-97595316D01*
X138047993Y-97589504D01*
X138025471Y-97581446D01*
X138003847Y-97571218D01*
X137983330Y-97558921D01*
X137964117Y-97544671D01*
X137946393Y-97528607D01*
X137930329Y-97510883D01*
X137916079Y-97491670D01*
X137903782Y-97471153D01*
X137893554Y-97449529D01*
X137885496Y-97427007D01*
X137879684Y-97403803D01*
X137876174Y-97380142D01*
X137875000Y-97356250D01*
X137875000Y-96443750D01*
X137876174Y-96419858D01*
X137879684Y-96396197D01*
X137885496Y-96372993D01*
X137893554Y-96350471D01*
X137903782Y-96328847D01*
X137916079Y-96308330D01*
X137930329Y-96289117D01*
X137946393Y-96271393D01*
X137964117Y-96255329D01*
X137983330Y-96241079D01*
X138003847Y-96228782D01*
X138025471Y-96218554D01*
X138047993Y-96210496D01*
X138071197Y-96204684D01*
X138094858Y-96201174D01*
X138118750Y-96200000D01*
X138606250Y-96200000D01*
X138630142Y-96201174D01*
G37*
G36*
X140505142Y-96201174D02*
G01*
X140528803Y-96204684D01*
X140552007Y-96210496D01*
X140574529Y-96218554D01*
X140596153Y-96228782D01*
X140616670Y-96241079D01*
X140635883Y-96255329D01*
X140653607Y-96271393D01*
X140669671Y-96289117D01*
X140683921Y-96308330D01*
X140696218Y-96328847D01*
X140706446Y-96350471D01*
X140714504Y-96372993D01*
X140720316Y-96396197D01*
X140723826Y-96419858D01*
X140725000Y-96443750D01*
X140725000Y-97356250D01*
X140723826Y-97380142D01*
X140720316Y-97403803D01*
X140714504Y-97427007D01*
X140706446Y-97449529D01*
X140696218Y-97471153D01*
X140683921Y-97491670D01*
X140669671Y-97510883D01*
X140653607Y-97528607D01*
X140635883Y-97544671D01*
X140616670Y-97558921D01*
X140596153Y-97571218D01*
X140574529Y-97581446D01*
X140552007Y-97589504D01*
X140528803Y-97595316D01*
X140505142Y-97598826D01*
X140481250Y-97600000D01*
X139993750Y-97600000D01*
X139969858Y-97598826D01*
X139946197Y-97595316D01*
X139922993Y-97589504D01*
X139900471Y-97581446D01*
X139878847Y-97571218D01*
X139858330Y-97558921D01*
X139839117Y-97544671D01*
X139821393Y-97528607D01*
X139805329Y-97510883D01*
X139791079Y-97491670D01*
X139778782Y-97471153D01*
X139768554Y-97449529D01*
X139760496Y-97427007D01*
X139754684Y-97403803D01*
X139751174Y-97380142D01*
X139750000Y-97356250D01*
X139750000Y-96443750D01*
X139751174Y-96419858D01*
X139754684Y-96396197D01*
X139760496Y-96372993D01*
X139768554Y-96350471D01*
X139778782Y-96328847D01*
X139791079Y-96308330D01*
X139805329Y-96289117D01*
X139821393Y-96271393D01*
X139839117Y-96255329D01*
X139858330Y-96241079D01*
X139878847Y-96228782D01*
X139900471Y-96218554D01*
X139922993Y-96210496D01*
X139946197Y-96204684D01*
X139969858Y-96201174D01*
X139993750Y-96200000D01*
X140481250Y-96200000D01*
X140505142Y-96201174D01*
G37*
%TD*%
%TO.C,R12*%
G36*
X138630142Y-111201174D02*
G01*
X138653803Y-111204684D01*
X138677007Y-111210496D01*
X138699529Y-111218554D01*
X138721153Y-111228782D01*
X138741670Y-111241079D01*
X138760883Y-111255329D01*
X138778607Y-111271393D01*
X138794671Y-111289117D01*
X138808921Y-111308330D01*
X138821218Y-111328847D01*
X138831446Y-111350471D01*
X138839504Y-111372993D01*
X138845316Y-111396197D01*
X138848826Y-111419858D01*
X138850000Y-111443750D01*
X138850000Y-112356250D01*
X138848826Y-112380142D01*
X138845316Y-112403803D01*
X138839504Y-112427007D01*
X138831446Y-112449529D01*
X138821218Y-112471153D01*
X138808921Y-112491670D01*
X138794671Y-112510883D01*
X138778607Y-112528607D01*
X138760883Y-112544671D01*
X138741670Y-112558921D01*
X138721153Y-112571218D01*
X138699529Y-112581446D01*
X138677007Y-112589504D01*
X138653803Y-112595316D01*
X138630142Y-112598826D01*
X138606250Y-112600000D01*
X138118750Y-112600000D01*
X138094858Y-112598826D01*
X138071197Y-112595316D01*
X138047993Y-112589504D01*
X138025471Y-112581446D01*
X138003847Y-112571218D01*
X137983330Y-112558921D01*
X137964117Y-112544671D01*
X137946393Y-112528607D01*
X137930329Y-112510883D01*
X137916079Y-112491670D01*
X137903782Y-112471153D01*
X137893554Y-112449529D01*
X137885496Y-112427007D01*
X137879684Y-112403803D01*
X137876174Y-112380142D01*
X137875000Y-112356250D01*
X137875000Y-111443750D01*
X137876174Y-111419858D01*
X137879684Y-111396197D01*
X137885496Y-111372993D01*
X137893554Y-111350471D01*
X137903782Y-111328847D01*
X137916079Y-111308330D01*
X137930329Y-111289117D01*
X137946393Y-111271393D01*
X137964117Y-111255329D01*
X137983330Y-111241079D01*
X138003847Y-111228782D01*
X138025471Y-111218554D01*
X138047993Y-111210496D01*
X138071197Y-111204684D01*
X138094858Y-111201174D01*
X138118750Y-111200000D01*
X138606250Y-111200000D01*
X138630142Y-111201174D01*
G37*
G36*
X140505142Y-111201174D02*
G01*
X140528803Y-111204684D01*
X140552007Y-111210496D01*
X140574529Y-111218554D01*
X140596153Y-111228782D01*
X140616670Y-111241079D01*
X140635883Y-111255329D01*
X140653607Y-111271393D01*
X140669671Y-111289117D01*
X140683921Y-111308330D01*
X140696218Y-111328847D01*
X140706446Y-111350471D01*
X140714504Y-111372993D01*
X140720316Y-111396197D01*
X140723826Y-111419858D01*
X140725000Y-111443750D01*
X140725000Y-112356250D01*
X140723826Y-112380142D01*
X140720316Y-112403803D01*
X140714504Y-112427007D01*
X140706446Y-112449529D01*
X140696218Y-112471153D01*
X140683921Y-112491670D01*
X140669671Y-112510883D01*
X140653607Y-112528607D01*
X140635883Y-112544671D01*
X140616670Y-112558921D01*
X140596153Y-112571218D01*
X140574529Y-112581446D01*
X140552007Y-112589504D01*
X140528803Y-112595316D01*
X140505142Y-112598826D01*
X140481250Y-112600000D01*
X139993750Y-112600000D01*
X139969858Y-112598826D01*
X139946197Y-112595316D01*
X139922993Y-112589504D01*
X139900471Y-112581446D01*
X139878847Y-112571218D01*
X139858330Y-112558921D01*
X139839117Y-112544671D01*
X139821393Y-112528607D01*
X139805329Y-112510883D01*
X139791079Y-112491670D01*
X139778782Y-112471153D01*
X139768554Y-112449529D01*
X139760496Y-112427007D01*
X139754684Y-112403803D01*
X139751174Y-112380142D01*
X139750000Y-112356250D01*
X139750000Y-111443750D01*
X139751174Y-111419858D01*
X139754684Y-111396197D01*
X139760496Y-111372993D01*
X139768554Y-111350471D01*
X139778782Y-111328847D01*
X139791079Y-111308330D01*
X139805329Y-111289117D01*
X139821393Y-111271393D01*
X139839117Y-111255329D01*
X139858330Y-111241079D01*
X139878847Y-111228782D01*
X139900471Y-111218554D01*
X139922993Y-111210496D01*
X139946197Y-111204684D01*
X139969858Y-111201174D01*
X139993750Y-111200000D01*
X140481250Y-111200000D01*
X140505142Y-111201174D01*
G37*
%TD*%
%TO.C,R11*%
G36*
X140505142Y-126201174D02*
G01*
X140528803Y-126204684D01*
X140552007Y-126210496D01*
X140574529Y-126218554D01*
X140596153Y-126228782D01*
X140616670Y-126241079D01*
X140635883Y-126255329D01*
X140653607Y-126271393D01*
X140669671Y-126289117D01*
X140683921Y-126308330D01*
X140696218Y-126328847D01*
X140706446Y-126350471D01*
X140714504Y-126372993D01*
X140720316Y-126396197D01*
X140723826Y-126419858D01*
X140725000Y-126443750D01*
X140725000Y-127356250D01*
X140723826Y-127380142D01*
X140720316Y-127403803D01*
X140714504Y-127427007D01*
X140706446Y-127449529D01*
X140696218Y-127471153D01*
X140683921Y-127491670D01*
X140669671Y-127510883D01*
X140653607Y-127528607D01*
X140635883Y-127544671D01*
X140616670Y-127558921D01*
X140596153Y-127571218D01*
X140574529Y-127581446D01*
X140552007Y-127589504D01*
X140528803Y-127595316D01*
X140505142Y-127598826D01*
X140481250Y-127600000D01*
X139993750Y-127600000D01*
X139969858Y-127598826D01*
X139946197Y-127595316D01*
X139922993Y-127589504D01*
X139900471Y-127581446D01*
X139878847Y-127571218D01*
X139858330Y-127558921D01*
X139839117Y-127544671D01*
X139821393Y-127528607D01*
X139805329Y-127510883D01*
X139791079Y-127491670D01*
X139778782Y-127471153D01*
X139768554Y-127449529D01*
X139760496Y-127427007D01*
X139754684Y-127403803D01*
X139751174Y-127380142D01*
X139750000Y-127356250D01*
X139750000Y-126443750D01*
X139751174Y-126419858D01*
X139754684Y-126396197D01*
X139760496Y-126372993D01*
X139768554Y-126350471D01*
X139778782Y-126328847D01*
X139791079Y-126308330D01*
X139805329Y-126289117D01*
X139821393Y-126271393D01*
X139839117Y-126255329D01*
X139858330Y-126241079D01*
X139878847Y-126228782D01*
X139900471Y-126218554D01*
X139922993Y-126210496D01*
X139946197Y-126204684D01*
X139969858Y-126201174D01*
X139993750Y-126200000D01*
X140481250Y-126200000D01*
X140505142Y-126201174D01*
G37*
G36*
X138630142Y-126201174D02*
G01*
X138653803Y-126204684D01*
X138677007Y-126210496D01*
X138699529Y-126218554D01*
X138721153Y-126228782D01*
X138741670Y-126241079D01*
X138760883Y-126255329D01*
X138778607Y-126271393D01*
X138794671Y-126289117D01*
X138808921Y-126308330D01*
X138821218Y-126328847D01*
X138831446Y-126350471D01*
X138839504Y-126372993D01*
X138845316Y-126396197D01*
X138848826Y-126419858D01*
X138850000Y-126443750D01*
X138850000Y-127356250D01*
X138848826Y-127380142D01*
X138845316Y-127403803D01*
X138839504Y-127427007D01*
X138831446Y-127449529D01*
X138821218Y-127471153D01*
X138808921Y-127491670D01*
X138794671Y-127510883D01*
X138778607Y-127528607D01*
X138760883Y-127544671D01*
X138741670Y-127558921D01*
X138721153Y-127571218D01*
X138699529Y-127581446D01*
X138677007Y-127589504D01*
X138653803Y-127595316D01*
X138630142Y-127598826D01*
X138606250Y-127600000D01*
X138118750Y-127600000D01*
X138094858Y-127598826D01*
X138071197Y-127595316D01*
X138047993Y-127589504D01*
X138025471Y-127581446D01*
X138003847Y-127571218D01*
X137983330Y-127558921D01*
X137964117Y-127544671D01*
X137946393Y-127528607D01*
X137930329Y-127510883D01*
X137916079Y-127491670D01*
X137903782Y-127471153D01*
X137893554Y-127449529D01*
X137885496Y-127427007D01*
X137879684Y-127403803D01*
X137876174Y-127380142D01*
X137875000Y-127356250D01*
X137875000Y-126443750D01*
X137876174Y-126419858D01*
X137879684Y-126396197D01*
X137885496Y-126372993D01*
X137893554Y-126350471D01*
X137903782Y-126328847D01*
X137916079Y-126308330D01*
X137930329Y-126289117D01*
X137946393Y-126271393D01*
X137964117Y-126255329D01*
X137983330Y-126241079D01*
X138003847Y-126228782D01*
X138025471Y-126218554D01*
X138047993Y-126210496D01*
X138071197Y-126204684D01*
X138094858Y-126201174D01*
X138118750Y-126200000D01*
X138606250Y-126200000D01*
X138630142Y-126201174D01*
G37*
%TD*%
M02*
