%TF.GenerationSoftware,KiCad,Pcbnew,(5.1.5)-3*%
%TF.CreationDate,2021-01-11T01:20:26-06:00*%
%TF.ProjectId,BPS-Test,4250532d-5465-4737-942e-6b696361645f,rev?*%
%TF.SameCoordinates,Original*%
%TF.FileFunction,Legend,Top*%
%TF.FilePolarity,Positive*%
%FSLAX46Y46*%
G04 Gerber Fmt 4.6, Leading zero omitted, Abs format (unit mm)*
G04 Created by KiCad (PCBNEW (5.1.5)-3) date 2021-01-11 01:20:26*
%MOMM*%
%LPD*%
G04 APERTURE LIST*
%ADD10C,0.150000*%
%ADD11C,0.120000*%
%ADD12C,0.300000*%
%ADD13C,0.250000*%
%ADD14C,0.100000*%
%ADD15C,0.010000*%
%ADD16C,0.254000*%
G04 APERTURE END LIST*
D10*
X188954761Y-104738095D02*
X189002380Y-104595238D01*
X189002380Y-104357142D01*
X188954761Y-104261904D01*
X188907142Y-104214285D01*
X188811904Y-104166666D01*
X188716666Y-104166666D01*
X188621428Y-104214285D01*
X188573809Y-104261904D01*
X188526190Y-104357142D01*
X188478571Y-104547619D01*
X188430952Y-104642857D01*
X188383333Y-104690476D01*
X188288095Y-104738095D01*
X188192857Y-104738095D01*
X188097619Y-104690476D01*
X188050000Y-104642857D01*
X188002380Y-104547619D01*
X188002380Y-104309523D01*
X188050000Y-104166666D01*
X189002380Y-103595238D02*
X188954761Y-103690476D01*
X188907142Y-103738095D01*
X188811904Y-103785714D01*
X188526190Y-103785714D01*
X188430952Y-103738095D01*
X188383333Y-103690476D01*
X188335714Y-103595238D01*
X188335714Y-103452380D01*
X188383333Y-103357142D01*
X188430952Y-103309523D01*
X188526190Y-103261904D01*
X188811904Y-103261904D01*
X188907142Y-103309523D01*
X188954761Y-103357142D01*
X189002380Y-103452380D01*
X189002380Y-103595238D01*
X189985714Y-105238095D02*
X190652380Y-105047619D01*
X190176190Y-104857142D01*
X190652380Y-104666666D01*
X189985714Y-104476190D01*
X190652380Y-103666666D02*
X190128571Y-103666666D01*
X190033333Y-103714285D01*
X189985714Y-103809523D01*
X189985714Y-104000000D01*
X190033333Y-104095238D01*
X190604761Y-103666666D02*
X190652380Y-103761904D01*
X190652380Y-104000000D01*
X190604761Y-104095238D01*
X190509523Y-104142857D01*
X190414285Y-104142857D01*
X190319047Y-104095238D01*
X190271428Y-104000000D01*
X190271428Y-103761904D01*
X190223809Y-103666666D01*
X190604761Y-103238095D02*
X190652380Y-103142857D01*
X190652380Y-102952380D01*
X190604761Y-102857142D01*
X190509523Y-102809523D01*
X190461904Y-102809523D01*
X190366666Y-102857142D01*
X190319047Y-102952380D01*
X190319047Y-103095238D01*
X190271428Y-103190476D01*
X190176190Y-103238095D01*
X190128571Y-103238095D01*
X190033333Y-103190476D01*
X189985714Y-103095238D01*
X189985714Y-102952380D01*
X190033333Y-102857142D01*
X192302380Y-106547619D02*
X191302380Y-106547619D01*
X191778571Y-106547619D02*
X191778571Y-105976190D01*
X192302380Y-105976190D02*
X191302380Y-105976190D01*
X192302380Y-105071428D02*
X191778571Y-105071428D01*
X191683333Y-105119047D01*
X191635714Y-105214285D01*
X191635714Y-105404761D01*
X191683333Y-105500000D01*
X192254761Y-105071428D02*
X192302380Y-105166666D01*
X192302380Y-105404761D01*
X192254761Y-105500000D01*
X192159523Y-105547619D01*
X192064285Y-105547619D01*
X191969047Y-105500000D01*
X191921428Y-105404761D01*
X191921428Y-105166666D01*
X191873809Y-105071428D01*
X191635714Y-104595238D02*
X192302380Y-104595238D01*
X191730952Y-104595238D02*
X191683333Y-104547619D01*
X191635714Y-104452380D01*
X191635714Y-104309523D01*
X191683333Y-104214285D01*
X191778571Y-104166666D01*
X192302380Y-104166666D01*
X191635714Y-103690476D02*
X192302380Y-103690476D01*
X191730952Y-103690476D02*
X191683333Y-103642857D01*
X191635714Y-103547619D01*
X191635714Y-103404761D01*
X191683333Y-103309523D01*
X191778571Y-103261904D01*
X192302380Y-103261904D01*
X192302380Y-102357142D02*
X191778571Y-102357142D01*
X191683333Y-102404761D01*
X191635714Y-102500000D01*
X191635714Y-102690476D01*
X191683333Y-102785714D01*
X192254761Y-102357142D02*
X192302380Y-102452380D01*
X192302380Y-102690476D01*
X192254761Y-102785714D01*
X192159523Y-102833333D01*
X192064285Y-102833333D01*
X191969047Y-102785714D01*
X191921428Y-102690476D01*
X191921428Y-102452380D01*
X191873809Y-102357142D01*
X192302380Y-101880952D02*
X191302380Y-101880952D01*
X192302380Y-101452380D02*
X191778571Y-101452380D01*
X191683333Y-101500000D01*
X191635714Y-101595238D01*
X191635714Y-101738095D01*
X191683333Y-101833333D01*
X191730952Y-101880952D01*
X188291666Y-82857142D02*
X188291666Y-82380952D01*
X188577380Y-82952380D02*
X187577380Y-82619047D01*
X188577380Y-82285714D01*
X188577380Y-81523809D02*
X188053571Y-81523809D01*
X187958333Y-81571428D01*
X187910714Y-81666666D01*
X187910714Y-81857142D01*
X187958333Y-81952380D01*
X188529761Y-81523809D02*
X188577380Y-81619047D01*
X188577380Y-81857142D01*
X188529761Y-81952380D01*
X188434523Y-82000000D01*
X188339285Y-82000000D01*
X188244047Y-81952380D01*
X188196428Y-81857142D01*
X188196428Y-81619047D01*
X188148809Y-81523809D01*
X188577380Y-81047619D02*
X187910714Y-81047619D01*
X188101190Y-81047619D02*
X188005952Y-81000000D01*
X187958333Y-80952380D01*
X187910714Y-80857142D01*
X187910714Y-80761904D01*
X188577380Y-80285714D02*
X188529761Y-80380952D01*
X188482142Y-80428571D01*
X188386904Y-80476190D01*
X188101190Y-80476190D01*
X188005952Y-80428571D01*
X187958333Y-80380952D01*
X187910714Y-80285714D01*
X187910714Y-80142857D01*
X187958333Y-80047619D01*
X188005952Y-80000000D01*
X188101190Y-79952380D01*
X188386904Y-79952380D01*
X188482142Y-80000000D01*
X188529761Y-80047619D01*
X188577380Y-80142857D01*
X188577380Y-80285714D01*
X187910714Y-79523809D02*
X188577380Y-79523809D01*
X188005952Y-79523809D02*
X187958333Y-79476190D01*
X187910714Y-79380952D01*
X187910714Y-79238095D01*
X187958333Y-79142857D01*
X188053571Y-79095238D01*
X188577380Y-79095238D01*
X188529761Y-78571428D02*
X188577380Y-78571428D01*
X188672619Y-78619047D01*
X188720238Y-78666666D01*
X188053571Y-77380952D02*
X188053571Y-77047619D01*
X188577380Y-76904761D02*
X188577380Y-77380952D01*
X187577380Y-77380952D01*
X187577380Y-76904761D01*
X188577380Y-76333333D02*
X188529761Y-76428571D01*
X188434523Y-76476190D01*
X187577380Y-76476190D01*
X188577380Y-75952380D02*
X187910714Y-75952380D01*
X187577380Y-75952380D02*
X187625000Y-76000000D01*
X187672619Y-75952380D01*
X187625000Y-75904761D01*
X187577380Y-75952380D01*
X187672619Y-75952380D01*
X187910714Y-75476190D02*
X188767857Y-75476190D01*
X188863095Y-75523809D01*
X188910714Y-75619047D01*
X188910714Y-75666666D01*
X187577380Y-75476190D02*
X187625000Y-75523809D01*
X187672619Y-75476190D01*
X187625000Y-75428571D01*
X187577380Y-75476190D01*
X187672619Y-75476190D01*
X188577380Y-74571428D02*
X188053571Y-74571428D01*
X187958333Y-74619047D01*
X187910714Y-74714285D01*
X187910714Y-74904761D01*
X187958333Y-75000000D01*
X188529761Y-74571428D02*
X188577380Y-74666666D01*
X188577380Y-74904761D01*
X188529761Y-75000000D01*
X188434523Y-75047619D01*
X188339285Y-75047619D01*
X188244047Y-75000000D01*
X188196428Y-74904761D01*
X188196428Y-74666666D01*
X188148809Y-74571428D01*
X188577380Y-74095238D02*
X187577380Y-74095238D01*
X188577380Y-73666666D02*
X188053571Y-73666666D01*
X187958333Y-73714285D01*
X187910714Y-73809523D01*
X187910714Y-73952380D01*
X187958333Y-74047619D01*
X188005952Y-74095238D01*
X188529761Y-73142857D02*
X188577380Y-73142857D01*
X188672619Y-73190476D01*
X188720238Y-73238095D01*
X189227380Y-81690476D02*
X189941666Y-81690476D01*
X190084523Y-81738095D01*
X190179761Y-81833333D01*
X190227380Y-81976190D01*
X190227380Y-82071428D01*
X189560714Y-80785714D02*
X190227380Y-80785714D01*
X189560714Y-81214285D02*
X190084523Y-81214285D01*
X190179761Y-81166666D01*
X190227380Y-81071428D01*
X190227380Y-80928571D01*
X190179761Y-80833333D01*
X190132142Y-80785714D01*
X190227380Y-80166666D02*
X190179761Y-80261904D01*
X190084523Y-80309523D01*
X189227380Y-80309523D01*
X190227380Y-79785714D02*
X189560714Y-79785714D01*
X189227380Y-79785714D02*
X189275000Y-79833333D01*
X189322619Y-79785714D01*
X189275000Y-79738095D01*
X189227380Y-79785714D01*
X189322619Y-79785714D01*
X190227380Y-78880952D02*
X189703571Y-78880952D01*
X189608333Y-78928571D01*
X189560714Y-79023809D01*
X189560714Y-79214285D01*
X189608333Y-79309523D01*
X190179761Y-78880952D02*
X190227380Y-78976190D01*
X190227380Y-79214285D01*
X190179761Y-79309523D01*
X190084523Y-79357142D01*
X189989285Y-79357142D01*
X189894047Y-79309523D01*
X189846428Y-79214285D01*
X189846428Y-78976190D01*
X189798809Y-78880952D01*
X189560714Y-78404761D02*
X190227380Y-78404761D01*
X189655952Y-78404761D02*
X189608333Y-78357142D01*
X189560714Y-78261904D01*
X189560714Y-78119047D01*
X189608333Y-78023809D01*
X189703571Y-77976190D01*
X190227380Y-77976190D01*
X190179761Y-77452380D02*
X190227380Y-77452380D01*
X190322619Y-77500000D01*
X190370238Y-77547619D01*
X190227380Y-75833333D02*
X189703571Y-75833333D01*
X189608333Y-75880952D01*
X189560714Y-75976190D01*
X189560714Y-76166666D01*
X189608333Y-76261904D01*
X190179761Y-75833333D02*
X190227380Y-75928571D01*
X190227380Y-76166666D01*
X190179761Y-76261904D01*
X190084523Y-76309523D01*
X189989285Y-76309523D01*
X189894047Y-76261904D01*
X189846428Y-76166666D01*
X189846428Y-75928571D01*
X189798809Y-75833333D01*
X189560714Y-75357142D02*
X190227380Y-75357142D01*
X189655952Y-75357142D02*
X189608333Y-75309523D01*
X189560714Y-75214285D01*
X189560714Y-75071428D01*
X189608333Y-74976190D01*
X189703571Y-74928571D01*
X190227380Y-74928571D01*
X190227380Y-74023809D02*
X189227380Y-74023809D01*
X190179761Y-74023809D02*
X190227380Y-74119047D01*
X190227380Y-74309523D01*
X190179761Y-74404761D01*
X190132142Y-74452380D01*
X190036904Y-74500000D01*
X189751190Y-74500000D01*
X189655952Y-74452380D01*
X189608333Y-74404761D01*
X189560714Y-74309523D01*
X189560714Y-74119047D01*
X189608333Y-74023809D01*
X191829761Y-82404761D02*
X191877380Y-82261904D01*
X191877380Y-82023809D01*
X191829761Y-81928571D01*
X191782142Y-81880952D01*
X191686904Y-81833333D01*
X191591666Y-81833333D01*
X191496428Y-81880952D01*
X191448809Y-81928571D01*
X191401190Y-82023809D01*
X191353571Y-82214285D01*
X191305952Y-82309523D01*
X191258333Y-82357142D01*
X191163095Y-82404761D01*
X191067857Y-82404761D01*
X190972619Y-82357142D01*
X190925000Y-82309523D01*
X190877380Y-82214285D01*
X190877380Y-81976190D01*
X190925000Y-81833333D01*
X191877380Y-81404761D02*
X191210714Y-81404761D01*
X190877380Y-81404761D02*
X190925000Y-81452380D01*
X190972619Y-81404761D01*
X190925000Y-81357142D01*
X190877380Y-81404761D01*
X190972619Y-81404761D01*
X191877380Y-80785714D02*
X191829761Y-80880952D01*
X191782142Y-80928571D01*
X191686904Y-80976190D01*
X191401190Y-80976190D01*
X191305952Y-80928571D01*
X191258333Y-80880952D01*
X191210714Y-80785714D01*
X191210714Y-80642857D01*
X191258333Y-80547619D01*
X191305952Y-80500000D01*
X191401190Y-80452380D01*
X191686904Y-80452380D01*
X191782142Y-80500000D01*
X191829761Y-80547619D01*
X191877380Y-80642857D01*
X191877380Y-80785714D01*
X191877380Y-80023809D02*
X190877380Y-80023809D01*
X191877380Y-79595238D02*
X191353571Y-79595238D01*
X191258333Y-79642857D01*
X191210714Y-79738095D01*
X191210714Y-79880952D01*
X191258333Y-79976190D01*
X191305952Y-80023809D01*
X191877380Y-78690476D02*
X191353571Y-78690476D01*
X191258333Y-78738095D01*
X191210714Y-78833333D01*
X191210714Y-79023809D01*
X191258333Y-79119047D01*
X191829761Y-78690476D02*
X191877380Y-78785714D01*
X191877380Y-79023809D01*
X191829761Y-79119047D01*
X191734523Y-79166666D01*
X191639285Y-79166666D01*
X191544047Y-79119047D01*
X191496428Y-79023809D01*
X191496428Y-78785714D01*
X191448809Y-78690476D01*
X191210714Y-78214285D02*
X191877380Y-78214285D01*
X191305952Y-78214285D02*
X191258333Y-78166666D01*
X191210714Y-78071428D01*
X191210714Y-77928571D01*
X191258333Y-77833333D01*
X191353571Y-77785714D01*
X191877380Y-77785714D01*
X191210714Y-76642857D02*
X191877380Y-76452380D01*
X191401190Y-76261904D01*
X191877380Y-76071428D01*
X191210714Y-75880952D01*
X191829761Y-75119047D02*
X191877380Y-75214285D01*
X191877380Y-75404761D01*
X191829761Y-75500000D01*
X191734523Y-75547619D01*
X191353571Y-75547619D01*
X191258333Y-75500000D01*
X191210714Y-75404761D01*
X191210714Y-75214285D01*
X191258333Y-75119047D01*
X191353571Y-75071428D01*
X191448809Y-75071428D01*
X191544047Y-75547619D01*
X191877380Y-74642857D02*
X191210714Y-74642857D01*
X191401190Y-74642857D02*
X191305952Y-74595238D01*
X191258333Y-74547619D01*
X191210714Y-74452380D01*
X191210714Y-74357142D01*
X191829761Y-73642857D02*
X191877380Y-73738095D01*
X191877380Y-73928571D01*
X191829761Y-74023809D01*
X191734523Y-74071428D01*
X191353571Y-74071428D01*
X191258333Y-74023809D01*
X191210714Y-73928571D01*
X191210714Y-73738095D01*
X191258333Y-73642857D01*
X191353571Y-73595238D01*
X191448809Y-73595238D01*
X191544047Y-74071428D01*
X193527380Y-79380952D02*
X192527380Y-79380952D01*
X193527380Y-78952380D02*
X193003571Y-78952380D01*
X192908333Y-79000000D01*
X192860714Y-79095238D01*
X192860714Y-79238095D01*
X192908333Y-79333333D01*
X192955952Y-79380952D01*
X193479761Y-78095238D02*
X193527380Y-78190476D01*
X193527380Y-78380952D01*
X193479761Y-78476190D01*
X193384523Y-78523809D01*
X193003571Y-78523809D01*
X192908333Y-78476190D01*
X192860714Y-78380952D01*
X192860714Y-78190476D01*
X192908333Y-78095238D01*
X193003571Y-78047619D01*
X193098809Y-78047619D01*
X193194047Y-78523809D01*
X193527380Y-77619047D02*
X192860714Y-77619047D01*
X193051190Y-77619047D02*
X192955952Y-77571428D01*
X192908333Y-77523809D01*
X192860714Y-77428571D01*
X192860714Y-77333333D01*
X193479761Y-76619047D02*
X193527380Y-76714285D01*
X193527380Y-76904761D01*
X193479761Y-77000000D01*
X193384523Y-77047619D01*
X193003571Y-77047619D01*
X192908333Y-77000000D01*
X192860714Y-76904761D01*
X192860714Y-76714285D01*
X192908333Y-76619047D01*
X193003571Y-76571428D01*
X193098809Y-76571428D01*
X193194047Y-77047619D01*
X184652380Y-69685714D02*
X183652380Y-69685714D01*
X184652380Y-69114285D01*
X183652380Y-69114285D01*
X184557142Y-68066666D02*
X184604761Y-68114285D01*
X184652380Y-68257142D01*
X184652380Y-68352380D01*
X184604761Y-68495238D01*
X184509523Y-68590476D01*
X184414285Y-68638095D01*
X184223809Y-68685714D01*
X184080952Y-68685714D01*
X183890476Y-68638095D01*
X183795238Y-68590476D01*
X183700000Y-68495238D01*
X183652380Y-68352380D01*
X183652380Y-68257142D01*
X183700000Y-68114285D01*
X183747619Y-68066666D01*
X184652380Y-72785714D02*
X183652380Y-72785714D01*
X184652380Y-72214285D01*
X183652380Y-72214285D01*
X184557142Y-71166666D02*
X184604761Y-71214285D01*
X184652380Y-71357142D01*
X184652380Y-71452380D01*
X184604761Y-71595238D01*
X184509523Y-71690476D01*
X184414285Y-71738095D01*
X184223809Y-71785714D01*
X184080952Y-71785714D01*
X183890476Y-71738095D01*
X183795238Y-71690476D01*
X183700000Y-71595238D01*
X183652380Y-71452380D01*
X183652380Y-71357142D01*
X183700000Y-71214285D01*
X183747619Y-71166666D01*
X184652380Y-75190476D02*
X184652380Y-75761904D01*
X184652380Y-75476190D02*
X183652380Y-75476190D01*
X183795238Y-75571428D01*
X183890476Y-75666666D01*
X183938095Y-75761904D01*
X184652380Y-74238095D02*
X184652380Y-74809523D01*
X184652380Y-74523809D02*
X183652380Y-74523809D01*
X183795238Y-74619047D01*
X183890476Y-74714285D01*
X183938095Y-74809523D01*
X184652380Y-78190476D02*
X184652380Y-78761904D01*
X184652380Y-78476190D02*
X183652380Y-78476190D01*
X183795238Y-78571428D01*
X183890476Y-78666666D01*
X183938095Y-78761904D01*
X183652380Y-77571428D02*
X183652380Y-77476190D01*
X183700000Y-77380952D01*
X183747619Y-77333333D01*
X183842857Y-77285714D01*
X184033333Y-77238095D01*
X184271428Y-77238095D01*
X184461904Y-77285714D01*
X184557142Y-77333333D01*
X184604761Y-77380952D01*
X184652380Y-77476190D01*
X184652380Y-77571428D01*
X184604761Y-77666666D01*
X184557142Y-77714285D01*
X184461904Y-77761904D01*
X184271428Y-77809523D01*
X184033333Y-77809523D01*
X183842857Y-77761904D01*
X183747619Y-77714285D01*
X183700000Y-77666666D01*
X183652380Y-77571428D01*
X184652380Y-81190476D02*
X184652380Y-81000000D01*
X184604761Y-80904761D01*
X184557142Y-80857142D01*
X184414285Y-80761904D01*
X184223809Y-80714285D01*
X183842857Y-80714285D01*
X183747619Y-80761904D01*
X183700000Y-80809523D01*
X183652380Y-80904761D01*
X183652380Y-81095238D01*
X183700000Y-81190476D01*
X183747619Y-81238095D01*
X183842857Y-81285714D01*
X184080952Y-81285714D01*
X184176190Y-81238095D01*
X184223809Y-81190476D01*
X184271428Y-81095238D01*
X184271428Y-80904761D01*
X184223809Y-80809523D01*
X184176190Y-80761904D01*
X184080952Y-80714285D01*
X184080952Y-84095238D02*
X184033333Y-84190476D01*
X183985714Y-84238095D01*
X183890476Y-84285714D01*
X183842857Y-84285714D01*
X183747619Y-84238095D01*
X183700000Y-84190476D01*
X183652380Y-84095238D01*
X183652380Y-83904761D01*
X183700000Y-83809523D01*
X183747619Y-83761904D01*
X183842857Y-83714285D01*
X183890476Y-83714285D01*
X183985714Y-83761904D01*
X184033333Y-83809523D01*
X184080952Y-83904761D01*
X184080952Y-84095238D01*
X184128571Y-84190476D01*
X184176190Y-84238095D01*
X184271428Y-84285714D01*
X184461904Y-84285714D01*
X184557142Y-84238095D01*
X184604761Y-84190476D01*
X184652380Y-84095238D01*
X184652380Y-83904761D01*
X184604761Y-83809523D01*
X184557142Y-83761904D01*
X184461904Y-83714285D01*
X184271428Y-83714285D01*
X184176190Y-83761904D01*
X184128571Y-83809523D01*
X184080952Y-83904761D01*
X183652380Y-87333333D02*
X183652380Y-86666666D01*
X184652380Y-87095238D01*
X183652380Y-94809523D02*
X183652380Y-95000000D01*
X183700000Y-95095238D01*
X183747619Y-95142857D01*
X183890476Y-95238095D01*
X184080952Y-95285714D01*
X184461904Y-95285714D01*
X184557142Y-95238095D01*
X184604761Y-95190476D01*
X184652380Y-95095238D01*
X184652380Y-94904761D01*
X184604761Y-94809523D01*
X184557142Y-94761904D01*
X184461904Y-94714285D01*
X184223809Y-94714285D01*
X184128571Y-94761904D01*
X184080952Y-94809523D01*
X184033333Y-94904761D01*
X184033333Y-95095238D01*
X184080952Y-95190476D01*
X184128571Y-95238095D01*
X184223809Y-95285714D01*
X183652380Y-97761904D02*
X183652380Y-98238095D01*
X184128571Y-98285714D01*
X184080952Y-98238095D01*
X184033333Y-98142857D01*
X184033333Y-97904761D01*
X184080952Y-97809523D01*
X184128571Y-97761904D01*
X184223809Y-97714285D01*
X184461904Y-97714285D01*
X184557142Y-97761904D01*
X184604761Y-97809523D01*
X184652380Y-97904761D01*
X184652380Y-98142857D01*
X184604761Y-98238095D01*
X184557142Y-98285714D01*
X183985714Y-100809523D02*
X184652380Y-100809523D01*
X183604761Y-101047619D02*
X184319047Y-101285714D01*
X184319047Y-100666666D01*
X183652380Y-104333333D02*
X183652380Y-103714285D01*
X184033333Y-104047619D01*
X184033333Y-103904761D01*
X184080952Y-103809523D01*
X184128571Y-103761904D01*
X184223809Y-103714285D01*
X184461904Y-103714285D01*
X184557142Y-103761904D01*
X184604761Y-103809523D01*
X184652380Y-103904761D01*
X184652380Y-104190476D01*
X184604761Y-104285714D01*
X184557142Y-104333333D01*
X183747619Y-107285714D02*
X183700000Y-107238095D01*
X183652380Y-107142857D01*
X183652380Y-106904761D01*
X183700000Y-106809523D01*
X183747619Y-106761904D01*
X183842857Y-106714285D01*
X183938095Y-106714285D01*
X184080952Y-106761904D01*
X184652380Y-107333333D01*
X184652380Y-106714285D01*
X184652380Y-109714285D02*
X184652380Y-110285714D01*
X184652380Y-110000000D02*
X183652380Y-110000000D01*
X183795238Y-110095238D01*
X183890476Y-110190476D01*
X183938095Y-110285714D01*
X183700000Y-113761904D02*
X183652380Y-113857142D01*
X183652380Y-114000000D01*
X183700000Y-114142857D01*
X183795238Y-114238095D01*
X183890476Y-114285714D01*
X184080952Y-114333333D01*
X184223809Y-114333333D01*
X184414285Y-114285714D01*
X184509523Y-114238095D01*
X184604761Y-114142857D01*
X184652380Y-114000000D01*
X184652380Y-113904761D01*
X184604761Y-113761904D01*
X184557142Y-113714285D01*
X184223809Y-113714285D01*
X184223809Y-113904761D01*
X184652380Y-113285714D02*
X183652380Y-113285714D01*
X184652380Y-112714285D01*
X183652380Y-112714285D01*
X184652380Y-112238095D02*
X183652380Y-112238095D01*
X183652380Y-112000000D01*
X183700000Y-111857142D01*
X183795238Y-111761904D01*
X183890476Y-111714285D01*
X184080952Y-111666666D01*
X184223809Y-111666666D01*
X184414285Y-111714285D01*
X184509523Y-111761904D01*
X184604761Y-111857142D01*
X184652380Y-112000000D01*
X184652380Y-112238095D01*
D11*
X139000000Y-62800000D02*
X167500000Y-62800000D01*
X139000000Y-70000000D02*
X139000000Y-44000000D01*
X103000000Y-70000000D02*
X139000000Y-70000000D01*
D12*
X129285714Y-73060714D02*
X129214285Y-73132142D01*
X129000000Y-73203571D01*
X128857142Y-73203571D01*
X128642857Y-73132142D01*
X128500000Y-72989285D01*
X128428571Y-72846428D01*
X128357142Y-72560714D01*
X128357142Y-72346428D01*
X128428571Y-72060714D01*
X128500000Y-71917857D01*
X128642857Y-71775000D01*
X128857142Y-71703571D01*
X129000000Y-71703571D01*
X129214285Y-71775000D01*
X129285714Y-71846428D01*
X130142857Y-73203571D02*
X130000000Y-73132142D01*
X129928571Y-73060714D01*
X129857142Y-72917857D01*
X129857142Y-72489285D01*
X129928571Y-72346428D01*
X130000000Y-72275000D01*
X130142857Y-72203571D01*
X130357142Y-72203571D01*
X130500000Y-72275000D01*
X130571428Y-72346428D01*
X130642857Y-72489285D01*
X130642857Y-72917857D01*
X130571428Y-73060714D01*
X130500000Y-73132142D01*
X130357142Y-73203571D01*
X130142857Y-73203571D01*
X131285714Y-72203571D02*
X131285714Y-73203571D01*
X131285714Y-72346428D02*
X131357142Y-72275000D01*
X131500000Y-72203571D01*
X131714285Y-72203571D01*
X131857142Y-72275000D01*
X131928571Y-72417857D01*
X131928571Y-73203571D01*
X132571428Y-73132142D02*
X132714285Y-73203571D01*
X133000000Y-73203571D01*
X133142857Y-73132142D01*
X133214285Y-72989285D01*
X133214285Y-72917857D01*
X133142857Y-72775000D01*
X133000000Y-72703571D01*
X132785714Y-72703571D01*
X132642857Y-72632142D01*
X132571428Y-72489285D01*
X132571428Y-72417857D01*
X132642857Y-72275000D01*
X132785714Y-72203571D01*
X133000000Y-72203571D01*
X133142857Y-72275000D01*
X133642857Y-72203571D02*
X134214285Y-72203571D01*
X133857142Y-71703571D02*
X133857142Y-72989285D01*
X133928571Y-73132142D01*
X134071428Y-73203571D01*
X134214285Y-73203571D01*
X135357142Y-73203571D02*
X135357142Y-72417857D01*
X135285714Y-72275000D01*
X135142857Y-72203571D01*
X134857142Y-72203571D01*
X134714285Y-72275000D01*
X135357142Y-73132142D02*
X135214285Y-73203571D01*
X134857142Y-73203571D01*
X134714285Y-73132142D01*
X134642857Y-72989285D01*
X134642857Y-72846428D01*
X134714285Y-72703571D01*
X134857142Y-72632142D01*
X135214285Y-72632142D01*
X135357142Y-72560714D01*
X136071428Y-72203571D02*
X136071428Y-73203571D01*
X136071428Y-72346428D02*
X136142857Y-72275000D01*
X136285714Y-72203571D01*
X136500000Y-72203571D01*
X136642857Y-72275000D01*
X136714285Y-72417857D01*
X136714285Y-73203571D01*
X137214285Y-72203571D02*
X137785714Y-72203571D01*
X137428571Y-71703571D02*
X137428571Y-72989285D01*
X137500000Y-73132142D01*
X137642857Y-73203571D01*
X137785714Y-73203571D01*
X128285714Y-75610714D02*
X128214285Y-75682142D01*
X128000000Y-75753571D01*
X127857142Y-75753571D01*
X127642857Y-75682142D01*
X127500000Y-75539285D01*
X127428571Y-75396428D01*
X127357142Y-75110714D01*
X127357142Y-74896428D01*
X127428571Y-74610714D01*
X127500000Y-74467857D01*
X127642857Y-74325000D01*
X127857142Y-74253571D01*
X128000000Y-74253571D01*
X128214285Y-74325000D01*
X128285714Y-74396428D01*
X129142857Y-75753571D02*
X129000000Y-75682142D01*
X128928571Y-75610714D01*
X128857142Y-75467857D01*
X128857142Y-75039285D01*
X128928571Y-74896428D01*
X129000000Y-74825000D01*
X129142857Y-74753571D01*
X129357142Y-74753571D01*
X129500000Y-74825000D01*
X129571428Y-74896428D01*
X129642857Y-75039285D01*
X129642857Y-75467857D01*
X129571428Y-75610714D01*
X129500000Y-75682142D01*
X129357142Y-75753571D01*
X129142857Y-75753571D01*
X130285714Y-74753571D02*
X130285714Y-75753571D01*
X130285714Y-74896428D02*
X130357142Y-74825000D01*
X130500000Y-74753571D01*
X130714285Y-74753571D01*
X130857142Y-74825000D01*
X130928571Y-74967857D01*
X130928571Y-75753571D01*
X131500000Y-74753571D02*
X131857142Y-75753571D01*
X132214285Y-74753571D01*
X133357142Y-75682142D02*
X133214285Y-75753571D01*
X132928571Y-75753571D01*
X132785714Y-75682142D01*
X132714285Y-75539285D01*
X132714285Y-74967857D01*
X132785714Y-74825000D01*
X132928571Y-74753571D01*
X133214285Y-74753571D01*
X133357142Y-74825000D01*
X133428571Y-74967857D01*
X133428571Y-75110714D01*
X132714285Y-75253571D01*
X134071428Y-75753571D02*
X134071428Y-74753571D01*
X134071428Y-75039285D02*
X134142857Y-74896428D01*
X134214285Y-74825000D01*
X134357142Y-74753571D01*
X134500000Y-74753571D01*
X134785714Y-74753571D02*
X135357142Y-74753571D01*
X135000000Y-74253571D02*
X135000000Y-75539285D01*
X135071428Y-75682142D01*
X135214285Y-75753571D01*
X135357142Y-75753571D01*
X136428571Y-75682142D02*
X136285714Y-75753571D01*
X136000000Y-75753571D01*
X135857142Y-75682142D01*
X135785714Y-75539285D01*
X135785714Y-74967857D01*
X135857142Y-74825000D01*
X136000000Y-74753571D01*
X136285714Y-74753571D01*
X136428571Y-74825000D01*
X136500000Y-74967857D01*
X136500000Y-75110714D01*
X135785714Y-75253571D01*
X137142857Y-75753571D02*
X137142857Y-74753571D01*
X137142857Y-75039285D02*
X137214285Y-74896428D01*
X137285714Y-74825000D01*
X137428571Y-74753571D01*
X137571428Y-74753571D01*
X138000000Y-75682142D02*
X138142857Y-75753571D01*
X138428571Y-75753571D01*
X138571428Y-75682142D01*
X138642857Y-75539285D01*
X138642857Y-75467857D01*
X138571428Y-75325000D01*
X138428571Y-75253571D01*
X138214285Y-75253571D01*
X138071428Y-75182142D01*
X138000000Y-75039285D01*
X138000000Y-74967857D01*
X138071428Y-74825000D01*
X138214285Y-74753571D01*
X138428571Y-74753571D01*
X138571428Y-74825000D01*
D10*
X134338095Y-135600000D02*
X134242857Y-135552380D01*
X134100000Y-135552380D01*
X133957142Y-135600000D01*
X133861904Y-135695238D01*
X133814285Y-135790476D01*
X133766666Y-135980952D01*
X133766666Y-136123809D01*
X133814285Y-136314285D01*
X133861904Y-136409523D01*
X133957142Y-136504761D01*
X134100000Y-136552380D01*
X134195238Y-136552380D01*
X134338095Y-136504761D01*
X134385714Y-136457142D01*
X134385714Y-136123809D01*
X134195238Y-136123809D01*
X134814285Y-136552380D02*
X134814285Y-135552380D01*
X135385714Y-136552380D01*
X135385714Y-135552380D01*
X135861904Y-136552380D02*
X135861904Y-135552380D01*
X136100000Y-135552380D01*
X136242857Y-135600000D01*
X136338095Y-135695238D01*
X136385714Y-135790476D01*
X136433333Y-135980952D01*
X136433333Y-136123809D01*
X136385714Y-136314285D01*
X136338095Y-136409523D01*
X136242857Y-136504761D01*
X136100000Y-136552380D01*
X135861904Y-136552380D01*
X133576190Y-125252380D02*
X133909523Y-126252380D01*
X134242857Y-125252380D01*
X134719047Y-126252380D02*
X134623809Y-126204761D01*
X134576190Y-126157142D01*
X134528571Y-126061904D01*
X134528571Y-125776190D01*
X134576190Y-125680952D01*
X134623809Y-125633333D01*
X134719047Y-125585714D01*
X134861904Y-125585714D01*
X134957142Y-125633333D01*
X135004761Y-125680952D01*
X135052380Y-125776190D01*
X135052380Y-126061904D01*
X135004761Y-126157142D01*
X134957142Y-126204761D01*
X134861904Y-126252380D01*
X134719047Y-126252380D01*
X135909523Y-125585714D02*
X135909523Y-126252380D01*
X135480952Y-125585714D02*
X135480952Y-126109523D01*
X135528571Y-126204761D01*
X135623809Y-126252380D01*
X135766666Y-126252380D01*
X135861904Y-126204761D01*
X135909523Y-126157142D01*
X136242857Y-125585714D02*
X136623809Y-125585714D01*
X136385714Y-125252380D02*
X136385714Y-126109523D01*
X136433333Y-126204761D01*
X136528571Y-126252380D01*
X136623809Y-126252380D01*
D11*
X126000000Y-70000000D02*
X126000000Y-138000000D01*
D12*
X105207142Y-117571428D02*
X105207142Y-116428571D01*
X105778571Y-117000000D02*
X104635714Y-117000000D01*
X105671428Y-119392857D02*
X104528571Y-119392857D01*
D10*
X110976190Y-112552380D02*
X111309523Y-113552380D01*
X111642857Y-112552380D01*
X112119047Y-113552380D02*
X112023809Y-113504761D01*
X111976190Y-113457142D01*
X111928571Y-113361904D01*
X111928571Y-113076190D01*
X111976190Y-112980952D01*
X112023809Y-112933333D01*
X112119047Y-112885714D01*
X112261904Y-112885714D01*
X112357142Y-112933333D01*
X112404761Y-112980952D01*
X112452380Y-113076190D01*
X112452380Y-113361904D01*
X112404761Y-113457142D01*
X112357142Y-113504761D01*
X112261904Y-113552380D01*
X112119047Y-113552380D01*
X113309523Y-112885714D02*
X113309523Y-113552380D01*
X112880952Y-112885714D02*
X112880952Y-113409523D01*
X112928571Y-113504761D01*
X113023809Y-113552380D01*
X113166666Y-113552380D01*
X113261904Y-113504761D01*
X113309523Y-113457142D01*
X113642857Y-112885714D02*
X114023809Y-112885714D01*
X113785714Y-112552380D02*
X113785714Y-113409523D01*
X113833333Y-113504761D01*
X113928571Y-113552380D01*
X114023809Y-113552380D01*
X111738095Y-122800000D02*
X111642857Y-122752380D01*
X111500000Y-122752380D01*
X111357142Y-122800000D01*
X111261904Y-122895238D01*
X111214285Y-122990476D01*
X111166666Y-123180952D01*
X111166666Y-123323809D01*
X111214285Y-123514285D01*
X111261904Y-123609523D01*
X111357142Y-123704761D01*
X111500000Y-123752380D01*
X111595238Y-123752380D01*
X111738095Y-123704761D01*
X111785714Y-123657142D01*
X111785714Y-123323809D01*
X111595238Y-123323809D01*
X112214285Y-123752380D02*
X112214285Y-122752380D01*
X112785714Y-123752380D01*
X112785714Y-122752380D01*
X113261904Y-123752380D02*
X113261904Y-122752380D01*
X113500000Y-122752380D01*
X113642857Y-122800000D01*
X113738095Y-122895238D01*
X113785714Y-122990476D01*
X113833333Y-123180952D01*
X113833333Y-123323809D01*
X113785714Y-123514285D01*
X113738095Y-123609523D01*
X113642857Y-123704761D01*
X113500000Y-123752380D01*
X113261904Y-123752380D01*
D13*
X167500000Y-44000000D02*
X167500000Y-138000000D01*
D12*
X170228571Y-132507142D02*
X171371428Y-132507142D01*
X170800000Y-133078571D02*
X170800000Y-131935714D01*
X170228571Y-124507142D02*
X171371428Y-124507142D01*
X170800000Y-125078571D02*
X170800000Y-123935714D01*
X170228571Y-116507142D02*
X171371428Y-116507142D01*
X170800000Y-117078571D02*
X170800000Y-115935714D01*
X170228571Y-108507142D02*
X171371428Y-108507142D01*
X170800000Y-109078571D02*
X170800000Y-107935714D01*
X170228571Y-100507142D02*
X171371428Y-100507142D01*
X170800000Y-101078571D02*
X170800000Y-99935714D01*
X170228571Y-92507142D02*
X171371428Y-92507142D01*
X170800000Y-93078571D02*
X170800000Y-91935714D01*
X170228571Y-84507142D02*
X171371428Y-84507142D01*
X170800000Y-85078571D02*
X170800000Y-83935714D01*
X170228571Y-76507142D02*
X171371428Y-76507142D01*
X170800000Y-77078571D02*
X170800000Y-75935714D01*
X170228571Y-68507142D02*
X171371428Y-68507142D01*
X170800000Y-69078571D02*
X170800000Y-67935714D01*
X170228571Y-60507142D02*
X171371428Y-60507142D01*
X170800000Y-61078571D02*
X170800000Y-59935714D01*
X170228571Y-52507142D02*
X171371428Y-52507142D01*
X170800000Y-53078571D02*
X170800000Y-51935714D01*
X170228571Y-135007142D02*
X171371428Y-135007142D01*
X170228571Y-127007142D02*
X171371428Y-127007142D01*
X170228571Y-119007142D02*
X171371428Y-119007142D01*
X170228571Y-111007142D02*
X171371428Y-111007142D01*
X170228571Y-103007142D02*
X171371428Y-103007142D01*
X170228571Y-95007142D02*
X171371428Y-95007142D01*
X170228571Y-87007142D02*
X171371428Y-87007142D01*
X170228571Y-79007142D02*
X171371428Y-79007142D01*
X170228571Y-71007142D02*
X171371428Y-71007142D01*
X170228571Y-63007142D02*
X171371428Y-63007142D01*
X170228571Y-55007142D02*
X171371428Y-55007142D01*
D13*
X160464285Y-52721428D02*
X160464285Y-51507142D01*
X160392857Y-51364285D01*
X160321428Y-51292857D01*
X160178571Y-51221428D01*
X159892857Y-51221428D01*
X159750000Y-51292857D01*
X159678571Y-51364285D01*
X159607142Y-51507142D01*
X159607142Y-52721428D01*
X159107142Y-52721428D02*
X158250000Y-52721428D01*
X158678571Y-51221428D02*
X158678571Y-52721428D01*
X157821428Y-51292857D02*
X157607142Y-51221428D01*
X157250000Y-51221428D01*
X157107142Y-51292857D01*
X157035714Y-51364285D01*
X156964285Y-51507142D01*
X156964285Y-51650000D01*
X157035714Y-51792857D01*
X157107142Y-51864285D01*
X157250000Y-51935714D01*
X157535714Y-52007142D01*
X157678571Y-52078571D01*
X157750000Y-52150000D01*
X157821428Y-52292857D01*
X157821428Y-52435714D01*
X157750000Y-52578571D01*
X157678571Y-52650000D01*
X157535714Y-52721428D01*
X157178571Y-52721428D01*
X156964285Y-52650000D01*
X156535714Y-52721428D02*
X156035714Y-51221428D01*
X155535714Y-52721428D01*
X155250000Y-52721428D02*
X154392857Y-52721428D01*
X154821428Y-51221428D02*
X154821428Y-52721428D01*
X152750000Y-51792857D02*
X151607142Y-51792857D01*
X149250000Y-52007142D02*
X149035714Y-51935714D01*
X148964285Y-51864285D01*
X148892857Y-51721428D01*
X148892857Y-51507142D01*
X148964285Y-51364285D01*
X149035714Y-51292857D01*
X149178571Y-51221428D01*
X149750000Y-51221428D01*
X149750000Y-52721428D01*
X149250000Y-52721428D01*
X149107142Y-52650000D01*
X149035714Y-52578571D01*
X148964285Y-52435714D01*
X148964285Y-52292857D01*
X149035714Y-52150000D01*
X149107142Y-52078571D01*
X149250000Y-52007142D01*
X149750000Y-52007142D01*
X148250000Y-51221428D02*
X148250000Y-52721428D01*
X147678571Y-52721428D01*
X147535714Y-52650000D01*
X147464285Y-52578571D01*
X147392857Y-52435714D01*
X147392857Y-52221428D01*
X147464285Y-52078571D01*
X147535714Y-52007142D01*
X147678571Y-51935714D01*
X148250000Y-51935714D01*
X146821428Y-51292857D02*
X146607142Y-51221428D01*
X146250000Y-51221428D01*
X146107142Y-51292857D01*
X146035714Y-51364285D01*
X145964285Y-51507142D01*
X145964285Y-51650000D01*
X146035714Y-51792857D01*
X146107142Y-51864285D01*
X146250000Y-51935714D01*
X146535714Y-52007142D01*
X146678571Y-52078571D01*
X146750000Y-52150000D01*
X146821428Y-52292857D01*
X146821428Y-52435714D01*
X146750000Y-52578571D01*
X146678571Y-52650000D01*
X146535714Y-52721428D01*
X146178571Y-52721428D01*
X145964285Y-52650000D01*
X162107142Y-50221428D02*
X161250000Y-50221428D01*
X161678571Y-48721428D02*
X161678571Y-50221428D01*
X160178571Y-48792857D02*
X160321428Y-48721428D01*
X160607142Y-48721428D01*
X160750000Y-48792857D01*
X160821428Y-48935714D01*
X160821428Y-49507142D01*
X160750000Y-49650000D01*
X160607142Y-49721428D01*
X160321428Y-49721428D01*
X160178571Y-49650000D01*
X160107142Y-49507142D01*
X160107142Y-49364285D01*
X160821428Y-49221428D01*
X159535714Y-48792857D02*
X159392857Y-48721428D01*
X159107142Y-48721428D01*
X158964285Y-48792857D01*
X158892857Y-48935714D01*
X158892857Y-49007142D01*
X158964285Y-49150000D01*
X159107142Y-49221428D01*
X159321428Y-49221428D01*
X159464285Y-49292857D01*
X159535714Y-49435714D01*
X159535714Y-49507142D01*
X159464285Y-49650000D01*
X159321428Y-49721428D01*
X159107142Y-49721428D01*
X158964285Y-49650000D01*
X158464285Y-49721428D02*
X157892857Y-49721428D01*
X158250000Y-50221428D02*
X158250000Y-48935714D01*
X158178571Y-48792857D01*
X158035714Y-48721428D01*
X157892857Y-48721428D01*
X155750000Y-49507142D02*
X155535714Y-49435714D01*
X155464285Y-49364285D01*
X155392857Y-49221428D01*
X155392857Y-49007142D01*
X155464285Y-48864285D01*
X155535714Y-48792857D01*
X155678571Y-48721428D01*
X156250000Y-48721428D01*
X156250000Y-50221428D01*
X155750000Y-50221428D01*
X155607142Y-50150000D01*
X155535714Y-50078571D01*
X155464285Y-49935714D01*
X155464285Y-49792857D01*
X155535714Y-49650000D01*
X155607142Y-49578571D01*
X155750000Y-49507142D01*
X156250000Y-49507142D01*
X154535714Y-48721428D02*
X154678571Y-48792857D01*
X154750000Y-48864285D01*
X154821428Y-49007142D01*
X154821428Y-49435714D01*
X154750000Y-49578571D01*
X154678571Y-49650000D01*
X154535714Y-49721428D01*
X154321428Y-49721428D01*
X154178571Y-49650000D01*
X154107142Y-49578571D01*
X154035714Y-49435714D01*
X154035714Y-49007142D01*
X154107142Y-48864285D01*
X154178571Y-48792857D01*
X154321428Y-48721428D01*
X154535714Y-48721428D01*
X152750000Y-48721428D02*
X152750000Y-49507142D01*
X152821428Y-49650000D01*
X152964285Y-49721428D01*
X153250000Y-49721428D01*
X153392857Y-49650000D01*
X152750000Y-48792857D02*
X152892857Y-48721428D01*
X153250000Y-48721428D01*
X153392857Y-48792857D01*
X153464285Y-48935714D01*
X153464285Y-49078571D01*
X153392857Y-49221428D01*
X153250000Y-49292857D01*
X152892857Y-49292857D01*
X152750000Y-49364285D01*
X152035714Y-48721428D02*
X152035714Y-49721428D01*
X152035714Y-49435714D02*
X151964285Y-49578571D01*
X151892857Y-49650000D01*
X151750000Y-49721428D01*
X151607142Y-49721428D01*
X150464285Y-48721428D02*
X150464285Y-50221428D01*
X150464285Y-48792857D02*
X150607142Y-48721428D01*
X150892857Y-48721428D01*
X151035714Y-48792857D01*
X151107142Y-48864285D01*
X151178571Y-49007142D01*
X151178571Y-49435714D01*
X151107142Y-49578571D01*
X151035714Y-49650000D01*
X150892857Y-49721428D01*
X150607142Y-49721428D01*
X150464285Y-49650000D01*
X148750000Y-49721428D02*
X148392857Y-48721428D01*
X148035714Y-49721428D01*
X147535714Y-50078571D02*
X147464285Y-50150000D01*
X147321428Y-50221428D01*
X146964285Y-50221428D01*
X146821428Y-50150000D01*
X146750000Y-50078571D01*
X146678571Y-49935714D01*
X146678571Y-49792857D01*
X146750000Y-49578571D01*
X147607142Y-48721428D01*
X146678571Y-48721428D01*
X146035714Y-48864285D02*
X145964285Y-48792857D01*
X146035714Y-48721428D01*
X146107142Y-48792857D01*
X146035714Y-48864285D01*
X146035714Y-48721428D01*
X145035714Y-50221428D02*
X144892857Y-50221428D01*
X144750000Y-50150000D01*
X144678571Y-50078571D01*
X144607142Y-49935714D01*
X144535714Y-49650000D01*
X144535714Y-49292857D01*
X144607142Y-49007142D01*
X144678571Y-48864285D01*
X144750000Y-48792857D01*
X144892857Y-48721428D01*
X145035714Y-48721428D01*
X145178571Y-48792857D01*
X145250000Y-48864285D01*
X145321428Y-49007142D01*
X145392857Y-49292857D01*
X145392857Y-49650000D01*
X145321428Y-49935714D01*
X145250000Y-50078571D01*
X145178571Y-50150000D01*
X145035714Y-50221428D01*
X157928571Y-47007142D02*
X158428571Y-47007142D01*
X158428571Y-46221428D02*
X158428571Y-47721428D01*
X157714285Y-47721428D01*
X156500000Y-46221428D02*
X156500000Y-47007142D01*
X156571428Y-47150000D01*
X156714285Y-47221428D01*
X157000000Y-47221428D01*
X157142857Y-47150000D01*
X156500000Y-46292857D02*
X156642857Y-46221428D01*
X157000000Y-46221428D01*
X157142857Y-46292857D01*
X157214285Y-46435714D01*
X157214285Y-46578571D01*
X157142857Y-46721428D01*
X157000000Y-46792857D01*
X156642857Y-46792857D01*
X156500000Y-46864285D01*
X155571428Y-46221428D02*
X155714285Y-46292857D01*
X155785714Y-46435714D01*
X155785714Y-47721428D01*
X154785714Y-46221428D02*
X154928571Y-46292857D01*
X155000000Y-46435714D01*
X155000000Y-47721428D01*
X153142857Y-47578571D02*
X153071428Y-47650000D01*
X152928571Y-47721428D01*
X152571428Y-47721428D01*
X152428571Y-47650000D01*
X152357142Y-47578571D01*
X152285714Y-47435714D01*
X152285714Y-47292857D01*
X152357142Y-47078571D01*
X153214285Y-46221428D01*
X152285714Y-46221428D01*
X151357142Y-47721428D02*
X151214285Y-47721428D01*
X151071428Y-47650000D01*
X151000000Y-47578571D01*
X150928571Y-47435714D01*
X150857142Y-47150000D01*
X150857142Y-46792857D01*
X150928571Y-46507142D01*
X151000000Y-46364285D01*
X151071428Y-46292857D01*
X151214285Y-46221428D01*
X151357142Y-46221428D01*
X151500000Y-46292857D01*
X151571428Y-46364285D01*
X151642857Y-46507142D01*
X151714285Y-46792857D01*
X151714285Y-47150000D01*
X151642857Y-47435714D01*
X151571428Y-47578571D01*
X151500000Y-47650000D01*
X151357142Y-47721428D01*
X150285714Y-47578571D02*
X150214285Y-47650000D01*
X150071428Y-47721428D01*
X149714285Y-47721428D01*
X149571428Y-47650000D01*
X149500000Y-47578571D01*
X149428571Y-47435714D01*
X149428571Y-47292857D01*
X149500000Y-47078571D01*
X150357142Y-46221428D01*
X149428571Y-46221428D01*
X148500000Y-47721428D02*
X148357142Y-47721428D01*
X148214285Y-47650000D01*
X148142857Y-47578571D01*
X148071428Y-47435714D01*
X148000000Y-47150000D01*
X148000000Y-46792857D01*
X148071428Y-46507142D01*
X148142857Y-46364285D01*
X148214285Y-46292857D01*
X148357142Y-46221428D01*
X148500000Y-46221428D01*
X148642857Y-46292857D01*
X148714285Y-46364285D01*
X148785714Y-46507142D01*
X148857142Y-46792857D01*
X148857142Y-47150000D01*
X148785714Y-47435714D01*
X148714285Y-47578571D01*
X148642857Y-47650000D01*
X148500000Y-47721428D01*
D12*
X105207142Y-89071428D02*
X105207142Y-87928571D01*
X105778571Y-88500000D02*
X104635714Y-88500000D01*
X105771428Y-90892857D02*
X104628571Y-90892857D01*
X128871428Y-132192857D02*
X127728571Y-132192857D01*
X128971428Y-117192857D02*
X127828571Y-117192857D01*
X128971428Y-102292857D02*
X127828571Y-102292857D01*
X128971428Y-87192857D02*
X127828571Y-87192857D01*
X148971428Y-72192857D02*
X147828571Y-72192857D01*
X148971428Y-87192857D02*
X147828571Y-87192857D01*
X148971428Y-102292857D02*
X147828571Y-102292857D01*
X148971428Y-117242857D02*
X147828571Y-117242857D01*
X128971428Y-84742857D02*
X127828571Y-84742857D01*
X128400000Y-84171428D02*
X128400000Y-85314285D01*
X128971428Y-99692857D02*
X127828571Y-99692857D01*
X128400000Y-99121428D02*
X128400000Y-100264285D01*
X128971428Y-114692857D02*
X127828571Y-114692857D01*
X128400000Y-114121428D02*
X128400000Y-115264285D01*
X128871428Y-129692857D02*
X127728571Y-129692857D01*
X128300000Y-129121428D02*
X128300000Y-130264285D01*
X148971428Y-69792857D02*
X147828571Y-69792857D01*
X148400000Y-69221428D02*
X148400000Y-70364285D01*
X148971428Y-84792857D02*
X147828571Y-84792857D01*
X148400000Y-84221428D02*
X148400000Y-85364285D01*
X148971428Y-99792857D02*
X147828571Y-99792857D01*
X148400000Y-99221428D02*
X148400000Y-100364285D01*
X148971428Y-114692857D02*
X147828571Y-114692857D01*
X148400000Y-114121428D02*
X148400000Y-115264285D01*
X147828571Y-132207142D02*
X148971428Y-132207142D01*
X147828571Y-129707142D02*
X148971428Y-129707142D01*
X148400000Y-130278571D02*
X148400000Y-129135714D01*
X110107142Y-71703571D02*
X110607142Y-73203571D01*
X111107142Y-71703571D01*
X112250000Y-73203571D02*
X112250000Y-72417857D01*
X112178571Y-72275000D01*
X112035714Y-72203571D01*
X111750000Y-72203571D01*
X111607142Y-72275000D01*
X112250000Y-73132142D02*
X112107142Y-73203571D01*
X111750000Y-73203571D01*
X111607142Y-73132142D01*
X111535714Y-72989285D01*
X111535714Y-72846428D01*
X111607142Y-72703571D01*
X111750000Y-72632142D01*
X112107142Y-72632142D01*
X112250000Y-72560714D01*
X112964285Y-73203571D02*
X112964285Y-72203571D01*
X112964285Y-72489285D02*
X113035714Y-72346428D01*
X113107142Y-72275000D01*
X113250000Y-72203571D01*
X113392857Y-72203571D01*
X113892857Y-73203571D02*
X113892857Y-72203571D01*
X113892857Y-71703571D02*
X113821428Y-71775000D01*
X113892857Y-71846428D01*
X113964285Y-71775000D01*
X113892857Y-71703571D01*
X113892857Y-71846428D01*
X115250000Y-73203571D02*
X115250000Y-72417857D01*
X115178571Y-72275000D01*
X115035714Y-72203571D01*
X114750000Y-72203571D01*
X114607142Y-72275000D01*
X115250000Y-73132142D02*
X115107142Y-73203571D01*
X114750000Y-73203571D01*
X114607142Y-73132142D01*
X114535714Y-72989285D01*
X114535714Y-72846428D01*
X114607142Y-72703571D01*
X114750000Y-72632142D01*
X115107142Y-72632142D01*
X115250000Y-72560714D01*
X115964285Y-73203571D02*
X115964285Y-71703571D01*
X115964285Y-72275000D02*
X116107142Y-72203571D01*
X116392857Y-72203571D01*
X116535714Y-72275000D01*
X116607142Y-72346428D01*
X116678571Y-72489285D01*
X116678571Y-72917857D01*
X116607142Y-73060714D01*
X116535714Y-73132142D01*
X116392857Y-73203571D01*
X116107142Y-73203571D01*
X115964285Y-73132142D01*
X117535714Y-73203571D02*
X117392857Y-73132142D01*
X117321428Y-72989285D01*
X117321428Y-71703571D01*
X118678571Y-73132142D02*
X118535714Y-73203571D01*
X118250000Y-73203571D01*
X118107142Y-73132142D01*
X118035714Y-72989285D01*
X118035714Y-72417857D01*
X118107142Y-72275000D01*
X118250000Y-72203571D01*
X118535714Y-72203571D01*
X118678571Y-72275000D01*
X118750000Y-72417857D01*
X118750000Y-72560714D01*
X118035714Y-72703571D01*
X109785714Y-75610714D02*
X109714285Y-75682142D01*
X109500000Y-75753571D01*
X109357142Y-75753571D01*
X109142857Y-75682142D01*
X109000000Y-75539285D01*
X108928571Y-75396428D01*
X108857142Y-75110714D01*
X108857142Y-74896428D01*
X108928571Y-74610714D01*
X109000000Y-74467857D01*
X109142857Y-74325000D01*
X109357142Y-74253571D01*
X109500000Y-74253571D01*
X109714285Y-74325000D01*
X109785714Y-74396428D01*
X110642857Y-75753571D02*
X110500000Y-75682142D01*
X110428571Y-75610714D01*
X110357142Y-75467857D01*
X110357142Y-75039285D01*
X110428571Y-74896428D01*
X110500000Y-74825000D01*
X110642857Y-74753571D01*
X110857142Y-74753571D01*
X111000000Y-74825000D01*
X111071428Y-74896428D01*
X111142857Y-75039285D01*
X111142857Y-75467857D01*
X111071428Y-75610714D01*
X111000000Y-75682142D01*
X110857142Y-75753571D01*
X110642857Y-75753571D01*
X111785714Y-74753571D02*
X111785714Y-75753571D01*
X111785714Y-74896428D02*
X111857142Y-74825000D01*
X112000000Y-74753571D01*
X112214285Y-74753571D01*
X112357142Y-74825000D01*
X112428571Y-74967857D01*
X112428571Y-75753571D01*
X113000000Y-74753571D02*
X113357142Y-75753571D01*
X113714285Y-74753571D01*
X114857142Y-75682142D02*
X114714285Y-75753571D01*
X114428571Y-75753571D01*
X114285714Y-75682142D01*
X114214285Y-75539285D01*
X114214285Y-74967857D01*
X114285714Y-74825000D01*
X114428571Y-74753571D01*
X114714285Y-74753571D01*
X114857142Y-74825000D01*
X114928571Y-74967857D01*
X114928571Y-75110714D01*
X114214285Y-75253571D01*
X115571428Y-75753571D02*
X115571428Y-74753571D01*
X115571428Y-75039285D02*
X115642857Y-74896428D01*
X115714285Y-74825000D01*
X115857142Y-74753571D01*
X116000000Y-74753571D01*
X116285714Y-74753571D02*
X116857142Y-74753571D01*
X116500000Y-74253571D02*
X116500000Y-75539285D01*
X116571428Y-75682142D01*
X116714285Y-75753571D01*
X116857142Y-75753571D01*
X117928571Y-75682142D02*
X117785714Y-75753571D01*
X117500000Y-75753571D01*
X117357142Y-75682142D01*
X117285714Y-75539285D01*
X117285714Y-74967857D01*
X117357142Y-74825000D01*
X117500000Y-74753571D01*
X117785714Y-74753571D01*
X117928571Y-74825000D01*
X118000000Y-74967857D01*
X118000000Y-75110714D01*
X117285714Y-75253571D01*
X118642857Y-75753571D02*
X118642857Y-74753571D01*
X118642857Y-75039285D02*
X118714285Y-74896428D01*
X118785714Y-74825000D01*
X118928571Y-74753571D01*
X119071428Y-74753571D01*
X119500000Y-75682142D02*
X119642857Y-75753571D01*
X119928571Y-75753571D01*
X120071428Y-75682142D01*
X120142857Y-75539285D01*
X120142857Y-75467857D01*
X120071428Y-75325000D01*
X119928571Y-75253571D01*
X119714285Y-75253571D01*
X119571428Y-75182142D01*
X119500000Y-75039285D01*
X119500000Y-74967857D01*
X119571428Y-74825000D01*
X119714285Y-74753571D01*
X119928571Y-74753571D01*
X120071428Y-74825000D01*
X107421428Y-48978571D02*
X107421428Y-47478571D01*
X107992857Y-47478571D01*
X108135714Y-47550000D01*
X108207142Y-47621428D01*
X108278571Y-47764285D01*
X108278571Y-47978571D01*
X108207142Y-48121428D01*
X108135714Y-48192857D01*
X107992857Y-48264285D01*
X107421428Y-48264285D01*
X109135714Y-48978571D02*
X108992857Y-48907142D01*
X108921428Y-48835714D01*
X108850000Y-48692857D01*
X108850000Y-48264285D01*
X108921428Y-48121428D01*
X108992857Y-48050000D01*
X109135714Y-47978571D01*
X109350000Y-47978571D01*
X109492857Y-48050000D01*
X109564285Y-48121428D01*
X109635714Y-48264285D01*
X109635714Y-48692857D01*
X109564285Y-48835714D01*
X109492857Y-48907142D01*
X109350000Y-48978571D01*
X109135714Y-48978571D01*
X110135714Y-47978571D02*
X110421428Y-48978571D01*
X110707142Y-48264285D01*
X110992857Y-48978571D01*
X111278571Y-47978571D01*
X112421428Y-48907142D02*
X112278571Y-48978571D01*
X111992857Y-48978571D01*
X111850000Y-48907142D01*
X111778571Y-48764285D01*
X111778571Y-48192857D01*
X111850000Y-48050000D01*
X111992857Y-47978571D01*
X112278571Y-47978571D01*
X112421428Y-48050000D01*
X112492857Y-48192857D01*
X112492857Y-48335714D01*
X111778571Y-48478571D01*
X113135714Y-48978571D02*
X113135714Y-47978571D01*
X113135714Y-48264285D02*
X113207142Y-48121428D01*
X113278571Y-48050000D01*
X113421428Y-47978571D01*
X113564285Y-47978571D01*
X114064285Y-48978571D02*
X114064285Y-47478571D01*
X114064285Y-48050000D02*
X114207142Y-47978571D01*
X114492857Y-47978571D01*
X114635714Y-48050000D01*
X114707142Y-48121428D01*
X114778571Y-48264285D01*
X114778571Y-48692857D01*
X114707142Y-48835714D01*
X114635714Y-48907142D01*
X114492857Y-48978571D01*
X114207142Y-48978571D01*
X114064285Y-48907142D01*
X115992857Y-48907142D02*
X115850000Y-48978571D01*
X115564285Y-48978571D01*
X115421428Y-48907142D01*
X115350000Y-48764285D01*
X115350000Y-48192857D01*
X115421428Y-48050000D01*
X115564285Y-47978571D01*
X115850000Y-47978571D01*
X115992857Y-48050000D01*
X116064285Y-48192857D01*
X116064285Y-48335714D01*
X115350000Y-48478571D01*
X116707142Y-47978571D02*
X116707142Y-48978571D01*
X116707142Y-48121428D02*
X116778571Y-48050000D01*
X116921428Y-47978571D01*
X117135714Y-47978571D01*
X117278571Y-48050000D01*
X117350000Y-48192857D01*
X117350000Y-48978571D01*
X118707142Y-48907142D02*
X118564285Y-48978571D01*
X118278571Y-48978571D01*
X118135714Y-48907142D01*
X118064285Y-48835714D01*
X117992857Y-48692857D01*
X117992857Y-48264285D01*
X118064285Y-48121428D01*
X118135714Y-48050000D01*
X118278571Y-47978571D01*
X118564285Y-47978571D01*
X118707142Y-48050000D01*
X119350000Y-48978571D02*
X119350000Y-47478571D01*
X119992857Y-48978571D02*
X119992857Y-48192857D01*
X119921428Y-48050000D01*
X119778571Y-47978571D01*
X119564285Y-47978571D01*
X119421428Y-48050000D01*
X119350000Y-48121428D01*
X122707142Y-48835714D02*
X122635714Y-48907142D01*
X122421428Y-48978571D01*
X122278571Y-48978571D01*
X122064285Y-48907142D01*
X121921428Y-48764285D01*
X121850000Y-48621428D01*
X121778571Y-48335714D01*
X121778571Y-48121428D01*
X121850000Y-47835714D01*
X121921428Y-47692857D01*
X122064285Y-47550000D01*
X122278571Y-47478571D01*
X122421428Y-47478571D01*
X122635714Y-47550000D01*
X122707142Y-47621428D01*
X123564285Y-48978571D02*
X123421428Y-48907142D01*
X123350000Y-48835714D01*
X123278571Y-48692857D01*
X123278571Y-48264285D01*
X123350000Y-48121428D01*
X123421428Y-48050000D01*
X123564285Y-47978571D01*
X123778571Y-47978571D01*
X123921428Y-48050000D01*
X123992857Y-48121428D01*
X124064285Y-48264285D01*
X124064285Y-48692857D01*
X123992857Y-48835714D01*
X123921428Y-48907142D01*
X123778571Y-48978571D01*
X123564285Y-48978571D01*
X124707142Y-47978571D02*
X124707142Y-48978571D01*
X124707142Y-48121428D02*
X124778571Y-48050000D01*
X124921428Y-47978571D01*
X125135714Y-47978571D01*
X125278571Y-48050000D01*
X125350000Y-48192857D01*
X125350000Y-48978571D01*
X126064285Y-47978571D02*
X126064285Y-48978571D01*
X126064285Y-48121428D02*
X126135714Y-48050000D01*
X126278571Y-47978571D01*
X126492857Y-47978571D01*
X126635714Y-48050000D01*
X126707142Y-48192857D01*
X126707142Y-48978571D01*
X127992857Y-48907142D02*
X127850000Y-48978571D01*
X127564285Y-48978571D01*
X127421428Y-48907142D01*
X127350000Y-48764285D01*
X127350000Y-48192857D01*
X127421428Y-48050000D01*
X127564285Y-47978571D01*
X127850000Y-47978571D01*
X127992857Y-48050000D01*
X128064285Y-48192857D01*
X128064285Y-48335714D01*
X127350000Y-48478571D01*
X129350000Y-48907142D02*
X129207142Y-48978571D01*
X128921428Y-48978571D01*
X128778571Y-48907142D01*
X128707142Y-48835714D01*
X128635714Y-48692857D01*
X128635714Y-48264285D01*
X128707142Y-48121428D01*
X128778571Y-48050000D01*
X128921428Y-47978571D01*
X129207142Y-47978571D01*
X129350000Y-48050000D01*
X129778571Y-47978571D02*
X130350000Y-47978571D01*
X129992857Y-47478571D02*
X129992857Y-48764285D01*
X130064285Y-48907142D01*
X130207142Y-48978571D01*
X130350000Y-48978571D01*
X131064285Y-48978571D02*
X130921428Y-48907142D01*
X130850000Y-48835714D01*
X130778571Y-48692857D01*
X130778571Y-48264285D01*
X130850000Y-48121428D01*
X130921428Y-48050000D01*
X131064285Y-47978571D01*
X131278571Y-47978571D01*
X131421428Y-48050000D01*
X131492857Y-48121428D01*
X131564285Y-48264285D01*
X131564285Y-48692857D01*
X131492857Y-48835714D01*
X131421428Y-48907142D01*
X131278571Y-48978571D01*
X131064285Y-48978571D01*
X132207142Y-48978571D02*
X132207142Y-47978571D01*
X132207142Y-48264285D02*
X132278571Y-48121428D01*
X132350000Y-48050000D01*
X132492857Y-47978571D01*
X132635714Y-47978571D01*
X133064285Y-48907142D02*
X133207142Y-48978571D01*
X133492857Y-48978571D01*
X133635714Y-48907142D01*
X133707142Y-48764285D01*
X133707142Y-48692857D01*
X133635714Y-48550000D01*
X133492857Y-48478571D01*
X133278571Y-48478571D01*
X133135714Y-48407142D01*
X133064285Y-48264285D01*
X133064285Y-48192857D01*
X133135714Y-48050000D01*
X133278571Y-47978571D01*
X133492857Y-47978571D01*
X133635714Y-48050000D01*
X128471428Y-52307142D02*
X129614285Y-52307142D01*
X129042857Y-52878571D02*
X129042857Y-51735714D01*
X131042857Y-51378571D02*
X130328571Y-51378571D01*
X130257142Y-52092857D01*
X130328571Y-52021428D01*
X130471428Y-51950000D01*
X130828571Y-51950000D01*
X130971428Y-52021428D01*
X131042857Y-52092857D01*
X131114285Y-52235714D01*
X131114285Y-52592857D01*
X131042857Y-52735714D01*
X130971428Y-52807142D01*
X130828571Y-52878571D01*
X130471428Y-52878571D01*
X130328571Y-52807142D01*
X130257142Y-52735714D01*
X131542857Y-51378571D02*
X132042857Y-52878571D01*
X132542857Y-51378571D01*
D10*
X153576190Y-125252380D02*
X153909523Y-126252380D01*
X154242857Y-125252380D01*
X154719047Y-126252380D02*
X154623809Y-126204761D01*
X154576190Y-126157142D01*
X154528571Y-126061904D01*
X154528571Y-125776190D01*
X154576190Y-125680952D01*
X154623809Y-125633333D01*
X154719047Y-125585714D01*
X154861904Y-125585714D01*
X154957142Y-125633333D01*
X155004761Y-125680952D01*
X155052380Y-125776190D01*
X155052380Y-126061904D01*
X155004761Y-126157142D01*
X154957142Y-126204761D01*
X154861904Y-126252380D01*
X154719047Y-126252380D01*
X155909523Y-125585714D02*
X155909523Y-126252380D01*
X155480952Y-125585714D02*
X155480952Y-126109523D01*
X155528571Y-126204761D01*
X155623809Y-126252380D01*
X155766666Y-126252380D01*
X155861904Y-126204761D01*
X155909523Y-126157142D01*
X156242857Y-125585714D02*
X156623809Y-125585714D01*
X156385714Y-125252380D02*
X156385714Y-126109523D01*
X156433333Y-126204761D01*
X156528571Y-126252380D01*
X156623809Y-126252380D01*
X153576190Y-110252380D02*
X153909523Y-111252380D01*
X154242857Y-110252380D01*
X154719047Y-111252380D02*
X154623809Y-111204761D01*
X154576190Y-111157142D01*
X154528571Y-111061904D01*
X154528571Y-110776190D01*
X154576190Y-110680952D01*
X154623809Y-110633333D01*
X154719047Y-110585714D01*
X154861904Y-110585714D01*
X154957142Y-110633333D01*
X155004761Y-110680952D01*
X155052380Y-110776190D01*
X155052380Y-111061904D01*
X155004761Y-111157142D01*
X154957142Y-111204761D01*
X154861904Y-111252380D01*
X154719047Y-111252380D01*
X155909523Y-110585714D02*
X155909523Y-111252380D01*
X155480952Y-110585714D02*
X155480952Y-111109523D01*
X155528571Y-111204761D01*
X155623809Y-111252380D01*
X155766666Y-111252380D01*
X155861904Y-111204761D01*
X155909523Y-111157142D01*
X156242857Y-110585714D02*
X156623809Y-110585714D01*
X156385714Y-110252380D02*
X156385714Y-111109523D01*
X156433333Y-111204761D01*
X156528571Y-111252380D01*
X156623809Y-111252380D01*
X133576190Y-110252380D02*
X133909523Y-111252380D01*
X134242857Y-110252380D01*
X134719047Y-111252380D02*
X134623809Y-111204761D01*
X134576190Y-111157142D01*
X134528571Y-111061904D01*
X134528571Y-110776190D01*
X134576190Y-110680952D01*
X134623809Y-110633333D01*
X134719047Y-110585714D01*
X134861904Y-110585714D01*
X134957142Y-110633333D01*
X135004761Y-110680952D01*
X135052380Y-110776190D01*
X135052380Y-111061904D01*
X135004761Y-111157142D01*
X134957142Y-111204761D01*
X134861904Y-111252380D01*
X134719047Y-111252380D01*
X135909523Y-110585714D02*
X135909523Y-111252380D01*
X135480952Y-110585714D02*
X135480952Y-111109523D01*
X135528571Y-111204761D01*
X135623809Y-111252380D01*
X135766666Y-111252380D01*
X135861904Y-111204761D01*
X135909523Y-111157142D01*
X136242857Y-110585714D02*
X136623809Y-110585714D01*
X136385714Y-110252380D02*
X136385714Y-111109523D01*
X136433333Y-111204761D01*
X136528571Y-111252380D01*
X136623809Y-111252380D01*
X133576190Y-95252380D02*
X133909523Y-96252380D01*
X134242857Y-95252380D01*
X134719047Y-96252380D02*
X134623809Y-96204761D01*
X134576190Y-96157142D01*
X134528571Y-96061904D01*
X134528571Y-95776190D01*
X134576190Y-95680952D01*
X134623809Y-95633333D01*
X134719047Y-95585714D01*
X134861904Y-95585714D01*
X134957142Y-95633333D01*
X135004761Y-95680952D01*
X135052380Y-95776190D01*
X135052380Y-96061904D01*
X135004761Y-96157142D01*
X134957142Y-96204761D01*
X134861904Y-96252380D01*
X134719047Y-96252380D01*
X135909523Y-95585714D02*
X135909523Y-96252380D01*
X135480952Y-95585714D02*
X135480952Y-96109523D01*
X135528571Y-96204761D01*
X135623809Y-96252380D01*
X135766666Y-96252380D01*
X135861904Y-96204761D01*
X135909523Y-96157142D01*
X136242857Y-95585714D02*
X136623809Y-95585714D01*
X136385714Y-95252380D02*
X136385714Y-96109523D01*
X136433333Y-96204761D01*
X136528571Y-96252380D01*
X136623809Y-96252380D01*
X133576190Y-80252380D02*
X133909523Y-81252380D01*
X134242857Y-80252380D01*
X134719047Y-81252380D02*
X134623809Y-81204761D01*
X134576190Y-81157142D01*
X134528571Y-81061904D01*
X134528571Y-80776190D01*
X134576190Y-80680952D01*
X134623809Y-80633333D01*
X134719047Y-80585714D01*
X134861904Y-80585714D01*
X134957142Y-80633333D01*
X135004761Y-80680952D01*
X135052380Y-80776190D01*
X135052380Y-81061904D01*
X135004761Y-81157142D01*
X134957142Y-81204761D01*
X134861904Y-81252380D01*
X134719047Y-81252380D01*
X135909523Y-80585714D02*
X135909523Y-81252380D01*
X135480952Y-80585714D02*
X135480952Y-81109523D01*
X135528571Y-81204761D01*
X135623809Y-81252380D01*
X135766666Y-81252380D01*
X135861904Y-81204761D01*
X135909523Y-81157142D01*
X136242857Y-80585714D02*
X136623809Y-80585714D01*
X136385714Y-80252380D02*
X136385714Y-81109523D01*
X136433333Y-81204761D01*
X136528571Y-81252380D01*
X136623809Y-81252380D01*
X153576190Y-95252380D02*
X153909523Y-96252380D01*
X154242857Y-95252380D01*
X154719047Y-96252380D02*
X154623809Y-96204761D01*
X154576190Y-96157142D01*
X154528571Y-96061904D01*
X154528571Y-95776190D01*
X154576190Y-95680952D01*
X154623809Y-95633333D01*
X154719047Y-95585714D01*
X154861904Y-95585714D01*
X154957142Y-95633333D01*
X155004761Y-95680952D01*
X155052380Y-95776190D01*
X155052380Y-96061904D01*
X155004761Y-96157142D01*
X154957142Y-96204761D01*
X154861904Y-96252380D01*
X154719047Y-96252380D01*
X155909523Y-95585714D02*
X155909523Y-96252380D01*
X155480952Y-95585714D02*
X155480952Y-96109523D01*
X155528571Y-96204761D01*
X155623809Y-96252380D01*
X155766666Y-96252380D01*
X155861904Y-96204761D01*
X155909523Y-96157142D01*
X156242857Y-95585714D02*
X156623809Y-95585714D01*
X156385714Y-95252380D02*
X156385714Y-96109523D01*
X156433333Y-96204761D01*
X156528571Y-96252380D01*
X156623809Y-96252380D01*
X153576190Y-65252380D02*
X153909523Y-66252380D01*
X154242857Y-65252380D01*
X154719047Y-66252380D02*
X154623809Y-66204761D01*
X154576190Y-66157142D01*
X154528571Y-66061904D01*
X154528571Y-65776190D01*
X154576190Y-65680952D01*
X154623809Y-65633333D01*
X154719047Y-65585714D01*
X154861904Y-65585714D01*
X154957142Y-65633333D01*
X155004761Y-65680952D01*
X155052380Y-65776190D01*
X155052380Y-66061904D01*
X155004761Y-66157142D01*
X154957142Y-66204761D01*
X154861904Y-66252380D01*
X154719047Y-66252380D01*
X155909523Y-65585714D02*
X155909523Y-66252380D01*
X155480952Y-65585714D02*
X155480952Y-66109523D01*
X155528571Y-66204761D01*
X155623809Y-66252380D01*
X155766666Y-66252380D01*
X155861904Y-66204761D01*
X155909523Y-66157142D01*
X156242857Y-65585714D02*
X156623809Y-65585714D01*
X156385714Y-65252380D02*
X156385714Y-66109523D01*
X156433333Y-66204761D01*
X156528571Y-66252380D01*
X156623809Y-66252380D01*
X153576190Y-80252380D02*
X153909523Y-81252380D01*
X154242857Y-80252380D01*
X154719047Y-81252380D02*
X154623809Y-81204761D01*
X154576190Y-81157142D01*
X154528571Y-81061904D01*
X154528571Y-80776190D01*
X154576190Y-80680952D01*
X154623809Y-80633333D01*
X154719047Y-80585714D01*
X154861904Y-80585714D01*
X154957142Y-80633333D01*
X155004761Y-80680952D01*
X155052380Y-80776190D01*
X155052380Y-81061904D01*
X155004761Y-81157142D01*
X154957142Y-81204761D01*
X154861904Y-81252380D01*
X154719047Y-81252380D01*
X155909523Y-80585714D02*
X155909523Y-81252380D01*
X155480952Y-80585714D02*
X155480952Y-81109523D01*
X155528571Y-81204761D01*
X155623809Y-81252380D01*
X155766666Y-81252380D01*
X155861904Y-81204761D01*
X155909523Y-81157142D01*
X156242857Y-80585714D02*
X156623809Y-80585714D01*
X156385714Y-80252380D02*
X156385714Y-81109523D01*
X156433333Y-81204761D01*
X156528571Y-81252380D01*
X156623809Y-81252380D01*
X110976190Y-83952380D02*
X111309523Y-84952380D01*
X111642857Y-83952380D01*
X112119047Y-84952380D02*
X112023809Y-84904761D01*
X111976190Y-84857142D01*
X111928571Y-84761904D01*
X111928571Y-84476190D01*
X111976190Y-84380952D01*
X112023809Y-84333333D01*
X112119047Y-84285714D01*
X112261904Y-84285714D01*
X112357142Y-84333333D01*
X112404761Y-84380952D01*
X112452380Y-84476190D01*
X112452380Y-84761904D01*
X112404761Y-84857142D01*
X112357142Y-84904761D01*
X112261904Y-84952380D01*
X112119047Y-84952380D01*
X113309523Y-84285714D02*
X113309523Y-84952380D01*
X112880952Y-84285714D02*
X112880952Y-84809523D01*
X112928571Y-84904761D01*
X113023809Y-84952380D01*
X113166666Y-84952380D01*
X113261904Y-84904761D01*
X113309523Y-84857142D01*
X113642857Y-84285714D02*
X114023809Y-84285714D01*
X113785714Y-83952380D02*
X113785714Y-84809523D01*
X113833333Y-84904761D01*
X113928571Y-84952380D01*
X114023809Y-84952380D01*
X134338095Y-120600000D02*
X134242857Y-120552380D01*
X134100000Y-120552380D01*
X133957142Y-120600000D01*
X133861904Y-120695238D01*
X133814285Y-120790476D01*
X133766666Y-120980952D01*
X133766666Y-121123809D01*
X133814285Y-121314285D01*
X133861904Y-121409523D01*
X133957142Y-121504761D01*
X134100000Y-121552380D01*
X134195238Y-121552380D01*
X134338095Y-121504761D01*
X134385714Y-121457142D01*
X134385714Y-121123809D01*
X134195238Y-121123809D01*
X134814285Y-121552380D02*
X134814285Y-120552380D01*
X135385714Y-121552380D01*
X135385714Y-120552380D01*
X135861904Y-121552380D02*
X135861904Y-120552380D01*
X136100000Y-120552380D01*
X136242857Y-120600000D01*
X136338095Y-120695238D01*
X136385714Y-120790476D01*
X136433333Y-120980952D01*
X136433333Y-121123809D01*
X136385714Y-121314285D01*
X136338095Y-121409523D01*
X136242857Y-121504761D01*
X136100000Y-121552380D01*
X135861904Y-121552380D01*
X134338095Y-105600000D02*
X134242857Y-105552380D01*
X134100000Y-105552380D01*
X133957142Y-105600000D01*
X133861904Y-105695238D01*
X133814285Y-105790476D01*
X133766666Y-105980952D01*
X133766666Y-106123809D01*
X133814285Y-106314285D01*
X133861904Y-106409523D01*
X133957142Y-106504761D01*
X134100000Y-106552380D01*
X134195238Y-106552380D01*
X134338095Y-106504761D01*
X134385714Y-106457142D01*
X134385714Y-106123809D01*
X134195238Y-106123809D01*
X134814285Y-106552380D02*
X134814285Y-105552380D01*
X135385714Y-106552380D01*
X135385714Y-105552380D01*
X135861904Y-106552380D02*
X135861904Y-105552380D01*
X136100000Y-105552380D01*
X136242857Y-105600000D01*
X136338095Y-105695238D01*
X136385714Y-105790476D01*
X136433333Y-105980952D01*
X136433333Y-106123809D01*
X136385714Y-106314285D01*
X136338095Y-106409523D01*
X136242857Y-106504761D01*
X136100000Y-106552380D01*
X135861904Y-106552380D01*
X134338095Y-90600000D02*
X134242857Y-90552380D01*
X134100000Y-90552380D01*
X133957142Y-90600000D01*
X133861904Y-90695238D01*
X133814285Y-90790476D01*
X133766666Y-90980952D01*
X133766666Y-91123809D01*
X133814285Y-91314285D01*
X133861904Y-91409523D01*
X133957142Y-91504761D01*
X134100000Y-91552380D01*
X134195238Y-91552380D01*
X134338095Y-91504761D01*
X134385714Y-91457142D01*
X134385714Y-91123809D01*
X134195238Y-91123809D01*
X134814285Y-91552380D02*
X134814285Y-90552380D01*
X135385714Y-91552380D01*
X135385714Y-90552380D01*
X135861904Y-91552380D02*
X135861904Y-90552380D01*
X136100000Y-90552380D01*
X136242857Y-90600000D01*
X136338095Y-90695238D01*
X136385714Y-90790476D01*
X136433333Y-90980952D01*
X136433333Y-91123809D01*
X136385714Y-91314285D01*
X136338095Y-91409523D01*
X136242857Y-91504761D01*
X136100000Y-91552380D01*
X135861904Y-91552380D01*
X154338095Y-75600000D02*
X154242857Y-75552380D01*
X154100000Y-75552380D01*
X153957142Y-75600000D01*
X153861904Y-75695238D01*
X153814285Y-75790476D01*
X153766666Y-75980952D01*
X153766666Y-76123809D01*
X153814285Y-76314285D01*
X153861904Y-76409523D01*
X153957142Y-76504761D01*
X154100000Y-76552380D01*
X154195238Y-76552380D01*
X154338095Y-76504761D01*
X154385714Y-76457142D01*
X154385714Y-76123809D01*
X154195238Y-76123809D01*
X154814285Y-76552380D02*
X154814285Y-75552380D01*
X155385714Y-76552380D01*
X155385714Y-75552380D01*
X155861904Y-76552380D02*
X155861904Y-75552380D01*
X156100000Y-75552380D01*
X156242857Y-75600000D01*
X156338095Y-75695238D01*
X156385714Y-75790476D01*
X156433333Y-75980952D01*
X156433333Y-76123809D01*
X156385714Y-76314285D01*
X156338095Y-76409523D01*
X156242857Y-76504761D01*
X156100000Y-76552380D01*
X155861904Y-76552380D01*
X154338095Y-90600000D02*
X154242857Y-90552380D01*
X154100000Y-90552380D01*
X153957142Y-90600000D01*
X153861904Y-90695238D01*
X153814285Y-90790476D01*
X153766666Y-90980952D01*
X153766666Y-91123809D01*
X153814285Y-91314285D01*
X153861904Y-91409523D01*
X153957142Y-91504761D01*
X154100000Y-91552380D01*
X154195238Y-91552380D01*
X154338095Y-91504761D01*
X154385714Y-91457142D01*
X154385714Y-91123809D01*
X154195238Y-91123809D01*
X154814285Y-91552380D02*
X154814285Y-90552380D01*
X155385714Y-91552380D01*
X155385714Y-90552380D01*
X155861904Y-91552380D02*
X155861904Y-90552380D01*
X156100000Y-90552380D01*
X156242857Y-90600000D01*
X156338095Y-90695238D01*
X156385714Y-90790476D01*
X156433333Y-90980952D01*
X156433333Y-91123809D01*
X156385714Y-91314285D01*
X156338095Y-91409523D01*
X156242857Y-91504761D01*
X156100000Y-91552380D01*
X155861904Y-91552380D01*
X154338095Y-105600000D02*
X154242857Y-105552380D01*
X154100000Y-105552380D01*
X153957142Y-105600000D01*
X153861904Y-105695238D01*
X153814285Y-105790476D01*
X153766666Y-105980952D01*
X153766666Y-106123809D01*
X153814285Y-106314285D01*
X153861904Y-106409523D01*
X153957142Y-106504761D01*
X154100000Y-106552380D01*
X154195238Y-106552380D01*
X154338095Y-106504761D01*
X154385714Y-106457142D01*
X154385714Y-106123809D01*
X154195238Y-106123809D01*
X154814285Y-106552380D02*
X154814285Y-105552380D01*
X155385714Y-106552380D01*
X155385714Y-105552380D01*
X155861904Y-106552380D02*
X155861904Y-105552380D01*
X156100000Y-105552380D01*
X156242857Y-105600000D01*
X156338095Y-105695238D01*
X156385714Y-105790476D01*
X156433333Y-105980952D01*
X156433333Y-106123809D01*
X156385714Y-106314285D01*
X156338095Y-106409523D01*
X156242857Y-106504761D01*
X156100000Y-106552380D01*
X155861904Y-106552380D01*
X154338095Y-120600000D02*
X154242857Y-120552380D01*
X154100000Y-120552380D01*
X153957142Y-120600000D01*
X153861904Y-120695238D01*
X153814285Y-120790476D01*
X153766666Y-120980952D01*
X153766666Y-121123809D01*
X153814285Y-121314285D01*
X153861904Y-121409523D01*
X153957142Y-121504761D01*
X154100000Y-121552380D01*
X154195238Y-121552380D01*
X154338095Y-121504761D01*
X154385714Y-121457142D01*
X154385714Y-121123809D01*
X154195238Y-121123809D01*
X154814285Y-121552380D02*
X154814285Y-120552380D01*
X155385714Y-121552380D01*
X155385714Y-120552380D01*
X155861904Y-121552380D02*
X155861904Y-120552380D01*
X156100000Y-120552380D01*
X156242857Y-120600000D01*
X156338095Y-120695238D01*
X156385714Y-120790476D01*
X156433333Y-120980952D01*
X156433333Y-121123809D01*
X156385714Y-121314285D01*
X156338095Y-121409523D01*
X156242857Y-121504761D01*
X156100000Y-121552380D01*
X155861904Y-121552380D01*
X154338095Y-135600000D02*
X154242857Y-135552380D01*
X154100000Y-135552380D01*
X153957142Y-135600000D01*
X153861904Y-135695238D01*
X153814285Y-135790476D01*
X153766666Y-135980952D01*
X153766666Y-136123809D01*
X153814285Y-136314285D01*
X153861904Y-136409523D01*
X153957142Y-136504761D01*
X154100000Y-136552380D01*
X154195238Y-136552380D01*
X154338095Y-136504761D01*
X154385714Y-136457142D01*
X154385714Y-136123809D01*
X154195238Y-136123809D01*
X154814285Y-136552380D02*
X154814285Y-135552380D01*
X155385714Y-136552380D01*
X155385714Y-135552380D01*
X155861904Y-136552380D02*
X155861904Y-135552380D01*
X156100000Y-135552380D01*
X156242857Y-135600000D01*
X156338095Y-135695238D01*
X156385714Y-135790476D01*
X156433333Y-135980952D01*
X156433333Y-136123809D01*
X156385714Y-136314285D01*
X156338095Y-136409523D01*
X156242857Y-136504761D01*
X156100000Y-136552380D01*
X155861904Y-136552380D01*
X111760095Y-94300000D02*
X111664857Y-94252380D01*
X111522000Y-94252380D01*
X111379142Y-94300000D01*
X111283904Y-94395238D01*
X111236285Y-94490476D01*
X111188666Y-94680952D01*
X111188666Y-94823809D01*
X111236285Y-95014285D01*
X111283904Y-95109523D01*
X111379142Y-95204761D01*
X111522000Y-95252380D01*
X111617238Y-95252380D01*
X111760095Y-95204761D01*
X111807714Y-95157142D01*
X111807714Y-94823809D01*
X111617238Y-94823809D01*
X112236285Y-95252380D02*
X112236285Y-94252380D01*
X112807714Y-95252380D01*
X112807714Y-94252380D01*
X113283904Y-95252380D02*
X113283904Y-94252380D01*
X113522000Y-94252380D01*
X113664857Y-94300000D01*
X113760095Y-94395238D01*
X113807714Y-94490476D01*
X113855333Y-94680952D01*
X113855333Y-94823809D01*
X113807714Y-95014285D01*
X113760095Y-95109523D01*
X113664857Y-95204761D01*
X113522000Y-95252380D01*
X113283904Y-95252380D01*
D12*
X110557142Y-51650000D02*
X110414285Y-51578571D01*
X110200000Y-51578571D01*
X109985714Y-51650000D01*
X109842857Y-51792857D01*
X109771428Y-51935714D01*
X109700000Y-52221428D01*
X109700000Y-52435714D01*
X109771428Y-52721428D01*
X109842857Y-52864285D01*
X109985714Y-53007142D01*
X110200000Y-53078571D01*
X110342857Y-53078571D01*
X110557142Y-53007142D01*
X110628571Y-52935714D01*
X110628571Y-52435714D01*
X110342857Y-52435714D01*
X111271428Y-53078571D02*
X111271428Y-51578571D01*
X112128571Y-53078571D01*
X112128571Y-51578571D01*
X112842857Y-53078571D02*
X112842857Y-51578571D01*
X113200000Y-51578571D01*
X113414285Y-51650000D01*
X113557142Y-51792857D01*
X113628571Y-51935714D01*
X113700000Y-52221428D01*
X113700000Y-52435714D01*
X113628571Y-52721428D01*
X113557142Y-52864285D01*
X113414285Y-53007142D01*
X113200000Y-53078571D01*
X112842857Y-53078571D01*
D11*
%TO.C,RV4*%
X123170075Y-119843137D02*
G75*
G02X122814000Y-121385000I-3270075J-56863D01*
G01*
X121385202Y-122813387D02*
G75*
G02X118416000Y-122814000I-1485202J2913387D01*
G01*
X116986171Y-121383968D02*
G75*
G02X118836000Y-116808000I2913829J1483968D01*
G01*
X120964608Y-116808154D02*
G75*
G02X123170000Y-119900000I-1064608J-3091846D01*
G01*
%TO.C,RV3*%
X123170075Y-111443137D02*
G75*
G02X122814000Y-112985000I-3270075J-56863D01*
G01*
X121385202Y-114413387D02*
G75*
G02X118416000Y-114414000I-1485202J2913387D01*
G01*
X116986171Y-112983968D02*
G75*
G02X118836000Y-108408000I2913829J1483968D01*
G01*
X120964608Y-108408154D02*
G75*
G02X123170000Y-111500000I-1064608J-3091846D01*
G01*
%TO.C,RV2*%
X123170075Y-91343137D02*
G75*
G02X122814000Y-92885000I-3270075J-56863D01*
G01*
X121385202Y-94313387D02*
G75*
G02X118416000Y-94314000I-1485202J2913387D01*
G01*
X116986171Y-92883968D02*
G75*
G02X118836000Y-88308000I2913829J1483968D01*
G01*
X120964608Y-88308154D02*
G75*
G02X123170000Y-91400000I-1064608J-3091846D01*
G01*
%TO.C,RV1*%
X123170075Y-82943137D02*
G75*
G02X122814000Y-84485000I-3270075J-56863D01*
G01*
X121385202Y-85913387D02*
G75*
G02X118416000Y-85914000I-1485202J2913387D01*
G01*
X116986171Y-84483968D02*
G75*
G02X118836000Y-79908000I2913829J1483968D01*
G01*
X120964608Y-79908154D02*
G75*
G02X123170000Y-83000000I-1064608J-3091846D01*
G01*
D14*
%TO.C,PS10*%
X111900000Y-132300000D02*
G75*
G02X112000000Y-132300000I50000J0D01*
G01*
X112000000Y-132300000D02*
G75*
G02X111900000Y-132300000I-50000J0D01*
G01*
X112000000Y-132300000D02*
X112000000Y-132300000D01*
X111900000Y-132300000D02*
X111900000Y-132300000D01*
X110400000Y-131750000D02*
X110400000Y-125750000D01*
X121900000Y-131750000D02*
X110400000Y-131750000D01*
X121900000Y-125750000D02*
X121900000Y-131750000D01*
X110400000Y-125750000D02*
X121900000Y-125750000D01*
%TO.C,PS11*%
X111900000Y-103800000D02*
G75*
G02X112000000Y-103800000I50000J0D01*
G01*
X112000000Y-103800000D02*
G75*
G02X111900000Y-103800000I-50000J0D01*
G01*
X112000000Y-103800000D02*
X112000000Y-103800000D01*
X111900000Y-103800000D02*
X111900000Y-103800000D01*
X110400000Y-103250000D02*
X110400000Y-97250000D01*
X121900000Y-103250000D02*
X110400000Y-103250000D01*
X121900000Y-97250000D02*
X121900000Y-103250000D01*
X110400000Y-97250000D02*
X121900000Y-97250000D01*
%TO.C,PS9*%
X145200000Y-90300000D02*
G75*
G02X145200000Y-90200000I0J50000D01*
G01*
X145200000Y-90200000D02*
G75*
G02X145200000Y-90300000I0J-50000D01*
G01*
X145200000Y-90200000D02*
X145200000Y-90200000D01*
X145200000Y-90300000D02*
X145200000Y-90300000D01*
X144650000Y-91800000D02*
X138650000Y-91800000D01*
X144650000Y-80300000D02*
X144650000Y-91800000D01*
X138650000Y-80300000D02*
X144650000Y-80300000D01*
X138650000Y-91800000D02*
X138650000Y-80300000D01*
%TO.C,PS8*%
X145200000Y-105300000D02*
G75*
G02X145200000Y-105200000I0J50000D01*
G01*
X145200000Y-105200000D02*
G75*
G02X145200000Y-105300000I0J-50000D01*
G01*
X145200000Y-105200000D02*
X145200000Y-105200000D01*
X145200000Y-105300000D02*
X145200000Y-105300000D01*
X144650000Y-106800000D02*
X138650000Y-106800000D01*
X144650000Y-95300000D02*
X144650000Y-106800000D01*
X138650000Y-95300000D02*
X144650000Y-95300000D01*
X138650000Y-106800000D02*
X138650000Y-95300000D01*
%TO.C,PS7*%
X145200000Y-120300000D02*
G75*
G02X145200000Y-120200000I0J50000D01*
G01*
X145200000Y-120200000D02*
G75*
G02X145200000Y-120300000I0J-50000D01*
G01*
X145200000Y-120200000D02*
X145200000Y-120200000D01*
X145200000Y-120300000D02*
X145200000Y-120300000D01*
X144650000Y-121800000D02*
X138650000Y-121800000D01*
X144650000Y-110300000D02*
X144650000Y-121800000D01*
X138650000Y-110300000D02*
X144650000Y-110300000D01*
X138650000Y-121800000D02*
X138650000Y-110300000D01*
%TO.C,PS6*%
X145200000Y-135300000D02*
G75*
G02X145200000Y-135200000I0J50000D01*
G01*
X145200000Y-135200000D02*
G75*
G02X145200000Y-135300000I0J-50000D01*
G01*
X145200000Y-135200000D02*
X145200000Y-135200000D01*
X145200000Y-135300000D02*
X145200000Y-135300000D01*
X144650000Y-136800000D02*
X138650000Y-136800000D01*
X144650000Y-125300000D02*
X144650000Y-136800000D01*
X138650000Y-125300000D02*
X144650000Y-125300000D01*
X138650000Y-136800000D02*
X138650000Y-125300000D01*
%TO.C,PS5*%
X165200000Y-75300000D02*
G75*
G02X165200000Y-75200000I0J50000D01*
G01*
X165200000Y-75200000D02*
G75*
G02X165200000Y-75300000I0J-50000D01*
G01*
X165200000Y-75200000D02*
X165200000Y-75200000D01*
X165200000Y-75300000D02*
X165200000Y-75300000D01*
X164650000Y-76800000D02*
X158650000Y-76800000D01*
X164650000Y-65300000D02*
X164650000Y-76800000D01*
X158650000Y-65300000D02*
X164650000Y-65300000D01*
X158650000Y-76800000D02*
X158650000Y-65300000D01*
%TO.C,PS4*%
X165200000Y-90300000D02*
G75*
G02X165200000Y-90200000I0J50000D01*
G01*
X165200000Y-90200000D02*
G75*
G02X165200000Y-90300000I0J-50000D01*
G01*
X165200000Y-90200000D02*
X165200000Y-90200000D01*
X165200000Y-90300000D02*
X165200000Y-90300000D01*
X164650000Y-91800000D02*
X158650000Y-91800000D01*
X164650000Y-80300000D02*
X164650000Y-91800000D01*
X158650000Y-80300000D02*
X164650000Y-80300000D01*
X158650000Y-91800000D02*
X158650000Y-80300000D01*
%TO.C,PS3*%
X165200000Y-105300000D02*
G75*
G02X165200000Y-105200000I0J50000D01*
G01*
X165200000Y-105200000D02*
G75*
G02X165200000Y-105300000I0J-50000D01*
G01*
X165200000Y-105200000D02*
X165200000Y-105200000D01*
X165200000Y-105300000D02*
X165200000Y-105300000D01*
X164650000Y-106800000D02*
X158650000Y-106800000D01*
X164650000Y-95300000D02*
X164650000Y-106800000D01*
X158650000Y-95300000D02*
X164650000Y-95300000D01*
X158650000Y-106800000D02*
X158650000Y-95300000D01*
%TO.C,PS2*%
X165200000Y-120300000D02*
G75*
G02X165200000Y-120200000I0J50000D01*
G01*
X165200000Y-120200000D02*
G75*
G02X165200000Y-120300000I0J-50000D01*
G01*
X165200000Y-120200000D02*
X165200000Y-120200000D01*
X165200000Y-120300000D02*
X165200000Y-120300000D01*
X164650000Y-121800000D02*
X158650000Y-121800000D01*
X164650000Y-110300000D02*
X164650000Y-121800000D01*
X158650000Y-110300000D02*
X164650000Y-110300000D01*
X158650000Y-121800000D02*
X158650000Y-110300000D01*
%TO.C,PS1*%
X165200000Y-135300000D02*
G75*
G02X165200000Y-135200000I0J50000D01*
G01*
X165200000Y-135200000D02*
G75*
G02X165200000Y-135300000I0J-50000D01*
G01*
X165200000Y-135200000D02*
X165200000Y-135200000D01*
X165200000Y-135300000D02*
X165200000Y-135300000D01*
X164650000Y-136800000D02*
X158650000Y-136800000D01*
X164650000Y-125300000D02*
X164650000Y-136800000D01*
X158650000Y-125300000D02*
X164650000Y-125300000D01*
X158650000Y-136800000D02*
X158650000Y-125300000D01*
D10*
%TO.C,J24*%
X193920000Y-65681000D02*
X195190000Y-66951000D01*
X185030000Y-65681000D02*
X193920000Y-65681000D01*
X188078000Y-90319000D02*
X185030000Y-90319000D01*
X195190000Y-89049000D02*
X193920000Y-90319000D01*
X185030000Y-90319000D02*
X185030000Y-65681000D01*
X188078000Y-90319000D02*
X193920000Y-90319000D01*
X195190000Y-89049000D02*
X195190000Y-66951000D01*
%TO.C,J23*%
X193920000Y-91681000D02*
X195190000Y-92951000D01*
X185030000Y-91681000D02*
X193920000Y-91681000D01*
X188078000Y-116319000D02*
X185030000Y-116319000D01*
X195190000Y-115049000D02*
X193920000Y-116319000D01*
X185030000Y-116319000D02*
X185030000Y-91681000D01*
X188078000Y-116319000D02*
X193920000Y-116319000D01*
X195190000Y-115049000D02*
X195190000Y-92951000D01*
D11*
%TO.C,TP21*%
X156300000Y-132900000D02*
X156300000Y-135300000D01*
X153900000Y-132900000D02*
X156300000Y-132900000D01*
X153900000Y-135300000D02*
X153900000Y-132900000D01*
X156300000Y-135300000D02*
X153900000Y-135300000D01*
%TO.C,TP38*%
X156300000Y-111700000D02*
X156300000Y-114100000D01*
X153900000Y-111700000D02*
X156300000Y-111700000D01*
X153900000Y-114100000D02*
X153900000Y-111700000D01*
X156300000Y-114100000D02*
X153900000Y-114100000D01*
%TO.C,TP37*%
X156300000Y-117900000D02*
X156300000Y-120300000D01*
X153900000Y-117900000D02*
X156300000Y-117900000D01*
X153900000Y-120300000D02*
X153900000Y-117900000D01*
X156300000Y-120300000D02*
X153900000Y-120300000D01*
%TO.C,TP36*%
X156300000Y-96700000D02*
X156300000Y-99100000D01*
X153900000Y-96700000D02*
X156300000Y-96700000D01*
X153900000Y-99100000D02*
X153900000Y-96700000D01*
X156300000Y-99100000D02*
X153900000Y-99100000D01*
%TO.C,TP35*%
X156300000Y-102900000D02*
X156300000Y-105300000D01*
X153900000Y-102900000D02*
X156300000Y-102900000D01*
X153900000Y-105300000D02*
X153900000Y-102900000D01*
X156300000Y-105300000D02*
X153900000Y-105300000D01*
%TO.C,TP34*%
X156300000Y-81700000D02*
X156300000Y-84100000D01*
X153900000Y-81700000D02*
X156300000Y-81700000D01*
X153900000Y-84100000D02*
X153900000Y-81700000D01*
X156300000Y-84100000D02*
X153900000Y-84100000D01*
%TO.C,TP33*%
X156300000Y-87900000D02*
X156300000Y-90300000D01*
X153900000Y-87900000D02*
X156300000Y-87900000D01*
X153900000Y-90300000D02*
X153900000Y-87900000D01*
X156300000Y-90300000D02*
X153900000Y-90300000D01*
%TO.C,TP32*%
X156300000Y-66700000D02*
X156300000Y-69100000D01*
X153900000Y-66700000D02*
X156300000Y-66700000D01*
X153900000Y-69100000D02*
X153900000Y-66700000D01*
X156300000Y-69100000D02*
X153900000Y-69100000D01*
%TO.C,TP31*%
X156300000Y-72900000D02*
X156300000Y-75300000D01*
X153900000Y-72900000D02*
X156300000Y-72900000D01*
X153900000Y-75300000D02*
X153900000Y-72900000D01*
X156300000Y-75300000D02*
X153900000Y-75300000D01*
%TO.C,TP30*%
X136300000Y-126700000D02*
X136300000Y-129100000D01*
X133900000Y-126700000D02*
X136300000Y-126700000D01*
X133900000Y-129100000D02*
X133900000Y-126700000D01*
X136300000Y-129100000D02*
X133900000Y-129100000D01*
%TO.C,TP29*%
X136300000Y-132900000D02*
X136300000Y-135300000D01*
X133900000Y-132900000D02*
X136300000Y-132900000D01*
X133900000Y-135300000D02*
X133900000Y-132900000D01*
X136300000Y-135300000D02*
X133900000Y-135300000D01*
%TO.C,TP28*%
X136300000Y-111700000D02*
X136300000Y-114100000D01*
X133900000Y-111700000D02*
X136300000Y-111700000D01*
X133900000Y-114100000D02*
X133900000Y-111700000D01*
X136300000Y-114100000D02*
X133900000Y-114100000D01*
%TO.C,TP27*%
X136300000Y-117900000D02*
X136300000Y-120300000D01*
X133900000Y-117900000D02*
X136300000Y-117900000D01*
X133900000Y-120300000D02*
X133900000Y-117900000D01*
X136300000Y-120300000D02*
X133900000Y-120300000D01*
%TO.C,TP26*%
X136300000Y-96700000D02*
X136300000Y-99100000D01*
X133900000Y-96700000D02*
X136300000Y-96700000D01*
X133900000Y-99100000D02*
X133900000Y-96700000D01*
X136300000Y-99100000D02*
X133900000Y-99100000D01*
%TO.C,TP25*%
X136300000Y-102900000D02*
X136300000Y-105300000D01*
X133900000Y-102900000D02*
X136300000Y-102900000D01*
X133900000Y-105300000D02*
X133900000Y-102900000D01*
X136300000Y-105300000D02*
X133900000Y-105300000D01*
%TO.C,TP24*%
X136300000Y-81700000D02*
X136300000Y-84100000D01*
X133900000Y-81700000D02*
X136300000Y-81700000D01*
X133900000Y-84100000D02*
X133900000Y-81700000D01*
X136300000Y-84100000D02*
X133900000Y-84100000D01*
%TO.C,TP23*%
X136300000Y-87900000D02*
X136300000Y-90300000D01*
X133900000Y-87900000D02*
X136300000Y-87900000D01*
X133900000Y-90300000D02*
X133900000Y-87900000D01*
X136300000Y-90300000D02*
X133900000Y-90300000D01*
%TO.C,TP22*%
X156300000Y-126700000D02*
X156300000Y-129100000D01*
X153900000Y-126700000D02*
X156300000Y-126700000D01*
X153900000Y-129100000D02*
X153900000Y-126700000D01*
X156300000Y-129100000D02*
X153900000Y-129100000D01*
%TO.C,TP20*%
X113700000Y-113900000D02*
X113700000Y-116300000D01*
X111300000Y-113900000D02*
X113700000Y-113900000D01*
X111300000Y-116300000D02*
X111300000Y-113900000D01*
X113700000Y-116300000D02*
X111300000Y-116300000D01*
%TO.C,TP19*%
X113700000Y-120100000D02*
X113700000Y-122500000D01*
X111300000Y-120100000D02*
X113700000Y-120100000D01*
X111300000Y-122500000D02*
X111300000Y-120100000D01*
X113700000Y-122500000D02*
X111300000Y-122500000D01*
%TO.C,TP18*%
X113700000Y-85400000D02*
X113700000Y-87800000D01*
X111300000Y-85400000D02*
X113700000Y-85400000D01*
X111300000Y-87800000D02*
X111300000Y-85400000D01*
X113700000Y-87800000D02*
X111300000Y-87800000D01*
%TO.C,TP17*%
X113700000Y-91600000D02*
X113700000Y-94000000D01*
X111300000Y-91600000D02*
X113700000Y-91600000D01*
X111300000Y-94000000D02*
X111300000Y-91600000D01*
X113700000Y-94000000D02*
X111300000Y-94000000D01*
%TO.C,TP12*%
X177900000Y-45840000D02*
X180300000Y-45840000D01*
X177900000Y-48240000D02*
X177900000Y-45840000D01*
X180300000Y-48240000D02*
X177900000Y-48240000D01*
X180300000Y-45840000D02*
X180300000Y-48240000D01*
%TO.C,TP11*%
X177900000Y-53840000D02*
X180300000Y-53840000D01*
X177900000Y-56240000D02*
X177900000Y-53840000D01*
X180300000Y-56240000D02*
X177900000Y-56240000D01*
X180300000Y-53840000D02*
X180300000Y-56240000D01*
%TO.C,TP10*%
X177900000Y-61840000D02*
X180300000Y-61840000D01*
X177900000Y-64240000D02*
X177900000Y-61840000D01*
X180300000Y-64240000D02*
X177900000Y-64240000D01*
X180300000Y-61840000D02*
X180300000Y-64240000D01*
%TO.C,TP9*%
X177900000Y-69840000D02*
X180300000Y-69840000D01*
X177900000Y-72240000D02*
X177900000Y-69840000D01*
X180300000Y-72240000D02*
X177900000Y-72240000D01*
X180300000Y-69840000D02*
X180300000Y-72240000D01*
%TO.C,TP8*%
X177900000Y-77840000D02*
X180300000Y-77840000D01*
X177900000Y-80240000D02*
X177900000Y-77840000D01*
X180300000Y-80240000D02*
X177900000Y-80240000D01*
X180300000Y-77840000D02*
X180300000Y-80240000D01*
%TO.C,TP7*%
X177900000Y-85840000D02*
X180300000Y-85840000D01*
X177900000Y-88240000D02*
X177900000Y-85840000D01*
X180300000Y-88240000D02*
X177900000Y-88240000D01*
X180300000Y-85840000D02*
X180300000Y-88240000D01*
%TO.C,TP6*%
X177900000Y-93840000D02*
X180300000Y-93840000D01*
X177900000Y-96240000D02*
X177900000Y-93840000D01*
X180300000Y-96240000D02*
X177900000Y-96240000D01*
X180300000Y-93840000D02*
X180300000Y-96240000D01*
%TO.C,TP5*%
X177900000Y-101840000D02*
X180300000Y-101840000D01*
X177900000Y-104240000D02*
X177900000Y-101840000D01*
X180300000Y-104240000D02*
X177900000Y-104240000D01*
X180300000Y-101840000D02*
X180300000Y-104240000D01*
%TO.C,TP4*%
X177900000Y-109840000D02*
X180300000Y-109840000D01*
X177900000Y-112240000D02*
X177900000Y-109840000D01*
X180300000Y-112240000D02*
X177900000Y-112240000D01*
X180300000Y-109840000D02*
X180300000Y-112240000D01*
%TO.C,TP3*%
X177900000Y-117840000D02*
X180300000Y-117840000D01*
X177900000Y-120240000D02*
X177900000Y-117840000D01*
X180300000Y-120240000D02*
X177900000Y-120240000D01*
X180300000Y-117840000D02*
X180300000Y-120240000D01*
%TO.C,TP2*%
X177900000Y-125840000D02*
X180300000Y-125840000D01*
X177900000Y-128240000D02*
X177900000Y-125840000D01*
X180300000Y-128240000D02*
X177900000Y-128240000D01*
X180300000Y-125840000D02*
X180300000Y-128240000D01*
%TO.C,TP1*%
X177900000Y-133840000D02*
X180300000Y-133840000D01*
X177900000Y-136240000D02*
X177900000Y-133840000D01*
X180300000Y-136240000D02*
X177900000Y-136240000D01*
X180300000Y-133840000D02*
X180300000Y-136240000D01*
%TO.C,J22*%
X149410000Y-133570000D02*
X152070000Y-133570000D01*
X149410000Y-130970000D02*
X149410000Y-133570000D01*
X152070000Y-130970000D02*
X152070000Y-133570000D01*
X149410000Y-130970000D02*
X152070000Y-130970000D01*
X149410000Y-129700000D02*
X149410000Y-128370000D01*
X149410000Y-128370000D02*
X150740000Y-128370000D01*
%TO.C,J21*%
X149410000Y-118570000D02*
X152070000Y-118570000D01*
X149410000Y-115970000D02*
X149410000Y-118570000D01*
X152070000Y-115970000D02*
X152070000Y-118570000D01*
X149410000Y-115970000D02*
X152070000Y-115970000D01*
X149410000Y-114700000D02*
X149410000Y-113370000D01*
X149410000Y-113370000D02*
X150740000Y-113370000D01*
%TO.C,J20*%
X149410000Y-103570000D02*
X152070000Y-103570000D01*
X149410000Y-100970000D02*
X149410000Y-103570000D01*
X152070000Y-100970000D02*
X152070000Y-103570000D01*
X149410000Y-100970000D02*
X152070000Y-100970000D01*
X149410000Y-99700000D02*
X149410000Y-98370000D01*
X149410000Y-98370000D02*
X150740000Y-98370000D01*
%TO.C,J19*%
X149410000Y-88570000D02*
X152070000Y-88570000D01*
X149410000Y-85970000D02*
X149410000Y-88570000D01*
X152070000Y-85970000D02*
X152070000Y-88570000D01*
X149410000Y-85970000D02*
X152070000Y-85970000D01*
X149410000Y-84700000D02*
X149410000Y-83370000D01*
X149410000Y-83370000D02*
X150740000Y-83370000D01*
%TO.C,J18*%
X149410000Y-73570000D02*
X152070000Y-73570000D01*
X149410000Y-70970000D02*
X149410000Y-73570000D01*
X152070000Y-70970000D02*
X152070000Y-73570000D01*
X149410000Y-70970000D02*
X152070000Y-70970000D01*
X149410000Y-69700000D02*
X149410000Y-68370000D01*
X149410000Y-68370000D02*
X150740000Y-68370000D01*
%TO.C,J17*%
X129410000Y-133570000D02*
X132070000Y-133570000D01*
X129410000Y-130970000D02*
X129410000Y-133570000D01*
X132070000Y-130970000D02*
X132070000Y-133570000D01*
X129410000Y-130970000D02*
X132070000Y-130970000D01*
X129410000Y-129700000D02*
X129410000Y-128370000D01*
X129410000Y-128370000D02*
X130740000Y-128370000D01*
%TO.C,J16*%
X129410000Y-118570000D02*
X132070000Y-118570000D01*
X129410000Y-115970000D02*
X129410000Y-118570000D01*
X132070000Y-115970000D02*
X132070000Y-118570000D01*
X129410000Y-115970000D02*
X132070000Y-115970000D01*
X129410000Y-114700000D02*
X129410000Y-113370000D01*
X129410000Y-113370000D02*
X130740000Y-113370000D01*
%TO.C,J15*%
X129410000Y-103570000D02*
X132070000Y-103570000D01*
X129410000Y-100970000D02*
X129410000Y-103570000D01*
X132070000Y-100970000D02*
X132070000Y-103570000D01*
X129410000Y-100970000D02*
X132070000Y-100970000D01*
X129410000Y-99700000D02*
X129410000Y-98370000D01*
X129410000Y-98370000D02*
X130740000Y-98370000D01*
%TO.C,J14*%
X129410000Y-88570000D02*
X132070000Y-88570000D01*
X129410000Y-85970000D02*
X129410000Y-88570000D01*
X132070000Y-85970000D02*
X132070000Y-88570000D01*
X129410000Y-85970000D02*
X132070000Y-85970000D01*
X129410000Y-84700000D02*
X129410000Y-83370000D01*
X129410000Y-83370000D02*
X130740000Y-83370000D01*
%TO.C,J13*%
X106270000Y-120870000D02*
X108930000Y-120870000D01*
X106270000Y-118270000D02*
X106270000Y-120870000D01*
X108930000Y-118270000D02*
X108930000Y-120870000D01*
X106270000Y-118270000D02*
X108930000Y-118270000D01*
X106270000Y-117000000D02*
X106270000Y-115670000D01*
X106270000Y-115670000D02*
X107600000Y-115670000D01*
%TO.C,J12*%
X106270000Y-92370000D02*
X108930000Y-92370000D01*
X106270000Y-89770000D02*
X106270000Y-92370000D01*
X108930000Y-89770000D02*
X108930000Y-92370000D01*
X106270000Y-89770000D02*
X108930000Y-89770000D01*
X106270000Y-88500000D02*
X106270000Y-87170000D01*
X106270000Y-87170000D02*
X107600000Y-87170000D01*
%TO.C,J11*%
X171770000Y-56370000D02*
X174430000Y-56370000D01*
X171770000Y-53770000D02*
X171770000Y-56370000D01*
X174430000Y-53770000D02*
X174430000Y-56370000D01*
X171770000Y-53770000D02*
X174430000Y-53770000D01*
X171770000Y-52500000D02*
X171770000Y-51170000D01*
X171770000Y-51170000D02*
X173100000Y-51170000D01*
%TO.C,J10*%
X171770000Y-64370000D02*
X174430000Y-64370000D01*
X171770000Y-61770000D02*
X171770000Y-64370000D01*
X174430000Y-61770000D02*
X174430000Y-64370000D01*
X171770000Y-61770000D02*
X174430000Y-61770000D01*
X171770000Y-60500000D02*
X171770000Y-59170000D01*
X171770000Y-59170000D02*
X173100000Y-59170000D01*
%TO.C,J9*%
X171770000Y-72370000D02*
X174430000Y-72370000D01*
X171770000Y-69770000D02*
X171770000Y-72370000D01*
X174430000Y-69770000D02*
X174430000Y-72370000D01*
X171770000Y-69770000D02*
X174430000Y-69770000D01*
X171770000Y-68500000D02*
X171770000Y-67170000D01*
X171770000Y-67170000D02*
X173100000Y-67170000D01*
%TO.C,J8*%
X171770000Y-80370000D02*
X174430000Y-80370000D01*
X171770000Y-77770000D02*
X171770000Y-80370000D01*
X174430000Y-77770000D02*
X174430000Y-80370000D01*
X171770000Y-77770000D02*
X174430000Y-77770000D01*
X171770000Y-76500000D02*
X171770000Y-75170000D01*
X171770000Y-75170000D02*
X173100000Y-75170000D01*
%TO.C,J7*%
X171770000Y-88370000D02*
X174430000Y-88370000D01*
X171770000Y-85770000D02*
X171770000Y-88370000D01*
X174430000Y-85770000D02*
X174430000Y-88370000D01*
X171770000Y-85770000D02*
X174430000Y-85770000D01*
X171770000Y-84500000D02*
X171770000Y-83170000D01*
X171770000Y-83170000D02*
X173100000Y-83170000D01*
%TO.C,J6*%
X171770000Y-96370000D02*
X174430000Y-96370000D01*
X171770000Y-93770000D02*
X171770000Y-96370000D01*
X174430000Y-93770000D02*
X174430000Y-96370000D01*
X171770000Y-93770000D02*
X174430000Y-93770000D01*
X171770000Y-92500000D02*
X171770000Y-91170000D01*
X171770000Y-91170000D02*
X173100000Y-91170000D01*
%TO.C,J5*%
X171770000Y-104370000D02*
X174430000Y-104370000D01*
X171770000Y-101770000D02*
X171770000Y-104370000D01*
X174430000Y-101770000D02*
X174430000Y-104370000D01*
X171770000Y-101770000D02*
X174430000Y-101770000D01*
X171770000Y-100500000D02*
X171770000Y-99170000D01*
X171770000Y-99170000D02*
X173100000Y-99170000D01*
%TO.C,J4*%
X171770000Y-112370000D02*
X174430000Y-112370000D01*
X171770000Y-109770000D02*
X171770000Y-112370000D01*
X174430000Y-109770000D02*
X174430000Y-112370000D01*
X171770000Y-109770000D02*
X174430000Y-109770000D01*
X171770000Y-108500000D02*
X171770000Y-107170000D01*
X171770000Y-107170000D02*
X173100000Y-107170000D01*
%TO.C,J3*%
X171770000Y-120370000D02*
X174430000Y-120370000D01*
X171770000Y-117770000D02*
X171770000Y-120370000D01*
X174430000Y-117770000D02*
X174430000Y-120370000D01*
X171770000Y-117770000D02*
X174430000Y-117770000D01*
X171770000Y-116500000D02*
X171770000Y-115170000D01*
X171770000Y-115170000D02*
X173100000Y-115170000D01*
%TO.C,J2*%
X171770000Y-128370000D02*
X174430000Y-128370000D01*
X171770000Y-125770000D02*
X171770000Y-128370000D01*
X174430000Y-125770000D02*
X174430000Y-128370000D01*
X171770000Y-125770000D02*
X174430000Y-125770000D01*
X171770000Y-124500000D02*
X171770000Y-123170000D01*
X171770000Y-123170000D02*
X173100000Y-123170000D01*
%TO.C,J1*%
X171770000Y-136370000D02*
X174430000Y-136370000D01*
X171770000Y-133770000D02*
X171770000Y-136370000D01*
X174430000Y-133770000D02*
X174430000Y-136370000D01*
X171770000Y-133770000D02*
X174430000Y-133770000D01*
X171770000Y-132500000D02*
X171770000Y-131170000D01*
X171770000Y-131170000D02*
X173100000Y-131170000D01*
D15*
%TO.C,LOGO2*%
G36*
X152301583Y-56740687D02*
G01*
X152485010Y-56606373D01*
X152755292Y-56421952D01*
X153083442Y-56206240D01*
X153440474Y-55978052D01*
X153797401Y-55756205D01*
X154125235Y-55559514D01*
X154362379Y-55424511D01*
X155109592Y-55057360D01*
X155839034Y-54778962D01*
X156527050Y-54594856D01*
X157149988Y-54510576D01*
X157684193Y-54531661D01*
X157929657Y-54589531D01*
X158413131Y-54835723D01*
X158814541Y-55227795D01*
X159100449Y-55699571D01*
X159215497Y-55966580D01*
X159298173Y-56202155D01*
X159344075Y-56381027D01*
X159348801Y-56477926D01*
X159307950Y-56467582D01*
X159217121Y-56324726D01*
X159205551Y-56303000D01*
X158872360Y-55839158D01*
X158423612Y-55465070D01*
X158287666Y-55385079D01*
X158114575Y-55303552D01*
X157929985Y-55250582D01*
X157692995Y-55220624D01*
X157362704Y-55208131D01*
X156975333Y-55207113D01*
X156513087Y-55214930D01*
X156157723Y-55239486D01*
X155846941Y-55290339D01*
X155518442Y-55377045D01*
X155197333Y-55479875D01*
X154804308Y-55625216D01*
X154322265Y-55825059D01*
X153811207Y-56053489D01*
X153331137Y-56284592D01*
X153313500Y-56293488D01*
X152929660Y-56485329D01*
X152605966Y-56642972D01*
X152369073Y-56753760D01*
X152245636Y-56805036D01*
X152234000Y-56806077D01*
X152301583Y-56740687D01*
G37*
X152301583Y-56740687D02*
X152485010Y-56606373D01*
X152755292Y-56421952D01*
X153083442Y-56206240D01*
X153440474Y-55978052D01*
X153797401Y-55756205D01*
X154125235Y-55559514D01*
X154362379Y-55424511D01*
X155109592Y-55057360D01*
X155839034Y-54778962D01*
X156527050Y-54594856D01*
X157149988Y-54510576D01*
X157684193Y-54531661D01*
X157929657Y-54589531D01*
X158413131Y-54835723D01*
X158814541Y-55227795D01*
X159100449Y-55699571D01*
X159215497Y-55966580D01*
X159298173Y-56202155D01*
X159344075Y-56381027D01*
X159348801Y-56477926D01*
X159307950Y-56467582D01*
X159217121Y-56324726D01*
X159205551Y-56303000D01*
X158872360Y-55839158D01*
X158423612Y-55465070D01*
X158287666Y-55385079D01*
X158114575Y-55303552D01*
X157929985Y-55250582D01*
X157692995Y-55220624D01*
X157362704Y-55208131D01*
X156975333Y-55207113D01*
X156513087Y-55214930D01*
X156157723Y-55239486D01*
X155846941Y-55290339D01*
X155518442Y-55377045D01*
X155197333Y-55479875D01*
X154804308Y-55625216D01*
X154322265Y-55825059D01*
X153811207Y-56053489D01*
X153331137Y-56284592D01*
X153313500Y-56293488D01*
X152929660Y-56485329D01*
X152605966Y-56642972D01*
X152369073Y-56753760D01*
X152245636Y-56805036D01*
X152234000Y-56806077D01*
X152301583Y-56740687D01*
G36*
X149023384Y-58105116D02*
G01*
X148256905Y-58023301D01*
X147585679Y-57878861D01*
X147450333Y-57837011D01*
X146813721Y-57580027D01*
X146318334Y-57282025D01*
X145968625Y-56951636D01*
X145769048Y-56597489D01*
X145724056Y-56228214D01*
X145838103Y-55852440D01*
X146115643Y-55478797D01*
X146193941Y-55402499D01*
X146653294Y-55080200D01*
X147235672Y-54838255D01*
X147911566Y-54683482D01*
X148651469Y-54622695D01*
X149406278Y-54660423D01*
X149798741Y-54724381D01*
X150204886Y-54819850D01*
X150476958Y-54905274D01*
X150845756Y-55069092D01*
X151247258Y-55288415D01*
X151630836Y-55531706D01*
X151945862Y-55767430D01*
X152107000Y-55920642D01*
X152276333Y-56114499D01*
X152022333Y-55985314D01*
X151367245Y-55722588D01*
X150623870Y-55542697D01*
X149834552Y-55447421D01*
X149041634Y-55438541D01*
X148287458Y-55517837D01*
X147614368Y-55687091D01*
X147357861Y-55789130D01*
X146931482Y-56031941D01*
X146669786Y-56291775D01*
X146569991Y-56560575D01*
X146629314Y-56830283D01*
X146844973Y-57092840D01*
X147214185Y-57340190D01*
X147734169Y-57564274D01*
X148000666Y-57650650D01*
X148816797Y-57824771D01*
X149719602Y-57897257D01*
X150661306Y-57869413D01*
X151594134Y-57742547D01*
X152435111Y-57529399D01*
X152767390Y-57426047D01*
X153032869Y-57350087D01*
X153195026Y-57311618D01*
X153227242Y-57310353D01*
X153184995Y-57364550D01*
X153011425Y-57451263D01*
X152738765Y-57559156D01*
X152399248Y-57676889D01*
X152025106Y-57793124D01*
X151648572Y-57896522D01*
X151383343Y-57958966D01*
X150637703Y-58074533D01*
X149834017Y-58122721D01*
X149023384Y-58105116D01*
G37*
X149023384Y-58105116D02*
X148256905Y-58023301D01*
X147585679Y-57878861D01*
X147450333Y-57837011D01*
X146813721Y-57580027D01*
X146318334Y-57282025D01*
X145968625Y-56951636D01*
X145769048Y-56597489D01*
X145724056Y-56228214D01*
X145838103Y-55852440D01*
X146115643Y-55478797D01*
X146193941Y-55402499D01*
X146653294Y-55080200D01*
X147235672Y-54838255D01*
X147911566Y-54683482D01*
X148651469Y-54622695D01*
X149406278Y-54660423D01*
X149798741Y-54724381D01*
X150204886Y-54819850D01*
X150476958Y-54905274D01*
X150845756Y-55069092D01*
X151247258Y-55288415D01*
X151630836Y-55531706D01*
X151945862Y-55767430D01*
X152107000Y-55920642D01*
X152276333Y-56114499D01*
X152022333Y-55985314D01*
X151367245Y-55722588D01*
X150623870Y-55542697D01*
X149834552Y-55447421D01*
X149041634Y-55438541D01*
X148287458Y-55517837D01*
X147614368Y-55687091D01*
X147357861Y-55789130D01*
X146931482Y-56031941D01*
X146669786Y-56291775D01*
X146569991Y-56560575D01*
X146629314Y-56830283D01*
X146844973Y-57092840D01*
X147214185Y-57340190D01*
X147734169Y-57564274D01*
X148000666Y-57650650D01*
X148816797Y-57824771D01*
X149719602Y-57897257D01*
X150661306Y-57869413D01*
X151594134Y-57742547D01*
X152435111Y-57529399D01*
X152767390Y-57426047D01*
X153032869Y-57350087D01*
X153195026Y-57311618D01*
X153227242Y-57310353D01*
X153184995Y-57364550D01*
X153011425Y-57451263D01*
X152738765Y-57559156D01*
X152399248Y-57676889D01*
X152025106Y-57793124D01*
X151648572Y-57896522D01*
X151383343Y-57958966D01*
X150637703Y-58074533D01*
X149834017Y-58122721D01*
X149023384Y-58105116D01*
G36*
X154246057Y-58944338D02*
G01*
X152631699Y-58890163D01*
X150863779Y-58804187D01*
X148943471Y-58686327D01*
X148678000Y-58668337D01*
X148025054Y-58622320D01*
X147334444Y-58571398D01*
X146656667Y-58519447D01*
X146042222Y-58470345D01*
X145541607Y-58427970D01*
X145503000Y-58424542D01*
X144233000Y-58311199D01*
X146138000Y-58365433D01*
X146954920Y-58385268D01*
X147840947Y-58400676D01*
X148776118Y-58411766D01*
X149740473Y-58418643D01*
X150714050Y-58421415D01*
X151676887Y-58420189D01*
X152609022Y-58415073D01*
X153490493Y-58406172D01*
X154301340Y-58393596D01*
X155021599Y-58377449D01*
X155631310Y-58357841D01*
X156110511Y-58334877D01*
X156425000Y-58310233D01*
X157399560Y-58190575D01*
X158212254Y-58057796D01*
X158870220Y-57909356D01*
X159380594Y-57742717D01*
X159750513Y-57555339D01*
X159987114Y-57344682D01*
X160097533Y-57108207D01*
X160108000Y-56999811D01*
X160058075Y-56757176D01*
X159937500Y-56513113D01*
X159932901Y-56506570D01*
X159834737Y-56354446D01*
X159824275Y-56286366D01*
X159914724Y-56304997D01*
X160119295Y-56413003D01*
X160446666Y-56610255D01*
X160875374Y-56900062D01*
X161239208Y-57194818D01*
X161511715Y-57470068D01*
X161666441Y-57701357D01*
X161685108Y-57755122D01*
X161671021Y-58014430D01*
X161491618Y-58242760D01*
X161148074Y-58440032D01*
X160641565Y-58606161D01*
X159973266Y-58741066D01*
X159144353Y-58844664D01*
X158156000Y-58916873D01*
X157009382Y-58957610D01*
X155705677Y-58966792D01*
X154246057Y-58944338D01*
G37*
X154246057Y-58944338D02*
X152631699Y-58890163D01*
X150863779Y-58804187D01*
X148943471Y-58686327D01*
X148678000Y-58668337D01*
X148025054Y-58622320D01*
X147334444Y-58571398D01*
X146656667Y-58519447D01*
X146042222Y-58470345D01*
X145541607Y-58427970D01*
X145503000Y-58424542D01*
X144233000Y-58311199D01*
X146138000Y-58365433D01*
X146954920Y-58385268D01*
X147840947Y-58400676D01*
X148776118Y-58411766D01*
X149740473Y-58418643D01*
X150714050Y-58421415D01*
X151676887Y-58420189D01*
X152609022Y-58415073D01*
X153490493Y-58406172D01*
X154301340Y-58393596D01*
X155021599Y-58377449D01*
X155631310Y-58357841D01*
X156110511Y-58334877D01*
X156425000Y-58310233D01*
X157399560Y-58190575D01*
X158212254Y-58057796D01*
X158870220Y-57909356D01*
X159380594Y-57742717D01*
X159750513Y-57555339D01*
X159987114Y-57344682D01*
X160097533Y-57108207D01*
X160108000Y-56999811D01*
X160058075Y-56757176D01*
X159937500Y-56513113D01*
X159932901Y-56506570D01*
X159834737Y-56354446D01*
X159824275Y-56286366D01*
X159914724Y-56304997D01*
X160119295Y-56413003D01*
X160446666Y-56610255D01*
X160875374Y-56900062D01*
X161239208Y-57194818D01*
X161511715Y-57470068D01*
X161666441Y-57701357D01*
X161685108Y-57755122D01*
X161671021Y-58014430D01*
X161491618Y-58242760D01*
X161148074Y-58440032D01*
X160641565Y-58606161D01*
X159973266Y-58741066D01*
X159144353Y-58844664D01*
X158156000Y-58916873D01*
X157009382Y-58957610D01*
X155705677Y-58966792D01*
X154246057Y-58944338D01*
G36*
X157671383Y-57630685D02*
G01*
X157654686Y-57551833D01*
X157678444Y-57337206D01*
X157733594Y-57077529D01*
X157802892Y-56839877D01*
X157869093Y-56691324D01*
X157878918Y-56679639D01*
X158068991Y-56584999D01*
X158317669Y-56556323D01*
X158520500Y-56604068D01*
X158619141Y-56739415D01*
X158669599Y-56963188D01*
X158674653Y-57223189D01*
X158637081Y-57467218D01*
X158559665Y-57643077D01*
X158462142Y-57700000D01*
X158402474Y-57641891D01*
X158385290Y-57453907D01*
X158397627Y-57226991D01*
X158415826Y-56959211D01*
X158403735Y-56821552D01*
X158347317Y-56775585D01*
X158235260Y-56782491D01*
X158111007Y-56824717D01*
X158032779Y-56936238D01*
X157975202Y-57160387D01*
X157958259Y-57255500D01*
X157888605Y-57541845D01*
X157804235Y-57686310D01*
X157767759Y-57700000D01*
X157671383Y-57630685D01*
G37*
X157671383Y-57630685D02*
X157654686Y-57551833D01*
X157678444Y-57337206D01*
X157733594Y-57077529D01*
X157802892Y-56839877D01*
X157869093Y-56691324D01*
X157878918Y-56679639D01*
X158068991Y-56584999D01*
X158317669Y-56556323D01*
X158520500Y-56604068D01*
X158619141Y-56739415D01*
X158669599Y-56963188D01*
X158674653Y-57223189D01*
X158637081Y-57467218D01*
X158559665Y-57643077D01*
X158462142Y-57700000D01*
X158402474Y-57641891D01*
X158385290Y-57453907D01*
X158397627Y-57226991D01*
X158415826Y-56959211D01*
X158403735Y-56821552D01*
X158347317Y-56775585D01*
X158235260Y-56782491D01*
X158111007Y-56824717D01*
X158032779Y-56936238D01*
X157975202Y-57160387D01*
X157958259Y-57255500D01*
X157888605Y-57541845D01*
X157804235Y-57686310D01*
X157767759Y-57700000D01*
X157671383Y-57630685D01*
G36*
X155832865Y-57656304D02*
G01*
X155811588Y-57594166D01*
X155914029Y-57511381D01*
X156044000Y-57488333D01*
X156226081Y-57448018D01*
X156260729Y-57351573D01*
X156142099Y-57235753D01*
X156088526Y-57208404D01*
X155914391Y-57060681D01*
X155889657Y-56871510D01*
X156016231Y-56682628D01*
X156062839Y-56646467D01*
X156273917Y-56532456D01*
X156445081Y-56540730D01*
X156541680Y-56591164D01*
X156622317Y-56692553D01*
X156567074Y-56772590D01*
X156409008Y-56798335D01*
X156342354Y-56789775D01*
X156174282Y-56799369D01*
X156128118Y-56884831D01*
X156207770Y-57000580D01*
X156318672Y-57066090D01*
X156494951Y-57215060D01*
X156537567Y-57415689D01*
X156463958Y-57577067D01*
X156335162Y-57655228D01*
X156148073Y-57695509D01*
X155961153Y-57696379D01*
X155832865Y-57656304D01*
G37*
X155832865Y-57656304D02*
X155811588Y-57594166D01*
X155914029Y-57511381D01*
X156044000Y-57488333D01*
X156226081Y-57448018D01*
X156260729Y-57351573D01*
X156142099Y-57235753D01*
X156088526Y-57208404D01*
X155914391Y-57060681D01*
X155889657Y-56871510D01*
X156016231Y-56682628D01*
X156062839Y-56646467D01*
X156273917Y-56532456D01*
X156445081Y-56540730D01*
X156541680Y-56591164D01*
X156622317Y-56692553D01*
X156567074Y-56772590D01*
X156409008Y-56798335D01*
X156342354Y-56789775D01*
X156174282Y-56799369D01*
X156128118Y-56884831D01*
X156207770Y-57000580D01*
X156318672Y-57066090D01*
X156494951Y-57215060D01*
X156537567Y-57415689D01*
X156463958Y-57577067D01*
X156335162Y-57655228D01*
X156148073Y-57695509D01*
X155961153Y-57696379D01*
X155832865Y-57656304D01*
G36*
X156793781Y-57686404D02*
G01*
X156663756Y-57639332D01*
X156636666Y-57573000D01*
X156706950Y-57469491D01*
X156803084Y-57446000D01*
X156908805Y-57414825D01*
X156975004Y-57295324D01*
X157022166Y-57048535D01*
X157025658Y-57022666D01*
X157085134Y-56736825D01*
X157168818Y-56608790D01*
X157205852Y-56599333D01*
X157276747Y-56631302D01*
X157297907Y-56751782D01*
X157275064Y-56997634D01*
X157271666Y-57022666D01*
X157245050Y-57276799D01*
X157260819Y-57404493D01*
X157326074Y-57444924D01*
X157348388Y-57446000D01*
X157465657Y-57510356D01*
X157483333Y-57573000D01*
X157438014Y-57652865D01*
X157281106Y-57691873D01*
X157060000Y-57700000D01*
X156793781Y-57686404D01*
G37*
X156793781Y-57686404D02*
X156663756Y-57639332D01*
X156636666Y-57573000D01*
X156706950Y-57469491D01*
X156803084Y-57446000D01*
X156908805Y-57414825D01*
X156975004Y-57295324D01*
X157022166Y-57048535D01*
X157025658Y-57022666D01*
X157085134Y-56736825D01*
X157168818Y-56608790D01*
X157205852Y-56599333D01*
X157276747Y-56631302D01*
X157297907Y-56751782D01*
X157275064Y-56997634D01*
X157271666Y-57022666D01*
X157245050Y-57276799D01*
X157260819Y-57404493D01*
X157326074Y-57444924D01*
X157348388Y-57446000D01*
X157465657Y-57510356D01*
X157483333Y-57573000D01*
X157438014Y-57652865D01*
X157281106Y-57691873D01*
X157060000Y-57700000D01*
X156793781Y-57686404D01*
G36*
X153862000Y-57691829D02*
G01*
X153671456Y-57664776D01*
X153607025Y-57615027D01*
X153609409Y-57594166D01*
X153712111Y-57498153D01*
X153828132Y-57461278D01*
X153971636Y-57389184D01*
X154013156Y-57207278D01*
X154042487Y-56892413D01*
X154118927Y-56678708D01*
X154230568Y-56599337D01*
X154231425Y-56599333D01*
X154291787Y-56624380D01*
X154313041Y-56719582D01*
X154294963Y-56915027D01*
X154237327Y-57240807D01*
X154226225Y-57297833D01*
X154258456Y-57422258D01*
X154351537Y-57446000D01*
X154497642Y-57491185D01*
X154537716Y-57541483D01*
X154588831Y-57521473D01*
X154693855Y-57379724D01*
X154831098Y-57146016D01*
X154846070Y-57118149D01*
X154999682Y-56859194D01*
X155139732Y-56673240D01*
X155236620Y-56599407D01*
X155238624Y-56599333D01*
X155328170Y-56676085D01*
X155428572Y-56880704D01*
X155487659Y-57056864D01*
X155576341Y-57379149D01*
X155611640Y-57572498D01*
X155593933Y-57668551D01*
X155523594Y-57698946D01*
X155495280Y-57700000D01*
X155388358Y-57627057D01*
X155318875Y-57467166D01*
X155252079Y-57197002D01*
X155192903Y-57085964D01*
X155121520Y-57126086D01*
X155018103Y-57309401D01*
X155002833Y-57340166D01*
X154825306Y-57700000D01*
X154199931Y-57700000D01*
X153862000Y-57691829D01*
G37*
X153862000Y-57691829D02*
X153671456Y-57664776D01*
X153607025Y-57615027D01*
X153609409Y-57594166D01*
X153712111Y-57498153D01*
X153828132Y-57461278D01*
X153971636Y-57389184D01*
X154013156Y-57207278D01*
X154042487Y-56892413D01*
X154118927Y-56678708D01*
X154230568Y-56599337D01*
X154231425Y-56599333D01*
X154291787Y-56624380D01*
X154313041Y-56719582D01*
X154294963Y-56915027D01*
X154237327Y-57240807D01*
X154226225Y-57297833D01*
X154258456Y-57422258D01*
X154351537Y-57446000D01*
X154497642Y-57491185D01*
X154537716Y-57541483D01*
X154588831Y-57521473D01*
X154693855Y-57379724D01*
X154831098Y-57146016D01*
X154846070Y-57118149D01*
X154999682Y-56859194D01*
X155139732Y-56673240D01*
X155236620Y-56599407D01*
X155238624Y-56599333D01*
X155328170Y-56676085D01*
X155428572Y-56880704D01*
X155487659Y-57056864D01*
X155576341Y-57379149D01*
X155611640Y-57572498D01*
X155593933Y-57668551D01*
X155523594Y-57698946D01*
X155495280Y-57700000D01*
X155388358Y-57627057D01*
X155318875Y-57467166D01*
X155252079Y-57197002D01*
X155192903Y-57085964D01*
X155121520Y-57126086D01*
X155018103Y-57309401D01*
X155002833Y-57340166D01*
X154825306Y-57700000D01*
X154199931Y-57700000D01*
X153862000Y-57691829D01*
G36*
X149974978Y-61082961D02*
G01*
X149667332Y-61000682D01*
X149040758Y-60726518D01*
X148436490Y-60306725D01*
X147887655Y-59764659D01*
X147848230Y-59718025D01*
X147635568Y-59452679D01*
X147465188Y-59220775D01*
X147357457Y-59052147D01*
X147332740Y-58976630D01*
X147341521Y-58975698D01*
X147412702Y-59029013D01*
X147581084Y-59165961D01*
X147814831Y-59360521D01*
X147900441Y-59432558D01*
X148612867Y-59961127D01*
X149330105Y-60341567D01*
X150066574Y-60575162D01*
X150836691Y-60663193D01*
X151654873Y-60606943D01*
X152535537Y-60407692D01*
X153493103Y-60066724D01*
X153759686Y-59953600D01*
X154128483Y-59798627D01*
X154353585Y-59717443D01*
X154441145Y-59704977D01*
X154397317Y-59756158D01*
X154228254Y-59865915D01*
X153940110Y-60029176D01*
X153539038Y-60240870D01*
X153207666Y-60408542D01*
X152428536Y-60765397D01*
X151742342Y-61006811D01*
X151122445Y-61137240D01*
X150542203Y-61161137D01*
X149974978Y-61082961D01*
G37*
X149974978Y-61082961D02*
X149667332Y-61000682D01*
X149040758Y-60726518D01*
X148436490Y-60306725D01*
X147887655Y-59764659D01*
X147848230Y-59718025D01*
X147635568Y-59452679D01*
X147465188Y-59220775D01*
X147357457Y-59052147D01*
X147332740Y-58976630D01*
X147341521Y-58975698D01*
X147412702Y-59029013D01*
X147581084Y-59165961D01*
X147814831Y-59360521D01*
X147900441Y-59432558D01*
X148612867Y-59961127D01*
X149330105Y-60341567D01*
X150066574Y-60575162D01*
X150836691Y-60663193D01*
X151654873Y-60606943D01*
X152535537Y-60407692D01*
X153493103Y-60066724D01*
X153759686Y-59953600D01*
X154128483Y-59798627D01*
X154353585Y-59717443D01*
X154441145Y-59704977D01*
X154397317Y-59756158D01*
X154228254Y-59865915D01*
X153940110Y-60029176D01*
X153539038Y-60240870D01*
X153207666Y-60408542D01*
X152428536Y-60765397D01*
X151742342Y-61006811D01*
X151122445Y-61137240D01*
X150542203Y-61161137D01*
X149974978Y-61082961D01*
%TO.C,RV4*%
D10*
X115792380Y-120495238D02*
X115316190Y-120828571D01*
X115792380Y-121066666D02*
X114792380Y-121066666D01*
X114792380Y-120685714D01*
X114840000Y-120590476D01*
X114887619Y-120542857D01*
X114982857Y-120495238D01*
X115125714Y-120495238D01*
X115220952Y-120542857D01*
X115268571Y-120590476D01*
X115316190Y-120685714D01*
X115316190Y-121066666D01*
X114792380Y-120209523D02*
X115792380Y-119876190D01*
X114792380Y-119542857D01*
X115125714Y-118780952D02*
X115792380Y-118780952D01*
X114744761Y-119019047D02*
X115459047Y-119257142D01*
X115459047Y-118638095D01*
%TO.C,RV3*%
X115792380Y-112095238D02*
X115316190Y-112428571D01*
X115792380Y-112666666D02*
X114792380Y-112666666D01*
X114792380Y-112285714D01*
X114840000Y-112190476D01*
X114887619Y-112142857D01*
X114982857Y-112095238D01*
X115125714Y-112095238D01*
X115220952Y-112142857D01*
X115268571Y-112190476D01*
X115316190Y-112285714D01*
X115316190Y-112666666D01*
X114792380Y-111809523D02*
X115792380Y-111476190D01*
X114792380Y-111142857D01*
X114792380Y-110904761D02*
X114792380Y-110285714D01*
X115173333Y-110619047D01*
X115173333Y-110476190D01*
X115220952Y-110380952D01*
X115268571Y-110333333D01*
X115363809Y-110285714D01*
X115601904Y-110285714D01*
X115697142Y-110333333D01*
X115744761Y-110380952D01*
X115792380Y-110476190D01*
X115792380Y-110761904D01*
X115744761Y-110857142D01*
X115697142Y-110904761D01*
%TO.C,RV2*%
X115792380Y-91995238D02*
X115316190Y-92328571D01*
X115792380Y-92566666D02*
X114792380Y-92566666D01*
X114792380Y-92185714D01*
X114840000Y-92090476D01*
X114887619Y-92042857D01*
X114982857Y-91995238D01*
X115125714Y-91995238D01*
X115220952Y-92042857D01*
X115268571Y-92090476D01*
X115316190Y-92185714D01*
X115316190Y-92566666D01*
X114792380Y-91709523D02*
X115792380Y-91376190D01*
X114792380Y-91042857D01*
X114887619Y-90757142D02*
X114840000Y-90709523D01*
X114792380Y-90614285D01*
X114792380Y-90376190D01*
X114840000Y-90280952D01*
X114887619Y-90233333D01*
X114982857Y-90185714D01*
X115078095Y-90185714D01*
X115220952Y-90233333D01*
X115792380Y-90804761D01*
X115792380Y-90185714D01*
%TO.C,RV1*%
X115792380Y-83595238D02*
X115316190Y-83928571D01*
X115792380Y-84166666D02*
X114792380Y-84166666D01*
X114792380Y-83785714D01*
X114840000Y-83690476D01*
X114887619Y-83642857D01*
X114982857Y-83595238D01*
X115125714Y-83595238D01*
X115220952Y-83642857D01*
X115268571Y-83690476D01*
X115316190Y-83785714D01*
X115316190Y-84166666D01*
X114792380Y-83309523D02*
X115792380Y-82976190D01*
X114792380Y-82642857D01*
X115792380Y-81785714D02*
X115792380Y-82357142D01*
X115792380Y-82071428D02*
X114792380Y-82071428D01*
X114935238Y-82166666D01*
X115030476Y-82261904D01*
X115078095Y-82357142D01*
%TO.C,PS10*%
D16*
X113963095Y-129624523D02*
X113963095Y-128354523D01*
X114446904Y-128354523D01*
X114567857Y-128415000D01*
X114628333Y-128475476D01*
X114688809Y-128596428D01*
X114688809Y-128777857D01*
X114628333Y-128898809D01*
X114567857Y-128959285D01*
X114446904Y-129019761D01*
X113963095Y-129019761D01*
X115172619Y-129564047D02*
X115354047Y-129624523D01*
X115656428Y-129624523D01*
X115777380Y-129564047D01*
X115837857Y-129503571D01*
X115898333Y-129382619D01*
X115898333Y-129261666D01*
X115837857Y-129140714D01*
X115777380Y-129080238D01*
X115656428Y-129019761D01*
X115414523Y-128959285D01*
X115293571Y-128898809D01*
X115233095Y-128838333D01*
X115172619Y-128717380D01*
X115172619Y-128596428D01*
X115233095Y-128475476D01*
X115293571Y-128415000D01*
X115414523Y-128354523D01*
X115716904Y-128354523D01*
X115898333Y-128415000D01*
X117107857Y-129624523D02*
X116382142Y-129624523D01*
X116745000Y-129624523D02*
X116745000Y-128354523D01*
X116624047Y-128535952D01*
X116503095Y-128656904D01*
X116382142Y-128717380D01*
X117894047Y-128354523D02*
X118015000Y-128354523D01*
X118135952Y-128415000D01*
X118196428Y-128475476D01*
X118256904Y-128596428D01*
X118317380Y-128838333D01*
X118317380Y-129140714D01*
X118256904Y-129382619D01*
X118196428Y-129503571D01*
X118135952Y-129564047D01*
X118015000Y-129624523D01*
X117894047Y-129624523D01*
X117773095Y-129564047D01*
X117712619Y-129503571D01*
X117652142Y-129382619D01*
X117591666Y-129140714D01*
X117591666Y-128838333D01*
X117652142Y-128596428D01*
X117712619Y-128475476D01*
X117773095Y-128415000D01*
X117894047Y-128354523D01*
%TO.C,PS11*%
X113963095Y-101124523D02*
X113963095Y-99854523D01*
X114446904Y-99854523D01*
X114567857Y-99915000D01*
X114628333Y-99975476D01*
X114688809Y-100096428D01*
X114688809Y-100277857D01*
X114628333Y-100398809D01*
X114567857Y-100459285D01*
X114446904Y-100519761D01*
X113963095Y-100519761D01*
X115172619Y-101064047D02*
X115354047Y-101124523D01*
X115656428Y-101124523D01*
X115777380Y-101064047D01*
X115837857Y-101003571D01*
X115898333Y-100882619D01*
X115898333Y-100761666D01*
X115837857Y-100640714D01*
X115777380Y-100580238D01*
X115656428Y-100519761D01*
X115414523Y-100459285D01*
X115293571Y-100398809D01*
X115233095Y-100338333D01*
X115172619Y-100217380D01*
X115172619Y-100096428D01*
X115233095Y-99975476D01*
X115293571Y-99915000D01*
X115414523Y-99854523D01*
X115716904Y-99854523D01*
X115898333Y-99915000D01*
X117107857Y-101124523D02*
X116382142Y-101124523D01*
X116745000Y-101124523D02*
X116745000Y-99854523D01*
X116624047Y-100035952D01*
X116503095Y-100156904D01*
X116382142Y-100217380D01*
X118317380Y-101124523D02*
X117591666Y-101124523D01*
X117954523Y-101124523D02*
X117954523Y-99854523D01*
X117833571Y-100035952D01*
X117712619Y-100156904D01*
X117591666Y-100217380D01*
%TO.C,PS9*%
X142524523Y-87632142D02*
X141254523Y-87632142D01*
X141254523Y-87148333D01*
X141315000Y-87027380D01*
X141375476Y-86966904D01*
X141496428Y-86906428D01*
X141677857Y-86906428D01*
X141798809Y-86966904D01*
X141859285Y-87027380D01*
X141919761Y-87148333D01*
X141919761Y-87632142D01*
X142464047Y-86422619D02*
X142524523Y-86241190D01*
X142524523Y-85938809D01*
X142464047Y-85817857D01*
X142403571Y-85757380D01*
X142282619Y-85696904D01*
X142161666Y-85696904D01*
X142040714Y-85757380D01*
X141980238Y-85817857D01*
X141919761Y-85938809D01*
X141859285Y-86180714D01*
X141798809Y-86301666D01*
X141738333Y-86362142D01*
X141617380Y-86422619D01*
X141496428Y-86422619D01*
X141375476Y-86362142D01*
X141315000Y-86301666D01*
X141254523Y-86180714D01*
X141254523Y-85878333D01*
X141315000Y-85696904D01*
X142524523Y-85092142D02*
X142524523Y-84850238D01*
X142464047Y-84729285D01*
X142403571Y-84668809D01*
X142222142Y-84547857D01*
X141980238Y-84487380D01*
X141496428Y-84487380D01*
X141375476Y-84547857D01*
X141315000Y-84608333D01*
X141254523Y-84729285D01*
X141254523Y-84971190D01*
X141315000Y-85092142D01*
X141375476Y-85152619D01*
X141496428Y-85213095D01*
X141798809Y-85213095D01*
X141919761Y-85152619D01*
X141980238Y-85092142D01*
X142040714Y-84971190D01*
X142040714Y-84729285D01*
X141980238Y-84608333D01*
X141919761Y-84547857D01*
X141798809Y-84487380D01*
%TO.C,PS8*%
X142524523Y-102632142D02*
X141254523Y-102632142D01*
X141254523Y-102148333D01*
X141315000Y-102027380D01*
X141375476Y-101966904D01*
X141496428Y-101906428D01*
X141677857Y-101906428D01*
X141798809Y-101966904D01*
X141859285Y-102027380D01*
X141919761Y-102148333D01*
X141919761Y-102632142D01*
X142464047Y-101422619D02*
X142524523Y-101241190D01*
X142524523Y-100938809D01*
X142464047Y-100817857D01*
X142403571Y-100757380D01*
X142282619Y-100696904D01*
X142161666Y-100696904D01*
X142040714Y-100757380D01*
X141980238Y-100817857D01*
X141919761Y-100938809D01*
X141859285Y-101180714D01*
X141798809Y-101301666D01*
X141738333Y-101362142D01*
X141617380Y-101422619D01*
X141496428Y-101422619D01*
X141375476Y-101362142D01*
X141315000Y-101301666D01*
X141254523Y-101180714D01*
X141254523Y-100878333D01*
X141315000Y-100696904D01*
X141798809Y-99971190D02*
X141738333Y-100092142D01*
X141677857Y-100152619D01*
X141556904Y-100213095D01*
X141496428Y-100213095D01*
X141375476Y-100152619D01*
X141315000Y-100092142D01*
X141254523Y-99971190D01*
X141254523Y-99729285D01*
X141315000Y-99608333D01*
X141375476Y-99547857D01*
X141496428Y-99487380D01*
X141556904Y-99487380D01*
X141677857Y-99547857D01*
X141738333Y-99608333D01*
X141798809Y-99729285D01*
X141798809Y-99971190D01*
X141859285Y-100092142D01*
X141919761Y-100152619D01*
X142040714Y-100213095D01*
X142282619Y-100213095D01*
X142403571Y-100152619D01*
X142464047Y-100092142D01*
X142524523Y-99971190D01*
X142524523Y-99729285D01*
X142464047Y-99608333D01*
X142403571Y-99547857D01*
X142282619Y-99487380D01*
X142040714Y-99487380D01*
X141919761Y-99547857D01*
X141859285Y-99608333D01*
X141798809Y-99729285D01*
%TO.C,PS7*%
X142524523Y-117632142D02*
X141254523Y-117632142D01*
X141254523Y-117148333D01*
X141315000Y-117027380D01*
X141375476Y-116966904D01*
X141496428Y-116906428D01*
X141677857Y-116906428D01*
X141798809Y-116966904D01*
X141859285Y-117027380D01*
X141919761Y-117148333D01*
X141919761Y-117632142D01*
X142464047Y-116422619D02*
X142524523Y-116241190D01*
X142524523Y-115938809D01*
X142464047Y-115817857D01*
X142403571Y-115757380D01*
X142282619Y-115696904D01*
X142161666Y-115696904D01*
X142040714Y-115757380D01*
X141980238Y-115817857D01*
X141919761Y-115938809D01*
X141859285Y-116180714D01*
X141798809Y-116301666D01*
X141738333Y-116362142D01*
X141617380Y-116422619D01*
X141496428Y-116422619D01*
X141375476Y-116362142D01*
X141315000Y-116301666D01*
X141254523Y-116180714D01*
X141254523Y-115878333D01*
X141315000Y-115696904D01*
X141254523Y-115273571D02*
X141254523Y-114426904D01*
X142524523Y-114971190D01*
%TO.C,PS6*%
X142524523Y-132632142D02*
X141254523Y-132632142D01*
X141254523Y-132148333D01*
X141315000Y-132027380D01*
X141375476Y-131966904D01*
X141496428Y-131906428D01*
X141677857Y-131906428D01*
X141798809Y-131966904D01*
X141859285Y-132027380D01*
X141919761Y-132148333D01*
X141919761Y-132632142D01*
X142464047Y-131422619D02*
X142524523Y-131241190D01*
X142524523Y-130938809D01*
X142464047Y-130817857D01*
X142403571Y-130757380D01*
X142282619Y-130696904D01*
X142161666Y-130696904D01*
X142040714Y-130757380D01*
X141980238Y-130817857D01*
X141919761Y-130938809D01*
X141859285Y-131180714D01*
X141798809Y-131301666D01*
X141738333Y-131362142D01*
X141617380Y-131422619D01*
X141496428Y-131422619D01*
X141375476Y-131362142D01*
X141315000Y-131301666D01*
X141254523Y-131180714D01*
X141254523Y-130878333D01*
X141315000Y-130696904D01*
X141254523Y-129608333D02*
X141254523Y-129850238D01*
X141315000Y-129971190D01*
X141375476Y-130031666D01*
X141556904Y-130152619D01*
X141798809Y-130213095D01*
X142282619Y-130213095D01*
X142403571Y-130152619D01*
X142464047Y-130092142D01*
X142524523Y-129971190D01*
X142524523Y-129729285D01*
X142464047Y-129608333D01*
X142403571Y-129547857D01*
X142282619Y-129487380D01*
X141980238Y-129487380D01*
X141859285Y-129547857D01*
X141798809Y-129608333D01*
X141738333Y-129729285D01*
X141738333Y-129971190D01*
X141798809Y-130092142D01*
X141859285Y-130152619D01*
X141980238Y-130213095D01*
%TO.C,PS5*%
X162524523Y-72632142D02*
X161254523Y-72632142D01*
X161254523Y-72148333D01*
X161315000Y-72027380D01*
X161375476Y-71966904D01*
X161496428Y-71906428D01*
X161677857Y-71906428D01*
X161798809Y-71966904D01*
X161859285Y-72027380D01*
X161919761Y-72148333D01*
X161919761Y-72632142D01*
X162464047Y-71422619D02*
X162524523Y-71241190D01*
X162524523Y-70938809D01*
X162464047Y-70817857D01*
X162403571Y-70757380D01*
X162282619Y-70696904D01*
X162161666Y-70696904D01*
X162040714Y-70757380D01*
X161980238Y-70817857D01*
X161919761Y-70938809D01*
X161859285Y-71180714D01*
X161798809Y-71301666D01*
X161738333Y-71362142D01*
X161617380Y-71422619D01*
X161496428Y-71422619D01*
X161375476Y-71362142D01*
X161315000Y-71301666D01*
X161254523Y-71180714D01*
X161254523Y-70878333D01*
X161315000Y-70696904D01*
X161254523Y-69547857D02*
X161254523Y-70152619D01*
X161859285Y-70213095D01*
X161798809Y-70152619D01*
X161738333Y-70031666D01*
X161738333Y-69729285D01*
X161798809Y-69608333D01*
X161859285Y-69547857D01*
X161980238Y-69487380D01*
X162282619Y-69487380D01*
X162403571Y-69547857D01*
X162464047Y-69608333D01*
X162524523Y-69729285D01*
X162524523Y-70031666D01*
X162464047Y-70152619D01*
X162403571Y-70213095D01*
%TO.C,PS4*%
X162524523Y-87632142D02*
X161254523Y-87632142D01*
X161254523Y-87148333D01*
X161315000Y-87027380D01*
X161375476Y-86966904D01*
X161496428Y-86906428D01*
X161677857Y-86906428D01*
X161798809Y-86966904D01*
X161859285Y-87027380D01*
X161919761Y-87148333D01*
X161919761Y-87632142D01*
X162464047Y-86422619D02*
X162524523Y-86241190D01*
X162524523Y-85938809D01*
X162464047Y-85817857D01*
X162403571Y-85757380D01*
X162282619Y-85696904D01*
X162161666Y-85696904D01*
X162040714Y-85757380D01*
X161980238Y-85817857D01*
X161919761Y-85938809D01*
X161859285Y-86180714D01*
X161798809Y-86301666D01*
X161738333Y-86362142D01*
X161617380Y-86422619D01*
X161496428Y-86422619D01*
X161375476Y-86362142D01*
X161315000Y-86301666D01*
X161254523Y-86180714D01*
X161254523Y-85878333D01*
X161315000Y-85696904D01*
X161677857Y-84608333D02*
X162524523Y-84608333D01*
X161194047Y-84910714D02*
X162101190Y-85213095D01*
X162101190Y-84426904D01*
%TO.C,PS3*%
X162524523Y-102632142D02*
X161254523Y-102632142D01*
X161254523Y-102148333D01*
X161315000Y-102027380D01*
X161375476Y-101966904D01*
X161496428Y-101906428D01*
X161677857Y-101906428D01*
X161798809Y-101966904D01*
X161859285Y-102027380D01*
X161919761Y-102148333D01*
X161919761Y-102632142D01*
X162464047Y-101422619D02*
X162524523Y-101241190D01*
X162524523Y-100938809D01*
X162464047Y-100817857D01*
X162403571Y-100757380D01*
X162282619Y-100696904D01*
X162161666Y-100696904D01*
X162040714Y-100757380D01*
X161980238Y-100817857D01*
X161919761Y-100938809D01*
X161859285Y-101180714D01*
X161798809Y-101301666D01*
X161738333Y-101362142D01*
X161617380Y-101422619D01*
X161496428Y-101422619D01*
X161375476Y-101362142D01*
X161315000Y-101301666D01*
X161254523Y-101180714D01*
X161254523Y-100878333D01*
X161315000Y-100696904D01*
X161254523Y-100273571D02*
X161254523Y-99487380D01*
X161738333Y-99910714D01*
X161738333Y-99729285D01*
X161798809Y-99608333D01*
X161859285Y-99547857D01*
X161980238Y-99487380D01*
X162282619Y-99487380D01*
X162403571Y-99547857D01*
X162464047Y-99608333D01*
X162524523Y-99729285D01*
X162524523Y-100092142D01*
X162464047Y-100213095D01*
X162403571Y-100273571D01*
%TO.C,PS2*%
X162524523Y-117632142D02*
X161254523Y-117632142D01*
X161254523Y-117148333D01*
X161315000Y-117027380D01*
X161375476Y-116966904D01*
X161496428Y-116906428D01*
X161677857Y-116906428D01*
X161798809Y-116966904D01*
X161859285Y-117027380D01*
X161919761Y-117148333D01*
X161919761Y-117632142D01*
X162464047Y-116422619D02*
X162524523Y-116241190D01*
X162524523Y-115938809D01*
X162464047Y-115817857D01*
X162403571Y-115757380D01*
X162282619Y-115696904D01*
X162161666Y-115696904D01*
X162040714Y-115757380D01*
X161980238Y-115817857D01*
X161919761Y-115938809D01*
X161859285Y-116180714D01*
X161798809Y-116301666D01*
X161738333Y-116362142D01*
X161617380Y-116422619D01*
X161496428Y-116422619D01*
X161375476Y-116362142D01*
X161315000Y-116301666D01*
X161254523Y-116180714D01*
X161254523Y-115878333D01*
X161315000Y-115696904D01*
X161375476Y-115213095D02*
X161315000Y-115152619D01*
X161254523Y-115031666D01*
X161254523Y-114729285D01*
X161315000Y-114608333D01*
X161375476Y-114547857D01*
X161496428Y-114487380D01*
X161617380Y-114487380D01*
X161798809Y-114547857D01*
X162524523Y-115273571D01*
X162524523Y-114487380D01*
%TO.C,PS1*%
X162524523Y-132632142D02*
X161254523Y-132632142D01*
X161254523Y-132148333D01*
X161315000Y-132027380D01*
X161375476Y-131966904D01*
X161496428Y-131906428D01*
X161677857Y-131906428D01*
X161798809Y-131966904D01*
X161859285Y-132027380D01*
X161919761Y-132148333D01*
X161919761Y-132632142D01*
X162464047Y-131422619D02*
X162524523Y-131241190D01*
X162524523Y-130938809D01*
X162464047Y-130817857D01*
X162403571Y-130757380D01*
X162282619Y-130696904D01*
X162161666Y-130696904D01*
X162040714Y-130757380D01*
X161980238Y-130817857D01*
X161919761Y-130938809D01*
X161859285Y-131180714D01*
X161798809Y-131301666D01*
X161738333Y-131362142D01*
X161617380Y-131422619D01*
X161496428Y-131422619D01*
X161375476Y-131362142D01*
X161315000Y-131301666D01*
X161254523Y-131180714D01*
X161254523Y-130878333D01*
X161315000Y-130696904D01*
X162524523Y-129487380D02*
X162524523Y-130213095D01*
X162524523Y-129850238D02*
X161254523Y-129850238D01*
X161435952Y-129971190D01*
X161556904Y-130092142D01*
X161617380Y-130213095D01*
%TO.C,J24*%
D10*
X171752380Y-78809523D02*
X172466666Y-78809523D01*
X172609523Y-78857142D01*
X172704761Y-78952380D01*
X172752380Y-79095238D01*
X172752380Y-79190476D01*
X171847619Y-78380952D02*
X171800000Y-78333333D01*
X171752380Y-78238095D01*
X171752380Y-78000000D01*
X171800000Y-77904761D01*
X171847619Y-77857142D01*
X171942857Y-77809523D01*
X172038095Y-77809523D01*
X172180952Y-77857142D01*
X172752380Y-78428571D01*
X172752380Y-77809523D01*
X172085714Y-76952380D02*
X172752380Y-76952380D01*
X171704761Y-77190476D02*
X172419047Y-77428571D01*
X172419047Y-76809523D01*
%TO.C,J23*%
X171752380Y-104809523D02*
X172466666Y-104809523D01*
X172609523Y-104857142D01*
X172704761Y-104952380D01*
X172752380Y-105095238D01*
X172752380Y-105190476D01*
X171847619Y-104380952D02*
X171800000Y-104333333D01*
X171752380Y-104238095D01*
X171752380Y-104000000D01*
X171800000Y-103904761D01*
X171847619Y-103857142D01*
X171942857Y-103809523D01*
X172038095Y-103809523D01*
X172180952Y-103857142D01*
X172752380Y-104428571D01*
X172752380Y-103809523D01*
X171752380Y-103476190D02*
X171752380Y-102857142D01*
X172133333Y-103190476D01*
X172133333Y-103047619D01*
X172180952Y-102952380D01*
X172228571Y-102904761D01*
X172323809Y-102857142D01*
X172561904Y-102857142D01*
X172657142Y-102904761D01*
X172704761Y-102952380D01*
X172752380Y-103047619D01*
X172752380Y-103333333D01*
X172704761Y-103428571D01*
X172657142Y-103476190D01*
%TO.C,TP12*%
X180550380Y-48778095D02*
X180550380Y-48206666D01*
X181550380Y-48492380D02*
X180550380Y-48492380D01*
X181550380Y-47873333D02*
X180550380Y-47873333D01*
X180550380Y-47492380D01*
X180598000Y-47397142D01*
X180645619Y-47349523D01*
X180740857Y-47301904D01*
X180883714Y-47301904D01*
X180978952Y-47349523D01*
X181026571Y-47397142D01*
X181074190Y-47492380D01*
X181074190Y-47873333D01*
X181550380Y-46349523D02*
X181550380Y-46920952D01*
X181550380Y-46635238D02*
X180550380Y-46635238D01*
X180693238Y-46730476D01*
X180788476Y-46825714D01*
X180836095Y-46920952D01*
X180645619Y-45968571D02*
X180598000Y-45920952D01*
X180550380Y-45825714D01*
X180550380Y-45587619D01*
X180598000Y-45492380D01*
X180645619Y-45444761D01*
X180740857Y-45397142D01*
X180836095Y-45397142D01*
X180978952Y-45444761D01*
X181550380Y-46016190D01*
X181550380Y-45397142D01*
%TO.C,TP11*%
X180550380Y-56778095D02*
X180550380Y-56206666D01*
X181550380Y-56492380D02*
X180550380Y-56492380D01*
X181550380Y-55873333D02*
X180550380Y-55873333D01*
X180550380Y-55492380D01*
X180598000Y-55397142D01*
X180645619Y-55349523D01*
X180740857Y-55301904D01*
X180883714Y-55301904D01*
X180978952Y-55349523D01*
X181026571Y-55397142D01*
X181074190Y-55492380D01*
X181074190Y-55873333D01*
X181550380Y-54349523D02*
X181550380Y-54920952D01*
X181550380Y-54635238D02*
X180550380Y-54635238D01*
X180693238Y-54730476D01*
X180788476Y-54825714D01*
X180836095Y-54920952D01*
X181550380Y-53397142D02*
X181550380Y-53968571D01*
X181550380Y-53682857D02*
X180550380Y-53682857D01*
X180693238Y-53778095D01*
X180788476Y-53873333D01*
X180836095Y-53968571D01*
%TO.C,TP10*%
X180550380Y-64778095D02*
X180550380Y-64206666D01*
X181550380Y-64492380D02*
X180550380Y-64492380D01*
X181550380Y-63873333D02*
X180550380Y-63873333D01*
X180550380Y-63492380D01*
X180598000Y-63397142D01*
X180645619Y-63349523D01*
X180740857Y-63301904D01*
X180883714Y-63301904D01*
X180978952Y-63349523D01*
X181026571Y-63397142D01*
X181074190Y-63492380D01*
X181074190Y-63873333D01*
X181550380Y-62349523D02*
X181550380Y-62920952D01*
X181550380Y-62635238D02*
X180550380Y-62635238D01*
X180693238Y-62730476D01*
X180788476Y-62825714D01*
X180836095Y-62920952D01*
X180550380Y-61730476D02*
X180550380Y-61635238D01*
X180598000Y-61540000D01*
X180645619Y-61492380D01*
X180740857Y-61444761D01*
X180931333Y-61397142D01*
X181169428Y-61397142D01*
X181359904Y-61444761D01*
X181455142Y-61492380D01*
X181502761Y-61540000D01*
X181550380Y-61635238D01*
X181550380Y-61730476D01*
X181502761Y-61825714D01*
X181455142Y-61873333D01*
X181359904Y-61920952D01*
X181169428Y-61968571D01*
X180931333Y-61968571D01*
X180740857Y-61920952D01*
X180645619Y-61873333D01*
X180598000Y-61825714D01*
X180550380Y-61730476D01*
%TO.C,TP9*%
X180550380Y-72301904D02*
X180550380Y-71730476D01*
X181550380Y-72016190D02*
X180550380Y-72016190D01*
X181550380Y-71397142D02*
X180550380Y-71397142D01*
X180550380Y-71016190D01*
X180598000Y-70920952D01*
X180645619Y-70873333D01*
X180740857Y-70825714D01*
X180883714Y-70825714D01*
X180978952Y-70873333D01*
X181026571Y-70920952D01*
X181074190Y-71016190D01*
X181074190Y-71397142D01*
X181550380Y-70349523D02*
X181550380Y-70159047D01*
X181502761Y-70063809D01*
X181455142Y-70016190D01*
X181312285Y-69920952D01*
X181121809Y-69873333D01*
X180740857Y-69873333D01*
X180645619Y-69920952D01*
X180598000Y-69968571D01*
X180550380Y-70063809D01*
X180550380Y-70254285D01*
X180598000Y-70349523D01*
X180645619Y-70397142D01*
X180740857Y-70444761D01*
X180978952Y-70444761D01*
X181074190Y-70397142D01*
X181121809Y-70349523D01*
X181169428Y-70254285D01*
X181169428Y-70063809D01*
X181121809Y-69968571D01*
X181074190Y-69920952D01*
X180978952Y-69873333D01*
%TO.C,TP8*%
X180550380Y-80301904D02*
X180550380Y-79730476D01*
X181550380Y-80016190D02*
X180550380Y-80016190D01*
X181550380Y-79397142D02*
X180550380Y-79397142D01*
X180550380Y-79016190D01*
X180598000Y-78920952D01*
X180645619Y-78873333D01*
X180740857Y-78825714D01*
X180883714Y-78825714D01*
X180978952Y-78873333D01*
X181026571Y-78920952D01*
X181074190Y-79016190D01*
X181074190Y-79397142D01*
X180978952Y-78254285D02*
X180931333Y-78349523D01*
X180883714Y-78397142D01*
X180788476Y-78444761D01*
X180740857Y-78444761D01*
X180645619Y-78397142D01*
X180598000Y-78349523D01*
X180550380Y-78254285D01*
X180550380Y-78063809D01*
X180598000Y-77968571D01*
X180645619Y-77920952D01*
X180740857Y-77873333D01*
X180788476Y-77873333D01*
X180883714Y-77920952D01*
X180931333Y-77968571D01*
X180978952Y-78063809D01*
X180978952Y-78254285D01*
X181026571Y-78349523D01*
X181074190Y-78397142D01*
X181169428Y-78444761D01*
X181359904Y-78444761D01*
X181455142Y-78397142D01*
X181502761Y-78349523D01*
X181550380Y-78254285D01*
X181550380Y-78063809D01*
X181502761Y-77968571D01*
X181455142Y-77920952D01*
X181359904Y-77873333D01*
X181169428Y-77873333D01*
X181074190Y-77920952D01*
X181026571Y-77968571D01*
X180978952Y-78063809D01*
%TO.C,TP7*%
X180550380Y-88301904D02*
X180550380Y-87730476D01*
X181550380Y-88016190D02*
X180550380Y-88016190D01*
X181550380Y-87397142D02*
X180550380Y-87397142D01*
X180550380Y-87016190D01*
X180598000Y-86920952D01*
X180645619Y-86873333D01*
X180740857Y-86825714D01*
X180883714Y-86825714D01*
X180978952Y-86873333D01*
X181026571Y-86920952D01*
X181074190Y-87016190D01*
X181074190Y-87397142D01*
X180550380Y-86492380D02*
X180550380Y-85825714D01*
X181550380Y-86254285D01*
%TO.C,TP6*%
X180550380Y-96301904D02*
X180550380Y-95730476D01*
X181550380Y-96016190D02*
X180550380Y-96016190D01*
X181550380Y-95397142D02*
X180550380Y-95397142D01*
X180550380Y-95016190D01*
X180598000Y-94920952D01*
X180645619Y-94873333D01*
X180740857Y-94825714D01*
X180883714Y-94825714D01*
X180978952Y-94873333D01*
X181026571Y-94920952D01*
X181074190Y-95016190D01*
X181074190Y-95397142D01*
X180550380Y-93968571D02*
X180550380Y-94159047D01*
X180598000Y-94254285D01*
X180645619Y-94301904D01*
X180788476Y-94397142D01*
X180978952Y-94444761D01*
X181359904Y-94444761D01*
X181455142Y-94397142D01*
X181502761Y-94349523D01*
X181550380Y-94254285D01*
X181550380Y-94063809D01*
X181502761Y-93968571D01*
X181455142Y-93920952D01*
X181359904Y-93873333D01*
X181121809Y-93873333D01*
X181026571Y-93920952D01*
X180978952Y-93968571D01*
X180931333Y-94063809D01*
X180931333Y-94254285D01*
X180978952Y-94349523D01*
X181026571Y-94397142D01*
X181121809Y-94444761D01*
%TO.C,TP5*%
X180550380Y-104301904D02*
X180550380Y-103730476D01*
X181550380Y-104016190D02*
X180550380Y-104016190D01*
X181550380Y-103397142D02*
X180550380Y-103397142D01*
X180550380Y-103016190D01*
X180598000Y-102920952D01*
X180645619Y-102873333D01*
X180740857Y-102825714D01*
X180883714Y-102825714D01*
X180978952Y-102873333D01*
X181026571Y-102920952D01*
X181074190Y-103016190D01*
X181074190Y-103397142D01*
X180550380Y-101920952D02*
X180550380Y-102397142D01*
X181026571Y-102444761D01*
X180978952Y-102397142D01*
X180931333Y-102301904D01*
X180931333Y-102063809D01*
X180978952Y-101968571D01*
X181026571Y-101920952D01*
X181121809Y-101873333D01*
X181359904Y-101873333D01*
X181455142Y-101920952D01*
X181502761Y-101968571D01*
X181550380Y-102063809D01*
X181550380Y-102301904D01*
X181502761Y-102397142D01*
X181455142Y-102444761D01*
%TO.C,TP4*%
X180550380Y-112301904D02*
X180550380Y-111730476D01*
X181550380Y-112016190D02*
X180550380Y-112016190D01*
X181550380Y-111397142D02*
X180550380Y-111397142D01*
X180550380Y-111016190D01*
X180598000Y-110920952D01*
X180645619Y-110873333D01*
X180740857Y-110825714D01*
X180883714Y-110825714D01*
X180978952Y-110873333D01*
X181026571Y-110920952D01*
X181074190Y-111016190D01*
X181074190Y-111397142D01*
X180883714Y-109968571D02*
X181550380Y-109968571D01*
X180502761Y-110206666D02*
X181217047Y-110444761D01*
X181217047Y-109825714D01*
%TO.C,TP3*%
X180550380Y-120301904D02*
X180550380Y-119730476D01*
X181550380Y-120016190D02*
X180550380Y-120016190D01*
X181550380Y-119397142D02*
X180550380Y-119397142D01*
X180550380Y-119016190D01*
X180598000Y-118920952D01*
X180645619Y-118873333D01*
X180740857Y-118825714D01*
X180883714Y-118825714D01*
X180978952Y-118873333D01*
X181026571Y-118920952D01*
X181074190Y-119016190D01*
X181074190Y-119397142D01*
X180550380Y-118492380D02*
X180550380Y-117873333D01*
X180931333Y-118206666D01*
X180931333Y-118063809D01*
X180978952Y-117968571D01*
X181026571Y-117920952D01*
X181121809Y-117873333D01*
X181359904Y-117873333D01*
X181455142Y-117920952D01*
X181502761Y-117968571D01*
X181550380Y-118063809D01*
X181550380Y-118349523D01*
X181502761Y-118444761D01*
X181455142Y-118492380D01*
%TO.C,TP2*%
X180550380Y-128301904D02*
X180550380Y-127730476D01*
X181550380Y-128016190D02*
X180550380Y-128016190D01*
X181550380Y-127397142D02*
X180550380Y-127397142D01*
X180550380Y-127016190D01*
X180598000Y-126920952D01*
X180645619Y-126873333D01*
X180740857Y-126825714D01*
X180883714Y-126825714D01*
X180978952Y-126873333D01*
X181026571Y-126920952D01*
X181074190Y-127016190D01*
X181074190Y-127397142D01*
X180645619Y-126444761D02*
X180598000Y-126397142D01*
X180550380Y-126301904D01*
X180550380Y-126063809D01*
X180598000Y-125968571D01*
X180645619Y-125920952D01*
X180740857Y-125873333D01*
X180836095Y-125873333D01*
X180978952Y-125920952D01*
X181550380Y-126492380D01*
X181550380Y-125873333D01*
%TO.C,TP1*%
X180550380Y-136301904D02*
X180550380Y-135730476D01*
X181550380Y-136016190D02*
X180550380Y-136016190D01*
X181550380Y-135397142D02*
X180550380Y-135397142D01*
X180550380Y-135016190D01*
X180598000Y-134920952D01*
X180645619Y-134873333D01*
X180740857Y-134825714D01*
X180883714Y-134825714D01*
X180978952Y-134873333D01*
X181026571Y-134920952D01*
X181074190Y-135016190D01*
X181074190Y-135397142D01*
X181550380Y-133873333D02*
X181550380Y-134444761D01*
X181550380Y-134159047D02*
X180550380Y-134159047D01*
X180693238Y-134254285D01*
X180788476Y-134349523D01*
X180836095Y-134444761D01*
%TO.C,J26*%
X129490476Y-60452380D02*
X129490476Y-61166666D01*
X129442857Y-61309523D01*
X129347619Y-61404761D01*
X129204761Y-61452380D01*
X129109523Y-61452380D01*
X129919047Y-60547619D02*
X129966666Y-60500000D01*
X130061904Y-60452380D01*
X130300000Y-60452380D01*
X130395238Y-60500000D01*
X130442857Y-60547619D01*
X130490476Y-60642857D01*
X130490476Y-60738095D01*
X130442857Y-60880952D01*
X129871428Y-61452380D01*
X130490476Y-61452380D01*
X131347619Y-60452380D02*
X131157142Y-60452380D01*
X131061904Y-60500000D01*
X131014285Y-60547619D01*
X130919047Y-60690476D01*
X130871428Y-60880952D01*
X130871428Y-61261904D01*
X130919047Y-61357142D01*
X130966666Y-61404761D01*
X131061904Y-61452380D01*
X131252380Y-61452380D01*
X131347619Y-61404761D01*
X131395238Y-61357142D01*
X131442857Y-61261904D01*
X131442857Y-61023809D01*
X131395238Y-60928571D01*
X131347619Y-60880952D01*
X131252380Y-60833333D01*
X131061904Y-60833333D01*
X130966666Y-60880952D01*
X130919047Y-60928571D01*
X130871428Y-61023809D01*
%TO.C,J25*%
X110890476Y-60552380D02*
X110890476Y-61266666D01*
X110842857Y-61409523D01*
X110747619Y-61504761D01*
X110604761Y-61552380D01*
X110509523Y-61552380D01*
X111319047Y-60647619D02*
X111366666Y-60600000D01*
X111461904Y-60552380D01*
X111700000Y-60552380D01*
X111795238Y-60600000D01*
X111842857Y-60647619D01*
X111890476Y-60742857D01*
X111890476Y-60838095D01*
X111842857Y-60980952D01*
X111271428Y-61552380D01*
X111890476Y-61552380D01*
X112795238Y-60552380D02*
X112319047Y-60552380D01*
X112271428Y-61028571D01*
X112319047Y-60980952D01*
X112414285Y-60933333D01*
X112652380Y-60933333D01*
X112747619Y-60980952D01*
X112795238Y-61028571D01*
X112842857Y-61123809D01*
X112842857Y-61361904D01*
X112795238Y-61457142D01*
X112747619Y-61504761D01*
X112652380Y-61552380D01*
X112414285Y-61552380D01*
X112319047Y-61504761D01*
X112271428Y-61457142D01*
%TO.C,J22*%
X149930476Y-126822380D02*
X149930476Y-127536666D01*
X149882857Y-127679523D01*
X149787619Y-127774761D01*
X149644761Y-127822380D01*
X149549523Y-127822380D01*
X150359047Y-126917619D02*
X150406666Y-126870000D01*
X150501904Y-126822380D01*
X150740000Y-126822380D01*
X150835238Y-126870000D01*
X150882857Y-126917619D01*
X150930476Y-127012857D01*
X150930476Y-127108095D01*
X150882857Y-127250952D01*
X150311428Y-127822380D01*
X150930476Y-127822380D01*
X151311428Y-126917619D02*
X151359047Y-126870000D01*
X151454285Y-126822380D01*
X151692380Y-126822380D01*
X151787619Y-126870000D01*
X151835238Y-126917619D01*
X151882857Y-127012857D01*
X151882857Y-127108095D01*
X151835238Y-127250952D01*
X151263809Y-127822380D01*
X151882857Y-127822380D01*
%TO.C,J21*%
X149930476Y-111822380D02*
X149930476Y-112536666D01*
X149882857Y-112679523D01*
X149787619Y-112774761D01*
X149644761Y-112822380D01*
X149549523Y-112822380D01*
X150359047Y-111917619D02*
X150406666Y-111870000D01*
X150501904Y-111822380D01*
X150740000Y-111822380D01*
X150835238Y-111870000D01*
X150882857Y-111917619D01*
X150930476Y-112012857D01*
X150930476Y-112108095D01*
X150882857Y-112250952D01*
X150311428Y-112822380D01*
X150930476Y-112822380D01*
X151882857Y-112822380D02*
X151311428Y-112822380D01*
X151597142Y-112822380D02*
X151597142Y-111822380D01*
X151501904Y-111965238D01*
X151406666Y-112060476D01*
X151311428Y-112108095D01*
%TO.C,J20*%
X149930476Y-96822380D02*
X149930476Y-97536666D01*
X149882857Y-97679523D01*
X149787619Y-97774761D01*
X149644761Y-97822380D01*
X149549523Y-97822380D01*
X150359047Y-96917619D02*
X150406666Y-96870000D01*
X150501904Y-96822380D01*
X150740000Y-96822380D01*
X150835238Y-96870000D01*
X150882857Y-96917619D01*
X150930476Y-97012857D01*
X150930476Y-97108095D01*
X150882857Y-97250952D01*
X150311428Y-97822380D01*
X150930476Y-97822380D01*
X151549523Y-96822380D02*
X151644761Y-96822380D01*
X151740000Y-96870000D01*
X151787619Y-96917619D01*
X151835238Y-97012857D01*
X151882857Y-97203333D01*
X151882857Y-97441428D01*
X151835238Y-97631904D01*
X151787619Y-97727142D01*
X151740000Y-97774761D01*
X151644761Y-97822380D01*
X151549523Y-97822380D01*
X151454285Y-97774761D01*
X151406666Y-97727142D01*
X151359047Y-97631904D01*
X151311428Y-97441428D01*
X151311428Y-97203333D01*
X151359047Y-97012857D01*
X151406666Y-96917619D01*
X151454285Y-96870000D01*
X151549523Y-96822380D01*
%TO.C,J19*%
X149930476Y-81822380D02*
X149930476Y-82536666D01*
X149882857Y-82679523D01*
X149787619Y-82774761D01*
X149644761Y-82822380D01*
X149549523Y-82822380D01*
X150930476Y-82822380D02*
X150359047Y-82822380D01*
X150644761Y-82822380D02*
X150644761Y-81822380D01*
X150549523Y-81965238D01*
X150454285Y-82060476D01*
X150359047Y-82108095D01*
X151406666Y-82822380D02*
X151597142Y-82822380D01*
X151692380Y-82774761D01*
X151740000Y-82727142D01*
X151835238Y-82584285D01*
X151882857Y-82393809D01*
X151882857Y-82012857D01*
X151835238Y-81917619D01*
X151787619Y-81870000D01*
X151692380Y-81822380D01*
X151501904Y-81822380D01*
X151406666Y-81870000D01*
X151359047Y-81917619D01*
X151311428Y-82012857D01*
X151311428Y-82250952D01*
X151359047Y-82346190D01*
X151406666Y-82393809D01*
X151501904Y-82441428D01*
X151692380Y-82441428D01*
X151787619Y-82393809D01*
X151835238Y-82346190D01*
X151882857Y-82250952D01*
%TO.C,J18*%
X149930476Y-66822380D02*
X149930476Y-67536666D01*
X149882857Y-67679523D01*
X149787619Y-67774761D01*
X149644761Y-67822380D01*
X149549523Y-67822380D01*
X150930476Y-67822380D02*
X150359047Y-67822380D01*
X150644761Y-67822380D02*
X150644761Y-66822380D01*
X150549523Y-66965238D01*
X150454285Y-67060476D01*
X150359047Y-67108095D01*
X151501904Y-67250952D02*
X151406666Y-67203333D01*
X151359047Y-67155714D01*
X151311428Y-67060476D01*
X151311428Y-67012857D01*
X151359047Y-66917619D01*
X151406666Y-66870000D01*
X151501904Y-66822380D01*
X151692380Y-66822380D01*
X151787619Y-66870000D01*
X151835238Y-66917619D01*
X151882857Y-67012857D01*
X151882857Y-67060476D01*
X151835238Y-67155714D01*
X151787619Y-67203333D01*
X151692380Y-67250952D01*
X151501904Y-67250952D01*
X151406666Y-67298571D01*
X151359047Y-67346190D01*
X151311428Y-67441428D01*
X151311428Y-67631904D01*
X151359047Y-67727142D01*
X151406666Y-67774761D01*
X151501904Y-67822380D01*
X151692380Y-67822380D01*
X151787619Y-67774761D01*
X151835238Y-67727142D01*
X151882857Y-67631904D01*
X151882857Y-67441428D01*
X151835238Y-67346190D01*
X151787619Y-67298571D01*
X151692380Y-67250952D01*
%TO.C,J17*%
X129930476Y-126822380D02*
X129930476Y-127536666D01*
X129882857Y-127679523D01*
X129787619Y-127774761D01*
X129644761Y-127822380D01*
X129549523Y-127822380D01*
X130930476Y-127822380D02*
X130359047Y-127822380D01*
X130644761Y-127822380D02*
X130644761Y-126822380D01*
X130549523Y-126965238D01*
X130454285Y-127060476D01*
X130359047Y-127108095D01*
X131263809Y-126822380D02*
X131930476Y-126822380D01*
X131501904Y-127822380D01*
%TO.C,J16*%
X129930476Y-111822380D02*
X129930476Y-112536666D01*
X129882857Y-112679523D01*
X129787619Y-112774761D01*
X129644761Y-112822380D01*
X129549523Y-112822380D01*
X130930476Y-112822380D02*
X130359047Y-112822380D01*
X130644761Y-112822380D02*
X130644761Y-111822380D01*
X130549523Y-111965238D01*
X130454285Y-112060476D01*
X130359047Y-112108095D01*
X131787619Y-111822380D02*
X131597142Y-111822380D01*
X131501904Y-111870000D01*
X131454285Y-111917619D01*
X131359047Y-112060476D01*
X131311428Y-112250952D01*
X131311428Y-112631904D01*
X131359047Y-112727142D01*
X131406666Y-112774761D01*
X131501904Y-112822380D01*
X131692380Y-112822380D01*
X131787619Y-112774761D01*
X131835238Y-112727142D01*
X131882857Y-112631904D01*
X131882857Y-112393809D01*
X131835238Y-112298571D01*
X131787619Y-112250952D01*
X131692380Y-112203333D01*
X131501904Y-112203333D01*
X131406666Y-112250952D01*
X131359047Y-112298571D01*
X131311428Y-112393809D01*
%TO.C,J15*%
X129930476Y-96822380D02*
X129930476Y-97536666D01*
X129882857Y-97679523D01*
X129787619Y-97774761D01*
X129644761Y-97822380D01*
X129549523Y-97822380D01*
X130930476Y-97822380D02*
X130359047Y-97822380D01*
X130644761Y-97822380D02*
X130644761Y-96822380D01*
X130549523Y-96965238D01*
X130454285Y-97060476D01*
X130359047Y-97108095D01*
X131835238Y-96822380D02*
X131359047Y-96822380D01*
X131311428Y-97298571D01*
X131359047Y-97250952D01*
X131454285Y-97203333D01*
X131692380Y-97203333D01*
X131787619Y-97250952D01*
X131835238Y-97298571D01*
X131882857Y-97393809D01*
X131882857Y-97631904D01*
X131835238Y-97727142D01*
X131787619Y-97774761D01*
X131692380Y-97822380D01*
X131454285Y-97822380D01*
X131359047Y-97774761D01*
X131311428Y-97727142D01*
%TO.C,J14*%
X129930476Y-81752380D02*
X129930476Y-82466666D01*
X129882857Y-82609523D01*
X129787619Y-82704761D01*
X129644761Y-82752380D01*
X129549523Y-82752380D01*
X130930476Y-82752380D02*
X130359047Y-82752380D01*
X130644761Y-82752380D02*
X130644761Y-81752380D01*
X130549523Y-81895238D01*
X130454285Y-81990476D01*
X130359047Y-82038095D01*
X131787619Y-82085714D02*
X131787619Y-82752380D01*
X131549523Y-81704761D02*
X131311428Y-82419047D01*
X131930476Y-82419047D01*
%TO.C,J13*%
X106790476Y-114122380D02*
X106790476Y-114836666D01*
X106742857Y-114979523D01*
X106647619Y-115074761D01*
X106504761Y-115122380D01*
X106409523Y-115122380D01*
X107790476Y-115122380D02*
X107219047Y-115122380D01*
X107504761Y-115122380D02*
X107504761Y-114122380D01*
X107409523Y-114265238D01*
X107314285Y-114360476D01*
X107219047Y-114408095D01*
X108123809Y-114122380D02*
X108742857Y-114122380D01*
X108409523Y-114503333D01*
X108552380Y-114503333D01*
X108647619Y-114550952D01*
X108695238Y-114598571D01*
X108742857Y-114693809D01*
X108742857Y-114931904D01*
X108695238Y-115027142D01*
X108647619Y-115074761D01*
X108552380Y-115122380D01*
X108266666Y-115122380D01*
X108171428Y-115074761D01*
X108123809Y-115027142D01*
%TO.C,J12*%
X106790476Y-85622380D02*
X106790476Y-86336666D01*
X106742857Y-86479523D01*
X106647619Y-86574761D01*
X106504761Y-86622380D01*
X106409523Y-86622380D01*
X107790476Y-86622380D02*
X107219047Y-86622380D01*
X107504761Y-86622380D02*
X107504761Y-85622380D01*
X107409523Y-85765238D01*
X107314285Y-85860476D01*
X107219047Y-85908095D01*
X108171428Y-85717619D02*
X108219047Y-85670000D01*
X108314285Y-85622380D01*
X108552380Y-85622380D01*
X108647619Y-85670000D01*
X108695238Y-85717619D01*
X108742857Y-85812857D01*
X108742857Y-85908095D01*
X108695238Y-86050952D01*
X108123809Y-86622380D01*
X108742857Y-86622380D01*
%TO.C,J11*%
X174752380Y-54509523D02*
X175466666Y-54509523D01*
X175609523Y-54557142D01*
X175704761Y-54652380D01*
X175752380Y-54795238D01*
X175752380Y-54890476D01*
X175752380Y-53509523D02*
X175752380Y-54080952D01*
X175752380Y-53795238D02*
X174752380Y-53795238D01*
X174895238Y-53890476D01*
X174990476Y-53985714D01*
X175038095Y-54080952D01*
X175752380Y-52557142D02*
X175752380Y-53128571D01*
X175752380Y-52842857D02*
X174752380Y-52842857D01*
X174895238Y-52938095D01*
X174990476Y-53033333D01*
X175038095Y-53128571D01*
%TO.C,J10*%
X174752380Y-62509523D02*
X175466666Y-62509523D01*
X175609523Y-62557142D01*
X175704761Y-62652380D01*
X175752380Y-62795238D01*
X175752380Y-62890476D01*
X175752380Y-61509523D02*
X175752380Y-62080952D01*
X175752380Y-61795238D02*
X174752380Y-61795238D01*
X174895238Y-61890476D01*
X174990476Y-61985714D01*
X175038095Y-62080952D01*
X174752380Y-60890476D02*
X174752380Y-60795238D01*
X174800000Y-60700000D01*
X174847619Y-60652380D01*
X174942857Y-60604761D01*
X175133333Y-60557142D01*
X175371428Y-60557142D01*
X175561904Y-60604761D01*
X175657142Y-60652380D01*
X175704761Y-60700000D01*
X175752380Y-60795238D01*
X175752380Y-60890476D01*
X175704761Y-60985714D01*
X175657142Y-61033333D01*
X175561904Y-61080952D01*
X175371428Y-61128571D01*
X175133333Y-61128571D01*
X174942857Y-61080952D01*
X174847619Y-61033333D01*
X174800000Y-60985714D01*
X174752380Y-60890476D01*
%TO.C,J9*%
X174752380Y-70033333D02*
X175466666Y-70033333D01*
X175609523Y-70080952D01*
X175704761Y-70176190D01*
X175752380Y-70319047D01*
X175752380Y-70414285D01*
X175752380Y-69509523D02*
X175752380Y-69319047D01*
X175704761Y-69223809D01*
X175657142Y-69176190D01*
X175514285Y-69080952D01*
X175323809Y-69033333D01*
X174942857Y-69033333D01*
X174847619Y-69080952D01*
X174800000Y-69128571D01*
X174752380Y-69223809D01*
X174752380Y-69414285D01*
X174800000Y-69509523D01*
X174847619Y-69557142D01*
X174942857Y-69604761D01*
X175180952Y-69604761D01*
X175276190Y-69557142D01*
X175323809Y-69509523D01*
X175371428Y-69414285D01*
X175371428Y-69223809D01*
X175323809Y-69128571D01*
X175276190Y-69080952D01*
X175180952Y-69033333D01*
%TO.C,J8*%
X174752380Y-78033333D02*
X175466666Y-78033333D01*
X175609523Y-78080952D01*
X175704761Y-78176190D01*
X175752380Y-78319047D01*
X175752380Y-78414285D01*
X175180952Y-77414285D02*
X175133333Y-77509523D01*
X175085714Y-77557142D01*
X174990476Y-77604761D01*
X174942857Y-77604761D01*
X174847619Y-77557142D01*
X174800000Y-77509523D01*
X174752380Y-77414285D01*
X174752380Y-77223809D01*
X174800000Y-77128571D01*
X174847619Y-77080952D01*
X174942857Y-77033333D01*
X174990476Y-77033333D01*
X175085714Y-77080952D01*
X175133333Y-77128571D01*
X175180952Y-77223809D01*
X175180952Y-77414285D01*
X175228571Y-77509523D01*
X175276190Y-77557142D01*
X175371428Y-77604761D01*
X175561904Y-77604761D01*
X175657142Y-77557142D01*
X175704761Y-77509523D01*
X175752380Y-77414285D01*
X175752380Y-77223809D01*
X175704761Y-77128571D01*
X175657142Y-77080952D01*
X175561904Y-77033333D01*
X175371428Y-77033333D01*
X175276190Y-77080952D01*
X175228571Y-77128571D01*
X175180952Y-77223809D01*
%TO.C,J7*%
X174752380Y-86033333D02*
X175466666Y-86033333D01*
X175609523Y-86080952D01*
X175704761Y-86176190D01*
X175752380Y-86319047D01*
X175752380Y-86414285D01*
X174752380Y-85652380D02*
X174752380Y-84985714D01*
X175752380Y-85414285D01*
%TO.C,J6*%
X174752380Y-94033333D02*
X175466666Y-94033333D01*
X175609523Y-94080952D01*
X175704761Y-94176190D01*
X175752380Y-94319047D01*
X175752380Y-94414285D01*
X174752380Y-93128571D02*
X174752380Y-93319047D01*
X174800000Y-93414285D01*
X174847619Y-93461904D01*
X174990476Y-93557142D01*
X175180952Y-93604761D01*
X175561904Y-93604761D01*
X175657142Y-93557142D01*
X175704761Y-93509523D01*
X175752380Y-93414285D01*
X175752380Y-93223809D01*
X175704761Y-93128571D01*
X175657142Y-93080952D01*
X175561904Y-93033333D01*
X175323809Y-93033333D01*
X175228571Y-93080952D01*
X175180952Y-93128571D01*
X175133333Y-93223809D01*
X175133333Y-93414285D01*
X175180952Y-93509523D01*
X175228571Y-93557142D01*
X175323809Y-93604761D01*
%TO.C,J5*%
X174752380Y-102033333D02*
X175466666Y-102033333D01*
X175609523Y-102080952D01*
X175704761Y-102176190D01*
X175752380Y-102319047D01*
X175752380Y-102414285D01*
X174752380Y-101080952D02*
X174752380Y-101557142D01*
X175228571Y-101604761D01*
X175180952Y-101557142D01*
X175133333Y-101461904D01*
X175133333Y-101223809D01*
X175180952Y-101128571D01*
X175228571Y-101080952D01*
X175323809Y-101033333D01*
X175561904Y-101033333D01*
X175657142Y-101080952D01*
X175704761Y-101128571D01*
X175752380Y-101223809D01*
X175752380Y-101461904D01*
X175704761Y-101557142D01*
X175657142Y-101604761D01*
%TO.C,J4*%
X174752380Y-110033333D02*
X175466666Y-110033333D01*
X175609523Y-110080952D01*
X175704761Y-110176190D01*
X175752380Y-110319047D01*
X175752380Y-110414285D01*
X175085714Y-109128571D02*
X175752380Y-109128571D01*
X174704761Y-109366666D02*
X175419047Y-109604761D01*
X175419047Y-108985714D01*
%TO.C,J3*%
X174752380Y-118033333D02*
X175466666Y-118033333D01*
X175609523Y-118080952D01*
X175704761Y-118176190D01*
X175752380Y-118319047D01*
X175752380Y-118414285D01*
X174752380Y-117652380D02*
X174752380Y-117033333D01*
X175133333Y-117366666D01*
X175133333Y-117223809D01*
X175180952Y-117128571D01*
X175228571Y-117080952D01*
X175323809Y-117033333D01*
X175561904Y-117033333D01*
X175657142Y-117080952D01*
X175704761Y-117128571D01*
X175752380Y-117223809D01*
X175752380Y-117509523D01*
X175704761Y-117604761D01*
X175657142Y-117652380D01*
%TO.C,J2*%
X174752380Y-126033333D02*
X175466666Y-126033333D01*
X175609523Y-126080952D01*
X175704761Y-126176190D01*
X175752380Y-126319047D01*
X175752380Y-126414285D01*
X174847619Y-125604761D02*
X174800000Y-125557142D01*
X174752380Y-125461904D01*
X174752380Y-125223809D01*
X174800000Y-125128571D01*
X174847619Y-125080952D01*
X174942857Y-125033333D01*
X175038095Y-125033333D01*
X175180952Y-125080952D01*
X175752380Y-125652380D01*
X175752380Y-125033333D01*
%TO.C,J1*%
X174752380Y-134033333D02*
X175466666Y-134033333D01*
X175609523Y-134080952D01*
X175704761Y-134176190D01*
X175752380Y-134319047D01*
X175752380Y-134414285D01*
X175752380Y-133033333D02*
X175752380Y-133604761D01*
X175752380Y-133319047D02*
X174752380Y-133319047D01*
X174895238Y-133414285D01*
X174990476Y-133509523D01*
X175038095Y-133604761D01*
%TD*%
M02*
